<svg width="229" height="229" viewBox="0 0 229 229" fill="none" xmlns="http://www.w3.org/2000/svg">
<rect width="229" height="229" fill="white"/>
<rect x="20" y="20" width="189" height="189" fill="#DEDEDE"/>
<line x1="29.1572" y1="20" x2="29.1572" y2="211" stroke="#C9C8C8" stroke-width="2"/>
<line x1="39.3145" y1="20" x2="39.3144" y2="211" stroke="#C9C8C8" stroke-width="2"/>
<line x1="19" y1="20" x2="19" y2="211" stroke="#C9C8C8" stroke-width="2"/>
<line x1="49.4717" y1="20" x2="49.4717" y2="211" stroke="#C9C8C8" stroke-width="2"/>
<line x1="59.6279" y1="20" x2="59.6279" y2="211" stroke="#C9C8C8" stroke-width="2"/>
<line x1="69.7852" y1="20" x2="69.7851" y2="211" stroke="#C9C8C8" stroke-width="2"/>
<line x1="79.9424" y1="20" x2="79.9424" y2="211" stroke="#C9C8C8" stroke-width="2"/>
<line x1="89.084" y1="20" x2="89.084" y2="211" stroke="#C9C8C8" stroke-width="2"/>
<line x1="99.2412" y1="20" x2="99.2412" y2="211" stroke="#C9C8C8" stroke-width="2"/>
<line x1="109.397" y1="20" x2="109.397" y2="211" stroke="#C9C8C8" stroke-width="2"/>
<line x1="119.555" y1="20" x2="119.555" y2="211" stroke="#C9C8C8" stroke-width="2"/>
<line x1="129.712" y1="20" x2="129.712" y2="211" stroke="#C9C8C8" stroke-width="2"/>
<line x1="139.869" y1="18" x2="139.869" y2="211" stroke="#C9C8C8" stroke-width="2"/>
<line x1="150.026" y1="20" x2="150.026" y2="211" stroke="#C9C8C8" stroke-width="2"/>
<line x1="160.184" y1="20" x2="160.184" y2="211" stroke="#C9C8C8" stroke-width="2"/>
<line x1="169.324" y1="20" x2="169.324" y2="211" stroke="#C9C8C8" stroke-width="2"/>
<line x1="179.481" y1="20" x2="179.481" y2="211" stroke="#C9C8C8" stroke-width="2"/>
<line x1="189.639" y1="20" x2="189.639" y2="211" stroke="#C9C8C8" stroke-width="2"/>
<line x1="199.796" y1="20" x2="199.796" y2="211" stroke="#C9C8C8" stroke-width="2"/>
<line x1="18" y1="109.415" x2="212" y2="109.415" stroke="#C9C8C8" stroke-width="2"/>
<line x1="18" y1="99.2593" x2="212" y2="99.2593" stroke="#C9C8C8" stroke-width="2"/>
<line x1="18" y1="139.881" x2="212" y2="139.881" stroke="#C9C8C8" stroke-width="2"/>
<line x1="18" y1="119.57" x2="212" y2="119.57" stroke="#C9C8C8" stroke-width="2"/>
<line x1="18" y1="129.726" x2="212" y2="129.726" stroke="#C9C8C8" stroke-width="2"/>
<line x1="18" y1="59.6528" x2="212" y2="59.6528" stroke="#C9C8C8" stroke-width="2"/>
<line x1="18" y1="49.4976" x2="212" y2="49.4976" stroke="#C9C8C8" stroke-width="2"/>
<line x1="18" y1="89.1035" x2="212" y2="89.1035" stroke="#C9C8C8" stroke-width="2"/>
<line x1="18" y1="69.8081" x2="212" y2="69.8081" stroke="#C9C8C8" stroke-width="2"/>
<line x1="18" y1="78.9482" x2="212" y2="78.9482" stroke="#C9C8C8" stroke-width="2"/>
<line x1="18" y1="19.0312" x2="212" y2="19.0312" stroke="#C9C8C8" stroke-width="2"/>
<line x1="18" y1="49.4976" x2="212" y2="49.4976" stroke="#C9C8C8" stroke-width="2"/>
<line x1="18" y1="29.1865" x2="212" y2="29.1865" stroke="#C9C8C8" stroke-width="2"/>
<line x1="18" y1="39.3418" x2="212" y2="39.3418" stroke="#C9C8C8" stroke-width="2"/>
<line x1="18" y1="209.953" x2="212" y2="209.953" stroke="#C9C8C8" stroke-width="2"/>
<line x1="18" y1="170.347" x2="212" y2="170.347" stroke="#C9C8C8" stroke-width="2"/>
<line x1="18" y1="199.798" x2="212" y2="199.798" stroke="#C9C8C8" stroke-width="2"/>
<line x1="18" y1="180.502" x2="212" y2="180.502" stroke="#C9C8C8" stroke-width="2"/>
<line x1="18" y1="189.643" x2="212" y2="189.643" stroke="#C9C8C8" stroke-width="2"/>
<line x1="18" y1="160.192" x2="212" y2="160.192" stroke="#C9C8C8" stroke-width="2"/>
<line x1="18" y1="150.036" x2="212" y2="150.036" stroke="#C9C8C8" stroke-width="2"/>
<rect x="227.5" y="1.5" width="17" height="226" transform="rotate(90 227.5 1.5)" stroke="#C9C8C8" stroke-width="3"/>
<rect x="227.5" y="210.5" width="17" height="226" transform="rotate(90 227.5 210.5)" stroke="#C9C8C8" stroke-width="3"/>
<rect x="18.5" y="227.5" width="17" height="226" transform="rotate(-180 18.5 227.5)" stroke="#C9C8C8" stroke-width="3"/>
<rect x="227.5" y="227.5" width="17" height="226" transform="rotate(-180 227.5 227.5)" stroke="#C9C8C8" stroke-width="3"/>
</svg>
