<svg width="229" height="229" viewBox="0 0 229 229" fill="none" xmlns="http://www.w3.org/2000/svg">
<rect width="229" height="229" fill="white"/>
<rect x="20" y="20" width="189" height="189" fill="#DEDEDE"/>
<line x1="26" y1="20.9897" x2="26" y2="116.492" stroke="#C9C8C8" stroke-width="2"/>
<line x1="34" y1="20.9897" x2="34" y2="116.492" stroke="#C9C8C8" stroke-width="2"/>
<line x1="18" y1="20.9897" x2="18" y2="116.492" stroke="#C9C8C8" stroke-width="2"/>
<line x1="42" y1="20.9897" x2="42" y2="116.492" stroke="#C9C8C8" stroke-width="2"/>
<line x1="50" y1="20.9897" x2="50" y2="116.492" stroke="#C9C8C8" stroke-width="2"/>
<line x1="58" y1="20.9897" x2="58" y2="116.492" stroke="#C9C8C8" stroke-width="2"/>
<line x1="66" y1="20.9897" x2="66" y2="116.492" stroke="#C9C8C8" stroke-width="2"/>
<line x1="74" y1="20.9897" x2="74" y2="116.492" stroke="#C9C8C8" stroke-width="2"/>
<line x1="82" y1="20.9897" x2="82" y2="116.492" stroke="#C9C8C8" stroke-width="2"/>
<line x1="90" y1="20.9897" x2="90" y2="116.492" stroke="#C9C8C8" stroke-width="2"/>
<line x1="98" y1="20.9897" x2="98" y2="116.492" stroke="#C9C8C8" stroke-width="2"/>
<line x1="106" y1="20.9897" x2="106" y2="116.492" stroke="#C9C8C8" stroke-width="2"/>
<line x1="114" y1="20" x2="114" y2="116.492" stroke="#C9C8C8" stroke-width="2"/>
<line x1="17" y1="91.7402" x2="113.5" y2="91.7402" stroke="#C9C8C8" stroke-width="2"/>
<line x1="17" y1="83.8232" x2="113.5" y2="83.8232" stroke="#C9C8C8" stroke-width="2"/>
<line x1="17" y1="115.492" x2="113.5" y2="115.492" stroke="#C9C8C8" stroke-width="2"/>
<line x1="17" y1="99.6577" x2="113.5" y2="99.6577" stroke="#C9C8C8" stroke-width="2"/>
<line x1="17" y1="107.575" x2="113.5" y2="107.575" stroke="#C9C8C8" stroke-width="2"/>
<line x1="17" y1="52.1538" x2="113.5" y2="52.1538" stroke="#C9C8C8" stroke-width="2"/>
<line x1="17" y1="44.2363" x2="113.5" y2="44.2363" stroke="#C9C8C8" stroke-width="2"/>
<line x1="17" y1="75.9058" x2="113.5" y2="75.9058" stroke="#C9C8C8" stroke-width="2"/>
<line x1="17" y1="60.0713" x2="113.5" y2="60.0713" stroke="#C9C8C8" stroke-width="2"/>
<line x1="17" y1="67.9883" x2="113.5" y2="67.9883" stroke="#C9C8C8" stroke-width="2"/>
<line x1="17" y1="20.4844" x2="113.5" y2="20.4844" stroke="#C9C8C8" stroke-width="2"/>
<line x1="17" y1="44.2363" x2="113.5" y2="44.2363" stroke="#C9C8C8" stroke-width="2"/>
<line x1="17" y1="28.4019" x2="113.5" y2="28.4019" stroke="#C9C8C8" stroke-width="2"/>
<line x1="17" y1="36.3193" x2="113.5" y2="36.3193" stroke="#C9C8C8" stroke-width="2"/>
<line x1="122" y1="20.9897" x2="122" y2="116.492" stroke="#C9C8C8" stroke-width="2"/>
<line x1="130" y1="20.9897" x2="130" y2="116.492" stroke="#C9C8C8" stroke-width="2"/>
<line x1="114" y1="20.9897" x2="114" y2="116.492" stroke="#C9C8C8" stroke-width="2"/>
<line x1="138" y1="20.9897" x2="138" y2="116.492" stroke="#C9C8C8" stroke-width="2"/>
<line x1="146" y1="20.9897" x2="146" y2="116.492" stroke="#C9C8C8" stroke-width="2"/>
<line x1="154" y1="20.9897" x2="154" y2="116.492" stroke="#C9C8C8" stroke-width="2"/>
<line x1="162" y1="20.9897" x2="162" y2="116.492" stroke="#C9C8C8" stroke-width="2"/>
<line x1="170" y1="20.9897" x2="170" y2="116.492" stroke="#C9C8C8" stroke-width="2"/>
<line x1="178" y1="20.9897" x2="178" y2="116.492" stroke="#C9C8C8" stroke-width="2"/>
<line x1="186" y1="20.9897" x2="186" y2="116.492" stroke="#C9C8C8" stroke-width="2"/>
<line x1="194" y1="20.9897" x2="194" y2="116.492" stroke="#C9C8C8" stroke-width="2"/>
<line x1="202" y1="20.9897" x2="202" y2="116.492" stroke="#C9C8C8" stroke-width="2"/>
<line x1="210" y1="20" x2="210" y2="116.492" stroke="#C9C8C8" stroke-width="2"/>
<line x1="113" y1="91.7402" x2="209.5" y2="91.7402" stroke="#C9C8C8" stroke-width="2"/>
<line x1="113" y1="83.8232" x2="209.5" y2="83.8232" stroke="#C9C8C8" stroke-width="2"/>
<line x1="113" y1="115.492" x2="209.5" y2="115.492" stroke="#C9C8C8" stroke-width="2"/>
<line x1="113" y1="99.6577" x2="209.5" y2="99.6577" stroke="#C9C8C8" stroke-width="2"/>
<line x1="113" y1="107.575" x2="209.5" y2="107.575" stroke="#C9C8C8" stroke-width="2"/>
<line x1="113" y1="52.1538" x2="209.5" y2="52.1538" stroke="#C9C8C8" stroke-width="2"/>
<line x1="113" y1="44.2363" x2="209.5" y2="44.2363" stroke="#C9C8C8" stroke-width="2"/>
<line x1="113" y1="75.9058" x2="209.5" y2="75.9058" stroke="#C9C8C8" stroke-width="2"/>
<line x1="113" y1="60.0713" x2="209.5" y2="60.0713" stroke="#C9C8C8" stroke-width="2"/>
<line x1="113" y1="67.9883" x2="209.5" y2="67.9883" stroke="#C9C8C8" stroke-width="2"/>
<line x1="113" y1="20.4844" x2="209.5" y2="20.4844" stroke="#C9C8C8" stroke-width="2"/>
<line x1="113" y1="44.2363" x2="209.5" y2="44.2363" stroke="#C9C8C8" stroke-width="2"/>
<line x1="113" y1="28.4019" x2="209.5" y2="28.4019" stroke="#C9C8C8" stroke-width="2"/>
<line x1="113" y1="36.3193" x2="209.5" y2="36.3193" stroke="#C9C8C8" stroke-width="2"/>
<line x1="26" y1="115.998" x2="26" y2="211.5" stroke="#C9C8C8" stroke-width="2"/>
<line x1="34" y1="115.998" x2="34" y2="211.5" stroke="#C9C8C8" stroke-width="2"/>
<line x1="18" y1="115.998" x2="18" y2="211.5" stroke="#C9C8C8" stroke-width="2"/>
<line x1="42" y1="115.998" x2="42" y2="211.5" stroke="#C9C8C8" stroke-width="2"/>
<line x1="50" y1="115.998" x2="50" y2="211.5" stroke="#C9C8C8" stroke-width="2"/>
<line x1="58" y1="115.998" x2="58" y2="211.5" stroke="#C9C8C8" stroke-width="2"/>
<line x1="66" y1="115.998" x2="66" y2="211.5" stroke="#C9C8C8" stroke-width="2"/>
<line x1="74" y1="115.998" x2="74" y2="211.5" stroke="#C9C8C8" stroke-width="2"/>
<line x1="82" y1="115.998" x2="82" y2="211.5" stroke="#C9C8C8" stroke-width="2"/>
<line x1="90" y1="115.998" x2="90" y2="211.5" stroke="#C9C8C8" stroke-width="2"/>
<line x1="98" y1="115.998" x2="98" y2="211.5" stroke="#C9C8C8" stroke-width="2"/>
<line x1="106" y1="115.998" x2="106" y2="211.5" stroke="#C9C8C8" stroke-width="2"/>
<line x1="114" y1="115.008" x2="114" y2="211.5" stroke="#C9C8C8" stroke-width="2"/>
<line x1="17" y1="186.748" x2="113.5" y2="186.748" stroke="#C9C8C8" stroke-width="2"/>
<line x1="17" y1="178.831" x2="113.5" y2="178.831" stroke="#C9C8C8" stroke-width="2"/>
<line x1="17" y1="210.5" x2="113.5" y2="210.5" stroke="#C9C8C8" stroke-width="2"/>
<line x1="17" y1="194.666" x2="113.5" y2="194.666" stroke="#C9C8C8" stroke-width="2"/>
<line x1="17" y1="202.583" x2="113.5" y2="202.583" stroke="#C9C8C8" stroke-width="2"/>
<line x1="17" y1="147.162" x2="113.5" y2="147.162" stroke="#C9C8C8" stroke-width="2"/>
<line x1="17" y1="139.244" x2="113.5" y2="139.244" stroke="#C9C8C8" stroke-width="2"/>
<line x1="17" y1="170.914" x2="113.5" y2="170.914" stroke="#C9C8C8" stroke-width="2"/>
<line x1="17" y1="155.079" x2="113.5" y2="155.079" stroke="#C9C8C8" stroke-width="2"/>
<line x1="17" y1="162.996" x2="113.5" y2="162.996" stroke="#C9C8C8" stroke-width="2"/>
<line x1="17" y1="115.492" x2="113.5" y2="115.492" stroke="#C9C8C8" stroke-width="2"/>
<line x1="17" y1="139.244" x2="113.5" y2="139.244" stroke="#C9C8C8" stroke-width="2"/>
<line x1="17" y1="123.41" x2="113.5" y2="123.41" stroke="#C9C8C8" stroke-width="2"/>
<line x1="17" y1="131.327" x2="113.5" y2="131.327" stroke="#C9C8C8" stroke-width="2"/>
<line x1="122" y1="115.998" x2="122" y2="211.5" stroke="#C9C8C8" stroke-width="2"/>
<line x1="130" y1="115.998" x2="130" y2="211.5" stroke="#C9C8C8" stroke-width="2"/>
<line x1="114" y1="115.998" x2="114" y2="211.5" stroke="#C9C8C8" stroke-width="2"/>
<line x1="138" y1="115.998" x2="138" y2="211.5" stroke="#C9C8C8" stroke-width="2"/>
<line x1="146" y1="115.998" x2="146" y2="211.5" stroke="#C9C8C8" stroke-width="2"/>
<line x1="154" y1="115.998" x2="154" y2="211.5" stroke="#C9C8C8" stroke-width="2"/>
<line x1="162" y1="115.998" x2="162" y2="211.5" stroke="#C9C8C8" stroke-width="2"/>
<line x1="170" y1="115.998" x2="170" y2="211.5" stroke="#C9C8C8" stroke-width="2"/>
<line x1="178" y1="115.998" x2="178" y2="211.5" stroke="#C9C8C8" stroke-width="2"/>
<line x1="186" y1="115.998" x2="186" y2="211.5" stroke="#C9C8C8" stroke-width="2"/>
<line x1="194" y1="115.998" x2="194" y2="211.5" stroke="#C9C8C8" stroke-width="2"/>
<line x1="202" y1="115.998" x2="202" y2="211.5" stroke="#C9C8C8" stroke-width="2"/>
<line x1="210" y1="115.008" x2="210" y2="211.5" stroke="#C9C8C8" stroke-width="2"/>
<line x1="113" y1="186.748" x2="209.5" y2="186.748" stroke="#C9C8C8" stroke-width="2"/>
<line x1="113" y1="178.831" x2="209.5" y2="178.831" stroke="#C9C8C8" stroke-width="2"/>
<line x1="113" y1="210.5" x2="209.5" y2="210.5" stroke="#C9C8C8" stroke-width="2"/>
<line x1="113" y1="194.666" x2="209.5" y2="194.666" stroke="#C9C8C8" stroke-width="2"/>
<line x1="113" y1="202.583" x2="209.5" y2="202.583" stroke="#C9C8C8" stroke-width="2"/>
<line x1="113" y1="147.162" x2="209.5" y2="147.162" stroke="#C9C8C8" stroke-width="2"/>
<line x1="113" y1="139.244" x2="209.5" y2="139.244" stroke="#C9C8C8" stroke-width="2"/>
<line x1="113" y1="170.914" x2="209.5" y2="170.914" stroke="#C9C8C8" stroke-width="2"/>
<line x1="113" y1="155.079" x2="209.5" y2="155.079" stroke="#C9C8C8" stroke-width="2"/>
<line x1="113" y1="162.996" x2="209.5" y2="162.996" stroke="#C9C8C8" stroke-width="2"/>
<line x1="113" y1="115.492" x2="209.5" y2="115.492" stroke="#C9C8C8" stroke-width="2"/>
<line x1="113" y1="139.244" x2="209.5" y2="139.244" stroke="#C9C8C8" stroke-width="2"/>
<line x1="113" y1="123.41" x2="209.5" y2="123.41" stroke="#C9C8C8" stroke-width="2"/>
<line x1="113" y1="131.327" x2="209.5" y2="131.327" stroke="#C9C8C8" stroke-width="2"/>
<rect x="227.5" y="1.5" width="17" height="226" transform="rotate(90 227.5 1.5)" stroke="#C9C8C8" stroke-width="3"/>
<rect x="227.5" y="210.5" width="17" height="226" transform="rotate(90 227.5 210.5)" stroke="#C9C8C8" stroke-width="3"/>
<rect x="18.5" y="227.5" width="17" height="226" transform="rotate(-180 18.5 227.5)" stroke="#C9C8C8" stroke-width="3"/>
<rect x="227.5" y="227.5" width="17" height="226" transform="rotate(-180 227.5 227.5)" stroke="#C9C8C8" stroke-width="3"/>
</svg>
