<svg width="229" height="229" viewBox="0 0 229 229" fill="none" xmlns="http://www.w3.org/2000/svg">
<rect width="229" height="229" fill="white"/>
<rect x="20" y="20" width="189" height="189" fill="#DEDEDE"/>
<line x1="34.5" y1="19" x2="34.5" y2="212" stroke="#C9C8C8" stroke-width="3"/>
<line x1="50.5" y1="19" x2="50.5" y2="212" stroke="#C9C8C8" stroke-width="3"/>
<line x1="18.5" y1="19" x2="18.5" y2="212" stroke="#C9C8C8" stroke-width="3"/>
<line x1="66.5" y1="19" x2="66.5" y2="212" stroke="#C9C8C8" stroke-width="3"/>
<line x1="82.5" y1="19" x2="82.5" y2="212" stroke="#C9C8C8" stroke-width="3"/>
<line x1="98.5" y1="19" x2="98.5" y2="212" stroke="#C9C8C8" stroke-width="3"/>
<line x1="114.5" y1="19" x2="114.5" y2="212" stroke="#C9C8C8" stroke-width="3"/>
<line x1="130.5" y1="19" x2="130.5" y2="212" stroke="#C9C8C8" stroke-width="3"/>
<line x1="146.5" y1="19" x2="146.5" y2="212" stroke="#C9C8C8" stroke-width="3"/>
<line x1="162.5" y1="19" x2="162.5" y2="212" stroke="#C9C8C8" stroke-width="3"/>
<line x1="178.5" y1="19" x2="178.5" y2="212" stroke="#C9C8C8" stroke-width="3"/>
<line x1="194.5" y1="19" x2="194.5" y2="212" stroke="#C9C8C8" stroke-width="3"/>
<line x1="210.5" y1="17" x2="210.5" y2="212" stroke="#C9C8C8" stroke-width="3"/>
<line x1="17" y1="162.5" x2="210" y2="162.5" stroke="#C9C8C8" stroke-width="3"/>
<line x1="17" y1="146.5" x2="210" y2="146.5" stroke="#C9C8C8" stroke-width="3"/>
<line x1="17" y1="210.5" x2="210" y2="210.5" stroke="#C9C8C8" stroke-width="3"/>
<line x1="17" y1="178.5" x2="210" y2="178.5" stroke="#C9C8C8" stroke-width="3"/>
<line x1="17" y1="194.5" x2="210" y2="194.5" stroke="#C9C8C8" stroke-width="3"/>
<line x1="17" y1="82.5" x2="210" y2="82.5" stroke="#C9C8C8" stroke-width="3"/>
<line x1="17" y1="66.5" x2="210" y2="66.5" stroke="#C9C8C8" stroke-width="3"/>
<line x1="17" y1="130.5" x2="210" y2="130.5" stroke="#C9C8C8" stroke-width="3"/>
<line x1="17" y1="98.5" x2="210" y2="98.5" stroke="#C9C8C8" stroke-width="3"/>
<line x1="17" y1="114.5" x2="210" y2="114.5" stroke="#C9C8C8" stroke-width="3"/>
<line x1="17" y1="18.5" x2="210" y2="18.5" stroke="#C9C8C8" stroke-width="3"/>
<line x1="17" y1="66.5" x2="210" y2="66.5" stroke="#C9C8C8" stroke-width="3"/>
<line x1="17" y1="34.5" x2="210" y2="34.5" stroke="#C9C8C8" stroke-width="3"/>
<line x1="17" y1="50.5" x2="210" y2="50.5" stroke="#C9C8C8" stroke-width="3"/>
<rect x="227.5" y="1.5" width="17" height="226" transform="rotate(90 227.5 1.5)" stroke="#C9C8C8" stroke-width="3"/>
<rect x="227.5" y="210.5" width="17" height="226" transform="rotate(90 227.5 210.5)" stroke="#C9C8C8" stroke-width="3"/>
<rect x="18.5" y="227.5" width="17" height="226" transform="rotate(-180 18.5 227.5)" stroke="#C9C8C8" stroke-width="3"/>
<rect x="227.5" y="227.5" width="17" height="226" transform="rotate(-180 227.5 227.5)" stroke="#C9C8C8" stroke-width="3"/>
</svg>
