<svg width="260" height="304" viewBox="0 0 260 304" fill="none" xmlns="http://www.w3.org/2000/svg">
<circle cx="130" cy="147" r="40" fill="#ECD031"/>
<rect y="14" width="260" height="276" fill="#DEDEDE"/>
<line x1="1.5" y1="3" x2="1.50001" y2="301" stroke="#C9C8C8" stroke-width="3"/>
<line x1="258.5" y1="3" x2="258.5" y2="301" stroke="#C9C8C8" stroke-width="3"/>
<rect x="1.5" y="290.5" width="257" height="12" fill="white" stroke="#C9C8C8" stroke-width="3"/>
<rect x="1.5" y="1.5" width="257" height="12" fill="white" stroke="#C9C8C8" stroke-width="3"/>
<path d="M119.872 155.24C118.736 155.24 117.768 155.072 116.968 154.736C116.168 154.4 115.512 153.936 115 153.344C114.488 152.752 114.104 152.072 113.848 151.304C113.592 150.52 113.44 149.688 113.392 148.808C113.376 148.376 113.36 147.904 113.344 147.392C113.344 146.864 113.344 146.336 113.344 145.808C113.36 145.28 113.376 144.792 113.392 144.344C113.424 143.464 113.576 142.64 113.848 141.872C114.12 141.088 114.512 140.408 115.024 139.832C115.552 139.256 116.216 138.8 117.016 138.464C117.816 138.128 118.768 137.96 119.872 137.96C120.992 137.96 121.952 138.128 122.752 138.464C123.552 138.8 124.208 139.256 124.72 139.832C125.248 140.408 125.64 141.088 125.896 141.872C126.168 142.64 126.32 143.464 126.352 144.344C126.384 144.792 126.4 145.28 126.4 145.808C126.4 146.336 126.4 146.864 126.4 147.392C126.4 147.904 126.384 148.376 126.352 148.808C126.32 149.688 126.176 150.52 125.92 151.304C125.664 152.072 125.28 152.752 124.768 153.344C124.256 153.936 123.592 154.4 122.776 154.736C121.976 155.072 121.008 155.24 119.872 155.24ZM119.872 152.48C120.912 152.48 121.672 152.144 122.152 151.472C122.648 150.784 122.904 149.856 122.92 148.688C122.952 148.224 122.968 147.76 122.968 147.296C122.968 146.816 122.968 146.336 122.968 145.856C122.968 145.376 122.952 144.92 122.92 144.488C122.904 143.352 122.648 142.44 122.152 141.752C121.672 141.048 120.912 140.696 119.872 140.696C118.848 140.696 118.088 141.048 117.592 141.752C117.112 142.44 116.856 143.352 116.824 144.488C116.824 144.92 116.816 145.376 116.8 145.856C116.8 146.336 116.8 146.816 116.8 147.296C116.816 147.76 116.824 148.224 116.824 148.688C116.856 149.856 117.12 150.784 117.616 151.472C118.112 152.144 118.864 152.48 119.872 152.48ZM130.413 155C130.077 155 129.909 154.84 129.909 154.52C129.909 154.424 129.941 154.336 130.005 154.256L141.837 138.656C141.949 138.512 142.061 138.4 142.173 138.32C142.285 138.24 142.445 138.2 142.653 138.2H143.925C144.261 138.2 144.429 138.36 144.429 138.68C144.429 138.776 144.397 138.864 144.333 138.944L132.501 154.544C132.389 154.688 132.277 154.8 132.165 154.88C132.069 154.96 131.909 155 131.685 155H130.413ZM141.957 155.144C140.885 155.144 140.037 154.848 139.413 154.256C138.789 153.664 138.445 152.888 138.381 151.928C138.365 151.512 138.357 151.152 138.357 150.848C138.357 150.544 138.365 150.168 138.381 149.72C138.445 148.76 138.773 147.984 139.365 147.392C139.973 146.8 140.837 146.504 141.957 146.504C143.093 146.504 143.957 146.8 144.549 147.392C145.157 147.984 145.485 148.76 145.533 149.72C145.565 150.168 145.581 150.544 145.581 150.848C145.581 151.152 145.565 151.512 145.533 151.928C145.485 152.888 145.141 153.664 144.501 154.256C143.877 154.848 143.029 155.144 141.957 155.144ZM141.957 153.272C142.309 153.272 142.581 153.2 142.773 153.056C142.981 152.912 143.133 152.728 143.229 152.504C143.325 152.28 143.373 152.056 143.373 151.832C143.405 151.432 143.421 151.096 143.421 150.824C143.421 150.536 143.405 150.208 143.373 149.84C143.357 149.456 143.245 149.112 143.037 148.808C142.829 148.504 142.469 148.352 141.957 148.352C141.461 148.352 141.109 148.504 140.901 148.808C140.693 149.112 140.573 149.456 140.541 149.84C140.525 150.208 140.517 150.536 140.517 150.824C140.517 151.096 140.525 151.432 140.541 151.832C140.573 152.056 140.629 152.28 140.709 152.504C140.805 152.728 140.949 152.912 141.141 153.056C141.349 153.2 141.621 153.272 141.957 153.272ZM132.381 146.648C131.309 146.648 130.461 146.368 129.837 145.808C129.213 145.248 128.869 144.488 128.805 143.528C128.789 143.112 128.781 142.752 128.781 142.448C128.781 142.128 128.789 141.744 128.805 141.296C128.869 140.336 129.197 139.56 129.789 138.968C130.397 138.376 131.261 138.08 132.381 138.08C133.517 138.08 134.381 138.376 134.973 138.968C135.581 139.56 135.909 140.336 135.957 141.296C135.989 141.744 136.005 142.128 136.005 142.448C136.005 142.752 135.989 143.112 135.957 143.528C135.909 144.488 135.565 145.248 134.925 145.808C134.301 146.368 133.453 146.648 132.381 146.648ZM132.381 144.872C132.733 144.872 133.005 144.8 133.197 144.656C133.405 144.512 133.557 144.328 133.653 144.104C133.749 143.88 133.797 143.648 133.797 143.408C133.829 143.008 133.845 142.672 133.845 142.4C133.845 142.112 133.829 141.784 133.797 141.416C133.781 141.048 133.669 140.712 133.461 140.408C133.253 140.104 132.893 139.952 132.381 139.952C131.885 139.952 131.533 140.104 131.325 140.408C131.117 140.712 131.005 141.048 130.989 141.416C130.973 141.784 130.965 142.112 130.965 142.4C130.965 142.672 130.973 143.008 130.989 143.408C131.005 143.648 131.053 143.88 131.133 144.104C131.229 144.328 131.373 144.512 131.565 144.656C131.773 144.8 132.045 144.872 132.381 144.872Z" fill="white"/>
</svg>
