<svg width="260" height="304" viewBox="0 0 260 304" fill="none" xmlns="http://www.w3.org/2000/svg">
<circle cx="130" cy="147" r="40" fill="#ECD031"/>
<rect y="14" width="260" height="276" fill="#DEDEDE" fill-opacity="0.85"/>
<line x1="1.5" y1="3" x2="1.50001" y2="301" stroke="#C9C8C8" stroke-width="3"/>
<line x1="258.5" y1="3" x2="258.5" y2="301" stroke="#C9C8C8" stroke-width="3"/>
<rect x="1.5" y="290.5" width="257" height="12" fill="white" stroke="#C9C8C8" stroke-width="3"/>
<rect x="1.5" y="1.5" width="257" height="12" fill="white" stroke="#C9C8C8" stroke-width="3"/>
<path d="M113.648 155C113.472 155 113.328 154.944 113.216 154.832C113.12 154.72 113.072 154.584 113.072 154.424V141.992L109.424 144.8C109.28 144.896 109.136 144.936 108.992 144.92C108.848 144.888 108.72 144.8 108.608 144.656L107.6 143.36C107.504 143.216 107.464 143.064 107.48 142.904C107.512 142.744 107.6 142.616 107.744 142.52L113.12 138.368C113.216 138.288 113.312 138.24 113.408 138.224C113.504 138.208 113.608 138.2 113.72 138.2H115.832C115.992 138.2 116.128 138.256 116.24 138.368C116.352 138.48 116.408 138.616 116.408 138.776V154.424C116.408 154.584 116.352 154.72 116.24 154.832C116.128 154.944 115.992 155 115.832 155H113.648ZM125.453 155.264C124.077 155.264 122.917 155.04 121.973 154.592C121.029 154.128 120.309 153.528 119.813 152.792C119.333 152.056 119.077 151.272 119.045 150.44C119.029 150.296 119.069 150.184 119.165 150.104C119.277 150.008 119.405 149.96 119.549 149.96H121.781C121.957 149.96 122.101 150 122.213 150.08C122.341 150.144 122.437 150.264 122.501 150.44C122.661 150.92 122.885 151.312 123.173 151.616C123.477 151.92 123.821 152.144 124.205 152.288C124.605 152.432 125.021 152.504 125.453 152.504C126.029 152.504 126.549 152.392 127.013 152.168C127.493 151.928 127.877 151.576 128.165 151.112C128.453 150.648 128.597 150.08 128.597 149.408C128.597 148.816 128.461 148.304 128.189 147.872C127.917 147.44 127.541 147.104 127.061 146.864C126.597 146.608 126.061 146.48 125.453 146.48C125.005 146.48 124.637 146.536 124.349 146.648C124.061 146.76 123.813 146.888 123.605 147.032C123.413 147.176 123.237 147.304 123.077 147.416C122.933 147.528 122.765 147.584 122.573 147.584H120.365C120.221 147.584 120.093 147.536 119.981 147.44C119.885 147.328 119.837 147.2 119.837 147.056L120.677 138.848C120.693 138.64 120.765 138.48 120.893 138.368C121.021 138.256 121.173 138.2 121.349 138.2H130.373C130.533 138.2 130.669 138.256 130.781 138.368C130.893 138.48 130.949 138.616 130.949 138.776V140.384C130.949 140.544 130.893 140.68 130.781 140.792C130.669 140.904 130.533 140.96 130.373 140.96H123.437L123.053 144.872C123.341 144.68 123.725 144.496 124.205 144.32C124.685 144.144 125.349 144.056 126.197 144.056C126.965 144.056 127.693 144.184 128.381 144.44C129.085 144.68 129.709 145.04 130.253 145.52C130.797 145.984 131.221 146.552 131.525 147.224C131.845 147.88 132.005 148.632 132.005 149.48C132.005 150.648 131.733 151.664 131.189 152.528C130.645 153.392 129.885 154.064 128.909 154.544C127.933 155.024 126.781 155.264 125.453 155.264ZM135.632 155C135.296 155 135.128 154.84 135.128 154.52C135.128 154.424 135.16 154.336 135.224 154.256L147.056 138.656C147.168 138.512 147.28 138.4 147.392 138.32C147.504 138.24 147.664 138.2 147.872 138.2H149.144C149.48 138.2 149.648 138.36 149.648 138.68C149.648 138.776 149.616 138.864 149.552 138.944L137.72 154.544C137.608 154.688 137.496 154.8 137.384 154.88C137.288 154.96 137.128 155 136.904 155H135.632ZM147.176 155.144C146.104 155.144 145.256 154.848 144.632 154.256C144.008 153.664 143.664 152.888 143.6 151.928C143.584 151.512 143.576 151.152 143.576 150.848C143.576 150.544 143.584 150.168 143.6 149.72C143.664 148.76 143.992 147.984 144.584 147.392C145.192 146.8 146.056 146.504 147.176 146.504C148.312 146.504 149.176 146.8 149.768 147.392C150.376 147.984 150.704 148.76 150.752 149.72C150.784 150.168 150.8 150.544 150.8 150.848C150.8 151.152 150.784 151.512 150.752 151.928C150.704 152.888 150.36 153.664 149.72 154.256C149.096 154.848 148.248 155.144 147.176 155.144ZM147.176 153.272C147.528 153.272 147.8 153.2 147.992 153.056C148.2 152.912 148.352 152.728 148.448 152.504C148.544 152.28 148.592 152.056 148.592 151.832C148.624 151.432 148.64 151.096 148.64 150.824C148.64 150.536 148.624 150.208 148.592 149.84C148.576 149.456 148.464 149.112 148.256 148.808C148.048 148.504 147.688 148.352 147.176 148.352C146.68 148.352 146.328 148.504 146.12 148.808C145.912 149.112 145.792 149.456 145.76 149.84C145.744 150.208 145.736 150.536 145.736 150.824C145.736 151.096 145.744 151.432 145.76 151.832C145.792 152.056 145.848 152.28 145.928 152.504C146.024 152.728 146.168 152.912 146.36 153.056C146.568 153.2 146.84 153.272 147.176 153.272ZM137.6 146.648C136.528 146.648 135.68 146.368 135.056 145.808C134.432 145.248 134.088 144.488 134.024 143.528C134.008 143.112 134 142.752 134 142.448C134 142.128 134.008 141.744 134.024 141.296C134.088 140.336 134.416 139.56 135.008 138.968C135.616 138.376 136.48 138.08 137.6 138.08C138.736 138.08 139.6 138.376 140.192 138.968C140.8 139.56 141.128 140.336 141.176 141.296C141.208 141.744 141.224 142.128 141.224 142.448C141.224 142.752 141.208 143.112 141.176 143.528C141.128 144.488 140.784 145.248 140.144 145.808C139.52 146.368 138.672 146.648 137.6 146.648ZM137.6 144.872C137.952 144.872 138.224 144.8 138.416 144.656C138.624 144.512 138.776 144.328 138.872 144.104C138.968 143.88 139.016 143.648 139.016 143.408C139.048 143.008 139.064 142.672 139.064 142.4C139.064 142.112 139.048 141.784 139.016 141.416C139 141.048 138.888 140.712 138.68 140.408C138.472 140.104 138.112 139.952 137.6 139.952C137.104 139.952 136.752 140.104 136.544 140.408C136.336 140.712 136.224 141.048 136.208 141.416C136.192 141.784 136.184 142.112 136.184 142.4C136.184 142.672 136.192 143.008 136.208 143.408C136.224 143.648 136.272 143.88 136.352 144.104C136.448 144.328 136.592 144.512 136.784 144.656C136.992 144.8 137.264 144.872 137.6 144.872Z" fill="white"/>
</svg>
