<svg width="260" height="304" viewBox="0 0 260 304" fill="none" xmlns="http://www.w3.org/2000/svg">
<circle cx="130" cy="147" r="40" fill="#ECD031"/>
<rect y="14" width="260" height="276" fill="#DEDEDE" fill-opacity="0.65"/>
<line x1="1.5" y1="3" x2="1.50001" y2="301" stroke="#C9C8C8" stroke-width="3"/>
<line x1="258.5" y1="3" x2="258.5" y2="301" stroke="#C9C8C8" stroke-width="3"/>
<rect x="1.5" y="290.5" width="257" height="12" fill="white" stroke="#C9C8C8" stroke-width="3"/>
<rect x="1.5" y="1.5" width="257" height="12" fill="white" stroke="#C9C8C8" stroke-width="3"/>
<path d="M112.464 155.24C111.344 155.24 110.376 155.104 109.56 154.832C108.744 154.56 108.064 154.208 107.52 153.776C106.992 153.328 106.592 152.848 106.32 152.336C106.048 151.808 105.904 151.288 105.888 150.776C105.888 150.632 105.936 150.52 106.032 150.44C106.144 150.344 106.272 150.296 106.416 150.296H108.576C108.736 150.296 108.872 150.328 108.984 150.392C109.096 150.456 109.192 150.584 109.272 150.776C109.416 151.208 109.648 151.552 109.968 151.808C110.304 152.064 110.688 152.248 111.12 152.36C111.552 152.456 112.008 152.504 112.488 152.504C113.448 152.504 114.208 152.28 114.768 151.832C115.344 151.368 115.632 150.712 115.632 149.864C115.632 149.016 115.368 148.408 114.84 148.04C114.312 147.656 113.576 147.464 112.632 147.464H110.16C109.984 147.464 109.84 147.416 109.728 147.32C109.616 147.208 109.56 147.064 109.56 146.888V145.88C109.56 145.72 109.592 145.584 109.656 145.472C109.736 145.344 109.816 145.24 109.896 145.16L114.192 140.96H107.328C107.152 140.96 107.008 140.904 106.896 140.792C106.8 140.68 106.752 140.544 106.752 140.384V138.8C106.752 138.624 106.8 138.48 106.896 138.368C107.008 138.256 107.152 138.2 107.328 138.2H117.624C117.8 138.2 117.944 138.256 118.056 138.368C118.168 138.48 118.224 138.624 118.224 138.8V140.24C118.224 140.384 118.192 140.512 118.128 140.624C118.064 140.736 117.992 140.832 117.912 140.912L113.76 145.184L114.048 145.208C115.024 145.288 115.888 145.512 116.64 145.88C117.408 146.232 118 146.752 118.416 147.44C118.848 148.128 119.064 148.992 119.064 150.032C119.064 151.12 118.776 152.056 118.2 152.84C117.64 153.608 116.864 154.2 115.872 154.616C114.88 155.032 113.744 155.24 112.464 155.24ZM127.461 155.264C126.085 155.264 124.925 155.04 123.981 154.592C123.037 154.128 122.317 153.528 121.821 152.792C121.341 152.056 121.085 151.272 121.053 150.44C121.037 150.296 121.077 150.184 121.173 150.104C121.285 150.008 121.413 149.96 121.557 149.96H123.789C123.965 149.96 124.109 150 124.221 150.08C124.349 150.144 124.445 150.264 124.509 150.44C124.669 150.92 124.893 151.312 125.181 151.616C125.485 151.92 125.829 152.144 126.213 152.288C126.613 152.432 127.029 152.504 127.461 152.504C128.037 152.504 128.557 152.392 129.021 152.168C129.501 151.928 129.885 151.576 130.173 151.112C130.461 150.648 130.605 150.08 130.605 149.408C130.605 148.816 130.469 148.304 130.197 147.872C129.925 147.44 129.549 147.104 129.069 146.864C128.605 146.608 128.069 146.48 127.461 146.48C127.013 146.48 126.645 146.536 126.357 146.648C126.069 146.76 125.821 146.888 125.613 147.032C125.421 147.176 125.245 147.304 125.085 147.416C124.941 147.528 124.773 147.584 124.581 147.584H122.373C122.229 147.584 122.101 147.536 121.989 147.44C121.893 147.328 121.845 147.2 121.845 147.056L122.685 138.848C122.701 138.64 122.773 138.48 122.901 138.368C123.029 138.256 123.181 138.2 123.357 138.2H132.381C132.541 138.2 132.677 138.256 132.789 138.368C132.901 138.48 132.957 138.616 132.957 138.776V140.384C132.957 140.544 132.901 140.68 132.789 140.792C132.677 140.904 132.541 140.96 132.381 140.96H125.445L125.061 144.872C125.349 144.68 125.733 144.496 126.213 144.32C126.693 144.144 127.357 144.056 128.205 144.056C128.973 144.056 129.701 144.184 130.389 144.44C131.093 144.68 131.717 145.04 132.261 145.52C132.805 145.984 133.229 146.552 133.533 147.224C133.853 147.88 134.013 148.632 134.013 149.48C134.013 150.648 133.741 151.664 133.197 152.528C132.653 153.392 131.893 154.064 130.917 154.544C129.941 155.024 128.789 155.264 127.461 155.264ZM137.64 155C137.304 155 137.136 154.84 137.136 154.52C137.136 154.424 137.168 154.336 137.232 154.256L149.064 138.656C149.176 138.512 149.288 138.4 149.4 138.32C149.512 138.24 149.672 138.2 149.88 138.2H151.152C151.488 138.2 151.656 138.36 151.656 138.68C151.656 138.776 151.624 138.864 151.56 138.944L139.728 154.544C139.616 154.688 139.504 154.8 139.392 154.88C139.296 154.96 139.136 155 138.912 155H137.64ZM149.184 155.144C148.112 155.144 147.264 154.848 146.64 154.256C146.016 153.664 145.672 152.888 145.608 151.928C145.592 151.512 145.584 151.152 145.584 150.848C145.584 150.544 145.592 150.168 145.608 149.72C145.672 148.76 146 147.984 146.592 147.392C147.2 146.8 148.064 146.504 149.184 146.504C150.32 146.504 151.184 146.8 151.776 147.392C152.384 147.984 152.712 148.76 152.76 149.72C152.792 150.168 152.808 150.544 152.808 150.848C152.808 151.152 152.792 151.512 152.76 151.928C152.712 152.888 152.368 153.664 151.728 154.256C151.104 154.848 150.256 155.144 149.184 155.144ZM149.184 153.272C149.536 153.272 149.808 153.2 150 153.056C150.208 152.912 150.36 152.728 150.456 152.504C150.552 152.28 150.6 152.056 150.6 151.832C150.632 151.432 150.648 151.096 150.648 150.824C150.648 150.536 150.632 150.208 150.6 149.84C150.584 149.456 150.472 149.112 150.264 148.808C150.056 148.504 149.696 148.352 149.184 148.352C148.688 148.352 148.336 148.504 148.128 148.808C147.92 149.112 147.8 149.456 147.768 149.84C147.752 150.208 147.744 150.536 147.744 150.824C147.744 151.096 147.752 151.432 147.768 151.832C147.8 152.056 147.856 152.28 147.936 152.504C148.032 152.728 148.176 152.912 148.368 153.056C148.576 153.2 148.848 153.272 149.184 153.272ZM139.608 146.648C138.536 146.648 137.688 146.368 137.064 145.808C136.44 145.248 136.096 144.488 136.032 143.528C136.016 143.112 136.008 142.752 136.008 142.448C136.008 142.128 136.016 141.744 136.032 141.296C136.096 140.336 136.424 139.56 137.016 138.968C137.624 138.376 138.488 138.08 139.608 138.08C140.744 138.08 141.608 138.376 142.2 138.968C142.808 139.56 143.136 140.336 143.184 141.296C143.216 141.744 143.232 142.128 143.232 142.448C143.232 142.752 143.216 143.112 143.184 143.528C143.136 144.488 142.792 145.248 142.152 145.808C141.528 146.368 140.68 146.648 139.608 146.648ZM139.608 144.872C139.96 144.872 140.232 144.8 140.424 144.656C140.632 144.512 140.784 144.328 140.88 144.104C140.976 143.88 141.024 143.648 141.024 143.408C141.056 143.008 141.072 142.672 141.072 142.4C141.072 142.112 141.056 141.784 141.024 141.416C141.008 141.048 140.896 140.712 140.688 140.408C140.48 140.104 140.12 139.952 139.608 139.952C139.112 139.952 138.76 140.104 138.552 140.408C138.344 140.712 138.232 141.048 138.216 141.416C138.2 141.784 138.192 142.112 138.192 142.4C138.192 142.672 138.2 143.008 138.216 143.408C138.232 143.648 138.28 143.88 138.36 144.104C138.456 144.328 138.6 144.512 138.792 144.656C139 144.8 139.272 144.872 139.608 144.872Z" fill="white"/>
</svg>
