<svg width="260" height="304" viewBox="0 0 260 304" fill="none" xmlns="http://www.w3.org/2000/svg">
<circle cx="130" cy="147" r="40" fill="#ECD031"/>
<rect y="14" width="260" height="276" fill="#DEDEDE" fill-opacity="0.45"/>
<line x1="1.5" y1="3" x2="1.50001" y2="301" stroke="#C9C8C8" stroke-width="3"/>
<line x1="258.5" y1="3" x2="258.5" y2="301" stroke="#C9C8C8" stroke-width="3"/>
<rect x="1.5" y="290.5" width="257" height="12" fill="white" stroke="#C9C8C8" stroke-width="3"/>
<rect x="1.5" y="1.5" width="257" height="12" fill="white" stroke="#C9C8C8" stroke-width="3"/>
<path d="M113.344 155.264C111.968 155.264 110.808 155.04 109.864 154.592C108.92 154.128 108.2 153.528 107.704 152.792C107.224 152.056 106.968 151.272 106.936 150.44C106.92 150.296 106.96 150.184 107.056 150.104C107.168 150.008 107.296 149.96 107.44 149.96H109.672C109.848 149.96 109.992 150 110.104 150.08C110.232 150.144 110.328 150.264 110.392 150.44C110.552 150.92 110.776 151.312 111.064 151.616C111.368 151.92 111.712 152.144 112.096 152.288C112.496 152.432 112.912 152.504 113.344 152.504C113.92 152.504 114.44 152.392 114.904 152.168C115.384 151.928 115.768 151.576 116.056 151.112C116.344 150.648 116.488 150.08 116.488 149.408C116.488 148.816 116.352 148.304 116.08 147.872C115.808 147.44 115.432 147.104 114.952 146.864C114.488 146.608 113.952 146.48 113.344 146.48C112.896 146.48 112.528 146.536 112.24 146.648C111.952 146.76 111.704 146.888 111.496 147.032C111.304 147.176 111.128 147.304 110.968 147.416C110.824 147.528 110.656 147.584 110.464 147.584H108.256C108.112 147.584 107.984 147.536 107.872 147.44C107.776 147.328 107.728 147.2 107.728 147.056L108.568 138.848C108.584 138.64 108.656 138.48 108.784 138.368C108.912 138.256 109.064 138.2 109.24 138.2H118.264C118.424 138.2 118.56 138.256 118.672 138.368C118.784 138.48 118.84 138.616 118.84 138.776V140.384C118.84 140.544 118.784 140.68 118.672 140.792C118.56 140.904 118.424 140.96 118.264 140.96H111.328L110.944 144.872C111.232 144.68 111.616 144.496 112.096 144.32C112.576 144.144 113.24 144.056 114.088 144.056C114.856 144.056 115.584 144.184 116.272 144.44C116.976 144.68 117.6 145.04 118.144 145.52C118.688 145.984 119.112 146.552 119.416 147.224C119.736 147.88 119.896 148.632 119.896 149.48C119.896 150.648 119.624 151.664 119.08 152.528C118.536 153.392 117.776 154.064 116.8 154.544C115.824 155.024 114.672 155.264 113.344 155.264ZM128.227 155.264C126.851 155.264 125.691 155.04 124.747 154.592C123.803 154.128 123.083 153.528 122.587 152.792C122.107 152.056 121.851 151.272 121.819 150.44C121.803 150.296 121.843 150.184 121.939 150.104C122.051 150.008 122.179 149.96 122.323 149.96H124.555C124.731 149.96 124.875 150 124.987 150.08C125.115 150.144 125.211 150.264 125.275 150.44C125.435 150.92 125.659 151.312 125.947 151.616C126.251 151.92 126.595 152.144 126.979 152.288C127.379 152.432 127.795 152.504 128.227 152.504C128.803 152.504 129.323 152.392 129.787 152.168C130.267 151.928 130.651 151.576 130.939 151.112C131.227 150.648 131.371 150.08 131.371 149.408C131.371 148.816 131.235 148.304 130.963 147.872C130.691 147.44 130.315 147.104 129.835 146.864C129.371 146.608 128.835 146.48 128.227 146.48C127.779 146.48 127.411 146.536 127.123 146.648C126.835 146.76 126.587 146.888 126.379 147.032C126.187 147.176 126.011 147.304 125.851 147.416C125.707 147.528 125.539 147.584 125.347 147.584H123.139C122.995 147.584 122.867 147.536 122.755 147.44C122.659 147.328 122.611 147.2 122.611 147.056L123.451 138.848C123.467 138.64 123.539 138.48 123.667 138.368C123.795 138.256 123.947 138.2 124.123 138.2H133.147C133.307 138.2 133.443 138.256 133.555 138.368C133.667 138.48 133.723 138.616 133.723 138.776V140.384C133.723 140.544 133.667 140.68 133.555 140.792C133.443 140.904 133.307 140.96 133.147 140.96H126.211L125.827 144.872C126.115 144.68 126.499 144.496 126.979 144.32C127.459 144.144 128.123 144.056 128.971 144.056C129.739 144.056 130.467 144.184 131.155 144.44C131.859 144.68 132.483 145.04 133.027 145.52C133.571 145.984 133.995 146.552 134.299 147.224C134.619 147.88 134.779 148.632 134.779 149.48C134.779 150.648 134.507 151.664 133.963 152.528C133.419 153.392 132.659 154.064 131.683 154.544C130.707 155.024 129.555 155.264 128.227 155.264ZM138.406 155C138.07 155 137.902 154.84 137.902 154.52C137.902 154.424 137.934 154.336 137.998 154.256L149.83 138.656C149.942 138.512 150.054 138.4 150.166 138.32C150.278 138.24 150.438 138.2 150.646 138.2H151.918C152.254 138.2 152.422 138.36 152.422 138.68C152.422 138.776 152.39 138.864 152.326 138.944L140.494 154.544C140.382 154.688 140.27 154.8 140.158 154.88C140.062 154.96 139.902 155 139.678 155H138.406ZM149.95 155.144C148.878 155.144 148.03 154.848 147.406 154.256C146.782 153.664 146.438 152.888 146.374 151.928C146.358 151.512 146.35 151.152 146.35 150.848C146.35 150.544 146.358 150.168 146.374 149.72C146.438 148.76 146.766 147.984 147.358 147.392C147.966 146.8 148.83 146.504 149.95 146.504C151.086 146.504 151.95 146.8 152.542 147.392C153.15 147.984 153.478 148.76 153.526 149.72C153.558 150.168 153.574 150.544 153.574 150.848C153.574 151.152 153.558 151.512 153.526 151.928C153.478 152.888 153.134 153.664 152.494 154.256C151.87 154.848 151.022 155.144 149.95 155.144ZM149.95 153.272C150.302 153.272 150.574 153.2 150.766 153.056C150.974 152.912 151.126 152.728 151.222 152.504C151.318 152.28 151.366 152.056 151.366 151.832C151.398 151.432 151.414 151.096 151.414 150.824C151.414 150.536 151.398 150.208 151.366 149.84C151.35 149.456 151.238 149.112 151.03 148.808C150.822 148.504 150.462 148.352 149.95 148.352C149.454 148.352 149.102 148.504 148.894 148.808C148.686 149.112 148.566 149.456 148.534 149.84C148.518 150.208 148.51 150.536 148.51 150.824C148.51 151.096 148.518 151.432 148.534 151.832C148.566 152.056 148.622 152.28 148.702 152.504C148.798 152.728 148.942 152.912 149.134 153.056C149.342 153.2 149.614 153.272 149.95 153.272ZM140.374 146.648C139.302 146.648 138.454 146.368 137.83 145.808C137.206 145.248 136.862 144.488 136.798 143.528C136.782 143.112 136.774 142.752 136.774 142.448C136.774 142.128 136.782 141.744 136.798 141.296C136.862 140.336 137.19 139.56 137.782 138.968C138.39 138.376 139.254 138.08 140.374 138.08C141.51 138.08 142.374 138.376 142.966 138.968C143.574 139.56 143.902 140.336 143.95 141.296C143.982 141.744 143.998 142.128 143.998 142.448C143.998 142.752 143.982 143.112 143.95 143.528C143.902 144.488 143.558 145.248 142.918 145.808C142.294 146.368 141.446 146.648 140.374 146.648ZM140.374 144.872C140.726 144.872 140.998 144.8 141.19 144.656C141.398 144.512 141.55 144.328 141.646 144.104C141.742 143.88 141.79 143.648 141.79 143.408C141.822 143.008 141.838 142.672 141.838 142.4C141.838 142.112 141.822 141.784 141.79 141.416C141.774 141.048 141.662 140.712 141.454 140.408C141.246 140.104 140.886 139.952 140.374 139.952C139.878 139.952 139.526 140.104 139.318 140.408C139.11 140.712 138.998 141.048 138.982 141.416C138.966 141.784 138.958 142.112 138.958 142.4C138.958 142.672 138.966 143.008 138.982 143.408C138.998 143.648 139.046 143.88 139.126 144.104C139.222 144.328 139.366 144.512 139.558 144.656C139.766 144.8 140.038 144.872 140.374 144.872Z" fill="white"/>
</svg>
