<svg width="260" height="304" viewBox="0 0 260 304" fill="none" xmlns="http://www.w3.org/2000/svg">
<circle cx="130" cy="147" r="40" fill="#ECD031"/>
<rect y="14" width="260" height="276" fill="#DEDEDE" fill-opacity="0.3"/>
<line x1="1.5" y1="3" x2="1.50001" y2="301" stroke="#C9C8C8" stroke-width="3"/>
<line x1="258.5" y1="3" x2="258.5" y2="301" stroke="#C9C8C8" stroke-width="3"/>
<rect x="1.5" y="290.5" width="257" height="12" fill="white" stroke="#C9C8C8" stroke-width="3"/>
<rect x="1.5" y="1.5" width="257" height="12" fill="white" stroke="#C9C8C8" stroke-width="3"/>
<path d="M109.48 155C109.336 155 109.216 154.952 109.12 154.856C109.024 154.744 108.976 154.616 108.976 154.472C108.976 154.408 108.992 154.336 109.024 154.256L114.808 141.056H107.272C107.096 141.056 106.952 141 106.84 140.888C106.744 140.776 106.696 140.64 106.696 140.48V138.8C106.696 138.624 106.744 138.48 106.84 138.368C106.952 138.256 107.096 138.2 107.272 138.2H117.808C117.984 138.2 118.12 138.256 118.216 138.368C118.328 138.48 118.384 138.624 118.384 138.8V140.288C118.384 140.512 118.36 140.704 118.312 140.864C118.28 141.008 118.232 141.16 118.168 141.32L112.432 154.424C112.384 154.536 112.296 154.664 112.168 154.808C112.056 154.936 111.888 155 111.664 155H109.48ZM126.903 155.24C125.767 155.24 124.799 155.072 123.999 154.736C123.199 154.4 122.543 153.936 122.031 153.344C121.519 152.752 121.135 152.072 120.879 151.304C120.623 150.52 120.471 149.688 120.423 148.808C120.407 148.376 120.391 147.904 120.375 147.392C120.375 146.864 120.375 146.336 120.375 145.808C120.391 145.28 120.407 144.792 120.423 144.344C120.455 143.464 120.607 142.64 120.879 141.872C121.151 141.088 121.543 140.408 122.055 139.832C122.583 139.256 123.247 138.8 124.047 138.464C124.847 138.128 125.799 137.96 126.903 137.96C128.023 137.96 128.983 138.128 129.783 138.464C130.583 138.8 131.239 139.256 131.751 139.832C132.279 140.408 132.671 141.088 132.927 141.872C133.199 142.64 133.351 143.464 133.383 144.344C133.415 144.792 133.431 145.28 133.431 145.808C133.431 146.336 133.431 146.864 133.431 147.392C133.431 147.904 133.415 148.376 133.383 148.808C133.351 149.688 133.207 150.52 132.951 151.304C132.695 152.072 132.311 152.752 131.799 153.344C131.287 153.936 130.623 154.4 129.807 154.736C129.007 155.072 128.039 155.24 126.903 155.24ZM126.903 152.48C127.943 152.48 128.703 152.144 129.183 151.472C129.679 150.784 129.935 149.856 129.951 148.688C129.983 148.224 129.999 147.76 129.999 147.296C129.999 146.816 129.999 146.336 129.999 145.856C129.999 145.376 129.983 144.92 129.951 144.488C129.935 143.352 129.679 142.44 129.183 141.752C128.703 141.048 127.943 140.696 126.903 140.696C125.879 140.696 125.119 141.048 124.623 141.752C124.143 142.44 123.887 143.352 123.855 144.488C123.855 144.92 123.847 145.376 123.831 145.856C123.831 146.336 123.831 146.816 123.831 147.296C123.847 147.76 123.855 148.224 123.855 148.688C123.887 149.856 124.151 150.784 124.647 151.472C125.143 152.144 125.895 152.48 126.903 152.48ZM137.445 155C137.109 155 136.941 154.84 136.941 154.52C136.941 154.424 136.973 154.336 137.037 154.256L148.869 138.656C148.981 138.512 149.093 138.4 149.205 138.32C149.317 138.24 149.477 138.2 149.685 138.2H150.957C151.293 138.2 151.461 138.36 151.461 138.68C151.461 138.776 151.429 138.864 151.365 138.944L139.533 154.544C139.421 154.688 139.309 154.8 139.197 154.88C139.101 154.96 138.941 155 138.717 155H137.445ZM148.989 155.144C147.917 155.144 147.069 154.848 146.445 154.256C145.821 153.664 145.477 152.888 145.413 151.928C145.397 151.512 145.389 151.152 145.389 150.848C145.389 150.544 145.397 150.168 145.413 149.72C145.477 148.76 145.805 147.984 146.397 147.392C147.005 146.8 147.869 146.504 148.989 146.504C150.125 146.504 150.989 146.8 151.581 147.392C152.189 147.984 152.517 148.76 152.565 149.72C152.597 150.168 152.613 150.544 152.613 150.848C152.613 151.152 152.597 151.512 152.565 151.928C152.517 152.888 152.173 153.664 151.533 154.256C150.909 154.848 150.061 155.144 148.989 155.144ZM148.989 153.272C149.341 153.272 149.613 153.2 149.805 153.056C150.013 152.912 150.165 152.728 150.261 152.504C150.357 152.28 150.405 152.056 150.405 151.832C150.437 151.432 150.453 151.096 150.453 150.824C150.453 150.536 150.437 150.208 150.405 149.84C150.389 149.456 150.277 149.112 150.069 148.808C149.861 148.504 149.501 148.352 148.989 148.352C148.493 148.352 148.141 148.504 147.933 148.808C147.725 149.112 147.605 149.456 147.573 149.84C147.557 150.208 147.549 150.536 147.549 150.824C147.549 151.096 147.557 151.432 147.573 151.832C147.605 152.056 147.661 152.28 147.741 152.504C147.837 152.728 147.981 152.912 148.173 153.056C148.381 153.2 148.653 153.272 148.989 153.272ZM139.413 146.648C138.341 146.648 137.493 146.368 136.869 145.808C136.245 145.248 135.901 144.488 135.837 143.528C135.821 143.112 135.813 142.752 135.813 142.448C135.813 142.128 135.821 141.744 135.837 141.296C135.901 140.336 136.229 139.56 136.821 138.968C137.429 138.376 138.293 138.08 139.413 138.08C140.549 138.08 141.413 138.376 142.005 138.968C142.613 139.56 142.941 140.336 142.989 141.296C143.021 141.744 143.037 142.128 143.037 142.448C143.037 142.752 143.021 143.112 142.989 143.528C142.941 144.488 142.597 145.248 141.957 145.808C141.333 146.368 140.485 146.648 139.413 146.648ZM139.413 144.872C139.765 144.872 140.037 144.8 140.229 144.656C140.437 144.512 140.589 144.328 140.685 144.104C140.781 143.88 140.829 143.648 140.829 143.408C140.861 143.008 140.877 142.672 140.877 142.4C140.877 142.112 140.861 141.784 140.829 141.416C140.813 141.048 140.701 140.712 140.493 140.408C140.285 140.104 139.925 139.952 139.413 139.952C138.917 139.952 138.565 140.104 138.357 140.408C138.149 140.712 138.037 141.048 138.021 141.416C138.005 141.784 137.997 142.112 137.997 142.4C137.997 142.672 138.005 143.008 138.021 143.408C138.037 143.648 138.085 143.88 138.165 144.104C138.261 144.328 138.405 144.512 138.597 144.656C138.805 144.8 139.077 144.872 139.413 144.872Z" fill="white"/>
</svg>
