<svg width="260" height="304" viewBox="0 0 260 304" fill="none" xmlns="http://www.w3.org/2000/svg">
<circle cx="130" cy="147" r="40" fill="#ECD031"/>
<rect y="14" width="260" height="276" fill="#DEDEDE" fill-opacity="0.15"/>
<line x1="1.5" y1="3" x2="1.50001" y2="301" stroke="#C9C8C8" stroke-width="3"/>
<line x1="258.5" y1="3" x2="258.5" y2="301" stroke="#C9C8C8" stroke-width="3"/>
<rect x="1.5" y="290.5" width="257" height="12" fill="white" stroke="#C9C8C8" stroke-width="3"/>
<rect x="1.5" y="1.5" width="257" height="12" fill="white" stroke="#C9C8C8" stroke-width="3"/>
<path d="M112.872 155.24C111.816 155.24 110.872 155.112 110.04 154.856C109.208 154.6 108.504 154.24 107.928 153.776C107.368 153.312 106.936 152.768 106.632 152.144C106.344 151.52 106.2 150.824 106.2 150.056C106.2 149.128 106.424 148.328 106.872 147.656C107.336 146.968 107.936 146.44 108.672 146.072C108.08 145.704 107.616 145.232 107.28 144.656C106.96 144.08 106.8 143.408 106.8 142.64C106.8 141.712 107.032 140.904 107.496 140.216C107.976 139.512 108.664 138.96 109.56 138.56C110.472 138.16 111.576 137.96 112.872 137.96C114.168 137.96 115.264 138.16 116.16 138.56C117.056 138.944 117.736 139.488 118.2 140.192C118.664 140.88 118.896 141.688 118.896 142.616C118.896 143.384 118.736 144.056 118.416 144.632C118.096 145.208 117.648 145.688 117.072 146.072C117.824 146.424 118.424 146.952 118.872 147.656C119.32 148.344 119.544 149.152 119.544 150.08C119.544 151.088 119.28 151.984 118.752 152.768C118.24 153.536 117.48 154.144 116.472 154.592C115.48 155.024 114.28 155.24 112.872 155.24ZM112.872 152.744C113.496 152.744 114.056 152.64 114.552 152.432C115.064 152.208 115.464 151.896 115.752 151.496C116.056 151.096 116.208 150.624 116.208 150.08C116.208 149.52 116.056 149.048 115.752 148.664C115.464 148.264 115.064 147.96 114.552 147.752C114.056 147.528 113.496 147.416 112.872 147.416C112.248 147.416 111.68 147.528 111.168 147.752C110.672 147.96 110.272 148.264 109.968 148.664C109.68 149.048 109.536 149.52 109.536 150.08C109.536 150.624 109.68 151.096 109.968 151.496C110.272 151.896 110.672 152.208 111.168 152.432C111.68 152.64 112.248 152.744 112.872 152.744ZM112.872 145.04C113.4 145.024 113.88 144.92 114.312 144.728C114.76 144.536 115.112 144.272 115.368 143.936C115.64 143.6 115.776 143.208 115.776 142.76C115.776 142.296 115.648 141.896 115.392 141.56C115.152 141.208 114.808 140.936 114.36 140.744C113.928 140.552 113.432 140.456 112.872 140.456C112.312 140.456 111.808 140.552 111.36 140.744C110.928 140.936 110.584 141.208 110.328 141.56C110.088 141.896 109.968 142.296 109.968 142.76C109.968 143.224 110.088 143.624 110.328 143.96C110.584 144.296 110.928 144.56 111.36 144.752C111.808 144.944 112.312 145.04 112.872 145.04ZM128.094 155.264C126.718 155.264 125.558 155.04 124.614 154.592C123.67 154.128 122.95 153.528 122.454 152.792C121.974 152.056 121.718 151.272 121.686 150.44C121.67 150.296 121.71 150.184 121.806 150.104C121.918 150.008 122.046 149.96 122.19 149.96H124.422C124.598 149.96 124.742 150 124.854 150.08C124.982 150.144 125.078 150.264 125.142 150.44C125.302 150.92 125.526 151.312 125.814 151.616C126.118 151.92 126.462 152.144 126.846 152.288C127.246 152.432 127.662 152.504 128.094 152.504C128.67 152.504 129.19 152.392 129.654 152.168C130.134 151.928 130.518 151.576 130.806 151.112C131.094 150.648 131.238 150.08 131.238 149.408C131.238 148.816 131.102 148.304 130.83 147.872C130.558 147.44 130.182 147.104 129.702 146.864C129.238 146.608 128.702 146.48 128.094 146.48C127.646 146.48 127.278 146.536 126.99 146.648C126.702 146.76 126.454 146.888 126.246 147.032C126.054 147.176 125.878 147.304 125.718 147.416C125.574 147.528 125.406 147.584 125.214 147.584H123.006C122.862 147.584 122.734 147.536 122.622 147.44C122.526 147.328 122.478 147.2 122.478 147.056L123.318 138.848C123.334 138.64 123.406 138.48 123.534 138.368C123.662 138.256 123.814 138.2 123.99 138.2H133.014C133.174 138.2 133.31 138.256 133.422 138.368C133.534 138.48 133.59 138.616 133.59 138.776V140.384C133.59 140.544 133.534 140.68 133.422 140.792C133.31 140.904 133.174 140.96 133.014 140.96H126.078L125.694 144.872C125.982 144.68 126.366 144.496 126.846 144.32C127.326 144.144 127.99 144.056 128.838 144.056C129.606 144.056 130.334 144.184 131.022 144.44C131.726 144.68 132.35 145.04 132.894 145.52C133.438 145.984 133.862 146.552 134.166 147.224C134.486 147.88 134.646 148.632 134.646 149.48C134.646 150.648 134.374 151.664 133.83 152.528C133.286 153.392 132.526 154.064 131.55 154.544C130.574 155.024 129.422 155.264 128.094 155.264ZM138.273 155C137.937 155 137.769 154.84 137.769 154.52C137.769 154.424 137.801 154.336 137.865 154.256L149.697 138.656C149.809 138.512 149.921 138.4 150.033 138.32C150.145 138.24 150.305 138.2 150.513 138.2H151.785C152.121 138.2 152.289 138.36 152.289 138.68C152.289 138.776 152.257 138.864 152.193 138.944L140.361 154.544C140.249 154.688 140.137 154.8 140.025 154.88C139.929 154.96 139.769 155 139.545 155H138.273ZM149.817 155.144C148.745 155.144 147.897 154.848 147.273 154.256C146.649 153.664 146.305 152.888 146.241 151.928C146.225 151.512 146.217 151.152 146.217 150.848C146.217 150.544 146.225 150.168 146.241 149.72C146.305 148.76 146.633 147.984 147.225 147.392C147.833 146.8 148.697 146.504 149.817 146.504C150.953 146.504 151.817 146.8 152.409 147.392C153.017 147.984 153.345 148.76 153.393 149.72C153.425 150.168 153.441 150.544 153.441 150.848C153.441 151.152 153.425 151.512 153.393 151.928C153.345 152.888 153.001 153.664 152.361 154.256C151.737 154.848 150.889 155.144 149.817 155.144ZM149.817 153.272C150.169 153.272 150.441 153.2 150.633 153.056C150.841 152.912 150.993 152.728 151.089 152.504C151.185 152.28 151.233 152.056 151.233 151.832C151.265 151.432 151.281 151.096 151.281 150.824C151.281 150.536 151.265 150.208 151.233 149.84C151.217 149.456 151.105 149.112 150.897 148.808C150.689 148.504 150.329 148.352 149.817 148.352C149.321 148.352 148.969 148.504 148.761 148.808C148.553 149.112 148.433 149.456 148.401 149.84C148.385 150.208 148.377 150.536 148.377 150.824C148.377 151.096 148.385 151.432 148.401 151.832C148.433 152.056 148.489 152.28 148.569 152.504C148.665 152.728 148.809 152.912 149.001 153.056C149.209 153.2 149.481 153.272 149.817 153.272ZM140.241 146.648C139.169 146.648 138.321 146.368 137.697 145.808C137.073 145.248 136.729 144.488 136.665 143.528C136.649 143.112 136.641 142.752 136.641 142.448C136.641 142.128 136.649 141.744 136.665 141.296C136.729 140.336 137.057 139.56 137.649 138.968C138.257 138.376 139.121 138.08 140.241 138.08C141.377 138.08 142.241 138.376 142.833 138.968C143.441 139.56 143.769 140.336 143.817 141.296C143.849 141.744 143.865 142.128 143.865 142.448C143.865 142.752 143.849 143.112 143.817 143.528C143.769 144.488 143.425 145.248 142.785 145.808C142.161 146.368 141.313 146.648 140.241 146.648ZM140.241 144.872C140.593 144.872 140.865 144.8 141.057 144.656C141.265 144.512 141.417 144.328 141.513 144.104C141.609 143.88 141.657 143.648 141.657 143.408C141.689 143.008 141.705 142.672 141.705 142.4C141.705 142.112 141.689 141.784 141.657 141.416C141.641 141.048 141.529 140.712 141.321 140.408C141.113 140.104 140.753 139.952 140.241 139.952C139.745 139.952 139.393 140.104 139.185 140.408C138.977 140.712 138.865 141.048 138.849 141.416C138.833 141.784 138.825 142.112 138.825 142.4C138.825 142.672 138.833 143.008 138.849 143.408C138.865 143.648 138.913 143.88 138.993 144.104C139.089 144.328 139.233 144.512 139.425 144.656C139.633 144.8 139.905 144.872 140.241 144.872Z" fill="white"/>
</svg>
