<svg width="16" height="12" viewBox="0 0 16 12" fill="none" xmlns="http://www.w3.org/2000/svg">
<path d="M8.00018 3.81824C6.79653 3.81824 5.81836 4.79641 5.81836 6.00006C5.81836 7.20371 6.79653 8.18188 8.00018 8.18188C9.20383 8.18188 10.182 7.20371 10.182 6.00006C10.182 4.79641 9.20379 3.81824 8.00018 3.81824Z" fill="#969696"/>
<path d="M8.00002 0.545471C4.36364 0.545471 1.25819 2.80727 0 6.00002C1.25819 9.19275 4.36364 11.4546 8.00002 11.4546C11.64 11.4546 14.7418 9.19275 16 6.00002C14.7418 2.80727 11.64 0.545471 8.00002 0.545471ZM8.00002 9.63637C5.99274 9.63637 4.36364 8.00727 4.36364 5.99999C4.36364 3.99271 5.99274 2.36364 8.00002 2.36364C10.0073 2.36364 11.6364 3.99275 11.6364 6.00002C11.6364 8.0073 10.0073 9.63637 8.00002 9.63637Z" fill="#969696"/>
</svg>
