<svg width="24" height="24" viewBox="0 0 24 24" fill="none" xmlns="http://www.w3.org/2000/svg">
<path fill-rule="evenodd" clip-rule="evenodd" d="M12.3901 23.9204C6.0278 23.9204 0.870117 18.7627 0.870117 12.4004C0.870117 6.03806 6.0278 0.880371 12.3901 0.880371C18.7524 0.880371 23.9101 6.03806 23.9101 12.4004C23.9101 18.7627 18.7524 23.9204 12.3901 23.9204ZM12.3901 21.8259C17.5956 21.8259 21.8156 17.6059 21.8156 12.4004C21.8156 7.19484 17.5956 2.97492 12.3901 2.97492C7.18458 2.97492 2.96466 7.19484 2.96466 12.4004C2.96466 17.6059 7.18458 21.8259 12.3901 21.8259ZM12.3905 17.635C11.8119 17.635 11.3428 17.1661 11.3428 16.5877C11.3428 16.0093 11.8119 15.5404 12.3905 15.5404C12.9691 15.5404 13.438 16.0093 13.438 16.5877C13.438 17.1661 12.9691 17.635 12.3905 17.635ZM13.4374 14.4949H11.3428C11.3428 12.7129 11.997 11.9497 13.4927 11.2018C14.3533 10.7715 14.4846 10.6182 14.4846 9.78217C14.4846 8.79399 13.7277 8.21128 12.3901 8.21128C11.2333 8.21128 10.2956 9.14904 10.2956 10.3059H8.20103C8.20103 7.99225 10.0765 6.11674 12.3901 6.11674C14.7824 6.11674 16.5792 7.49979 16.5792 9.78217C16.5792 11.5643 15.9251 12.3274 14.4293 13.0753C13.5687 13.5056 13.4374 13.6588 13.4374 14.4949Z" fill="#C9C8C8"/>
</svg>
