<svg width="64" height="68" viewBox="0 0 64 68" fill="none" xmlns="http://www.w3.org/2000/svg">
<path d="M63.872 43.9367C62.4306 40.8968 61.0757 37.835 59.6632 34.7878C59.537 34.5489 59.471 34.2822 59.471 34.0114C59.471 33.7405 59.537 33.4739 59.6632 33.235C61.0685 30.2169 62.4162 27.177 63.836 24.1663C64.1026 23.5904 64.0594 23.3571 63.49 23.0436C60.6073 21.4471 57.7246 19.7777 54.8419 18.1885C54.5923 18.0618 54.3779 17.8741 54.218 17.6424C54.0582 17.4108 53.9581 17.1424 53.9266 16.8617C53.3068 13.5521 52.6438 10.257 52.0168 6.95465C51.9303 6.50997 51.7862 6.32772 51.2961 6.39333C47.9017 6.81614 44.5073 7.20251 41.1201 7.63262C40.9083 7.68323 40.6871 7.67689 40.4785 7.61422C40.2699 7.55156 40.0812 7.43475 39.931 7.27541C37.5023 4.94991 35.016 2.65357 32.5729 0.328071C32.1116 -0.116617 31.8522 -0.102037 31.4054 0.328071C28.9839 2.65357 26.5264 4.92075 24.076 7.20251C23.9594 7.36254 23.8039 7.48952 23.6247 7.57123C23.4455 7.65294 23.2485 7.68663 23.0527 7.66907C19.6367 7.21709 16.2134 6.83801 12.7902 6.40062C12.2209 6.32772 12.0695 6.49539 11.9758 7.04213C11.3416 10.4028 10.6498 13.7562 10.0084 17.1169C9.97837 17.3276 9.89671 17.5274 9.77083 17.698C9.64495 17.8686 9.47886 18.0047 9.2877 18.0937C6.40498 19.7194 3.52226 21.3888 0.56747 23.0072C0.0125462 23.3133 -0.15321 23.5466 0.149475 24.1881C1.59084 27.1989 2.90247 30.2461 4.315 33.2569C4.44242 33.4927 4.5092 33.7572 4.5092 34.026C4.5092 34.2947 4.44242 34.5592 4.315 34.795C2.92409 37.7839 1.59084 40.802 0.178303 43.7836C-0.13159 44.4543 0.019753 44.7094 0.61071 45.0375C3.49343 46.634 6.37615 48.2888 9.25887 49.8999C9.46299 49.9941 9.64014 50.1391 9.77374 50.3214C9.90735 50.5038 9.99304 50.7174 10.0228 50.9423C10.657 54.303 11.3633 57.6491 11.983 61.0098C12.0983 61.6294 12.3506 61.6659 12.8479 61.6076C16.2062 61.192 19.579 60.8057 22.9374 60.3756C23.1282 60.339 23.325 60.3512 23.51 60.4111C23.695 60.4709 23.8623 60.5764 23.9968 60.7182C26.4471 63.0437 28.9262 65.3327 31.3765 67.6582C31.845 68.1029 32.0972 68.1248 32.6161 67.6582C35.0232 65.3473 37.4879 63.0656 39.931 60.7692C40.0749 60.6128 40.2549 60.4949 40.4549 60.4262C40.6549 60.3575 40.8686 60.3401 41.0769 60.3756C44.4929 60.8057 47.9161 61.1993 51.2745 61.593C51.9952 61.8044 51.9447 61.2868 51.9952 60.915C52.6366 57.6127 53.2852 54.3103 53.9122 51.0079C53.9439 50.7677 54.0343 50.5392 54.1752 50.3432C54.3161 50.1472 54.5032 49.9898 54.7193 49.8853C57.6669 48.2523 60.5785 46.5683 63.5189 44.9281C64.0161 44.6657 64.117 44.4543 63.872 43.9367ZM23.4635 18.7717C24.7481 18.763 26.0064 19.1405 27.0787 19.8561C28.151 20.5717 28.989 21.5934 29.4866 22.7914C29.9842 23.9895 30.1188 25.3101 29.8734 26.5856C29.6281 27.8612 29.0138 29.0343 28.1084 29.9563C27.203 30.8782 26.0474 31.5075 24.7881 31.7642C23.5287 32.0209 22.2224 31.8936 21.0347 31.3983C19.847 30.903 18.8314 30.0621 18.1168 28.9823C17.4021 27.9024 17.0206 26.6322 17.0206 25.3327C17.0206 23.6001 17.698 21.9379 18.905 20.7088C20.1121 19.4796 21.7507 18.7832 23.4635 18.7717V18.7717ZM20.0402 47.8514C19.7808 48.1138 19.5718 48.4492 19.161 48.5002C19.0491 48.4909 18.9409 48.4553 18.845 48.3963C18.7491 48.3372 18.6682 48.2563 18.6087 48.16C18.5492 48.0637 18.5128 47.9547 18.5023 47.8416C18.4918 47.7285 18.5076 47.6146 18.5484 47.5088C18.7031 47.2656 18.8898 47.0449 19.1034 46.8527C27.6506 38.2165 36.2027 29.5779 44.7596 20.9368C45.1415 20.5504 45.5595 19.8506 46.2009 20.4411C46.8423 21.0316 46.1289 21.52 45.7325 21.8991C37.1612 30.5742 28.5971 39.2249 20.0402 47.8514ZM41.3724 49.9655C39.7801 49.7853 38.3101 49.0153 37.2457 47.8039C36.1813 46.5926 35.5977 45.0255 35.6076 43.4049C35.6174 41.7842 36.2199 40.2246 37.299 39.0265C38.3781 37.8285 39.8573 37.0768 41.4516 36.9164C43.1516 36.9578 44.7694 37.6649 45.9644 38.8886C47.1594 40.1124 47.8384 41.7574 47.8585 43.4774C47.8395 45.2048 47.1478 46.855 45.9334 48.0697C44.7191 49.2844 43.0802 49.9656 41.3724 49.9655V49.9655Z" fill="#ecd031"></path>
</svg>