<svg width="874" height="298" viewBox="0 0 874 298" fill="none" xmlns="http://www.w3.org/2000/svg">
<path d="M295.84 257C295.312 257 294.88 256.832 294.544 256.496C294.208 256.112 294.04 255.68 294.04 255.2V208.4C294.04 207.872 294.208 207.44 294.544 207.104C294.88 206.768 295.312 206.6 295.84 206.6H317.8C321.928 206.6 325.312 207.176 327.952 208.328C330.592 209.48 332.536 211.136 333.784 213.296C335.08 215.408 335.728 217.928 335.728 220.856C335.728 222.584 335.392 224.12 334.72 225.464C334.096 226.76 333.304 227.84 332.344 228.704C331.432 229.568 330.568 230.192 329.752 230.576C331.576 231.44 333.184 232.856 334.576 234.824C336.016 236.792 336.736 239.096 336.736 241.736C336.736 244.904 336.016 247.64 334.576 249.944C333.184 252.2 331.12 253.952 328.384 255.2C325.696 256.4 322.384 257 318.448 257H295.84ZM307 247.64H317.008C319.072 247.64 320.632 247.04 321.688 245.84C322.744 244.64 323.272 243.272 323.272 241.736C323.272 240.056 322.72 238.64 321.616 237.488C320.56 236.336 319.024 235.76 317.008 235.76H307V247.64ZM307 226.616H316.36C318.328 226.616 319.792 226.112 320.752 225.104C321.76 224.048 322.264 222.752 322.264 221.216C322.264 219.68 321.76 218.432 320.752 217.472C319.792 216.464 318.328 215.96 316.36 215.96H307V226.616ZM346.535 257C346.007 257 345.575 256.832 345.239 256.496C344.903 256.112 344.735 255.68 344.735 255.2V208.4C344.735 207.872 344.903 207.44 345.239 207.104C345.575 206.768 346.007 206.6 346.535 206.6H380.159C380.687 206.6 381.119 206.768 381.455 207.104C381.791 207.44 381.959 207.872 381.959 208.4V215.168C381.959 215.696 381.791 216.128 381.455 216.464C381.119 216.8 380.687 216.968 380.159 216.968H357.191V226.688H378.575C379.103 226.688 379.535 226.88 379.871 227.264C380.207 227.6 380.375 228.032 380.375 228.56V234.824C380.375 235.304 380.207 235.736 379.871 236.12C379.535 236.456 379.103 236.624 378.575 236.624H357.191V246.632H380.735C381.263 246.632 381.695 246.8 382.031 247.136C382.367 247.472 382.535 247.904 382.535 248.432V255.2C382.535 255.68 382.367 256.112 382.031 256.496C381.695 256.832 381.263 257 380.735 257H346.535ZM409.512 257.72C404.712 257.72 400.728 257.048 397.56 255.704C394.392 254.312 391.992 252.512 390.36 250.304C388.728 248.096 387.864 245.744 387.768 243.248C387.768 242.864 387.912 242.528 388.2 242.24C388.536 241.904 388.92 241.736 389.352 241.736H398.424C399.096 241.736 399.6 241.856 399.936 242.096C400.32 242.336 400.656 242.648 400.944 243.032C401.328 243.752 401.856 244.448 402.528 245.12C403.248 245.792 404.184 246.344 405.336 246.776C406.488 247.16 407.88 247.352 409.512 247.352C412.296 247.352 414.384 246.92 415.776 246.056C417.216 245.192 417.936 244.016 417.936 242.528C417.936 241.424 417.552 240.536 416.784 239.864C416.016 239.192 414.768 238.592 413.04 238.064C411.36 237.488 409.104 236.912 406.272 236.336C402.624 235.568 399.504 234.584 396.912 233.384C394.368 232.136 392.424 230.528 391.08 228.56C389.736 226.544 389.064 224.048 389.064 221.072C389.064 218.144 389.88 215.528 391.512 213.224C393.192 210.92 395.52 209.12 398.496 207.824C401.472 206.528 405 205.88 409.08 205.88C412.392 205.88 415.296 206.312 417.792 207.176C420.336 208.04 422.472 209.192 424.2 210.632C425.928 212.072 427.224 213.608 428.088 215.24C429 216.824 429.48 218.384 429.528 219.92C429.528 220.304 429.384 220.664 429.096 221C428.856 221.288 428.496 221.432 428.016 221.432H418.512C417.984 221.432 417.528 221.336 417.144 221.144C416.76 220.952 416.424 220.64 416.136 220.208C415.848 219.152 415.08 218.24 413.832 217.472C412.632 216.656 411.048 216.248 409.08 216.248C406.968 216.248 405.312 216.632 404.112 217.4C402.96 218.12 402.384 219.248 402.384 220.784C402.384 221.744 402.696 222.584 403.32 223.304C403.992 224.024 405.072 224.648 406.56 225.176C408.096 225.704 410.184 226.256 412.824 226.832C417.192 227.648 420.72 228.68 423.408 229.928C426.096 231.128 428.064 232.712 429.312 234.68C430.608 236.6 431.256 239.024 431.256 241.952C431.256 245.216 430.32 248.024 428.448 250.376C426.576 252.728 424.008 254.552 420.744 255.848C417.528 257.096 413.784 257.72 409.512 257.72ZM450.858 257C450.33 257 449.898 256.832 449.562 256.496C449.226 256.112 449.058 255.68 449.058 255.2V217.904H436.242C435.714 217.904 435.282 217.736 434.946 217.4C434.61 217.016 434.442 216.584 434.442 216.104V208.4C434.442 207.872 434.61 207.44 434.946 207.104C435.282 206.768 435.714 206.6 436.242 206.6H474.978C475.506 206.6 475.938 206.768 476.274 207.104C476.61 207.44 476.778 207.872 476.778 208.4V216.104C476.778 216.584 476.61 217.016 476.274 217.4C475.938 217.736 475.506 217.904 474.978 217.904H462.162V255.2C462.162 255.68 461.994 256.112 461.658 256.496C461.322 256.832 460.89 257 460.362 257H450.858Z" fill="#ECD031"/>
<path d="M500.449 257C499.921 257 499.489 256.832 499.153 256.496C498.817 256.112 498.649 255.68 498.649 255.2V208.4C498.649 207.872 498.817 207.44 499.153 207.104C499.489 206.768 499.921 206.6 500.449 206.6H533.569C534.097 206.6 534.529 206.768 534.865 207.104C535.201 207.44 535.369 207.872 535.369 208.4V215.672C535.369 216.2 535.201 216.632 534.865 216.968C534.529 217.304 534.097 217.472 533.569 217.472H511.321V228.056H532.129C532.657 228.056 533.089 228.248 533.425 228.632C533.761 228.968 533.929 229.4 533.929 229.928V237.128C533.929 237.608 533.761 238.04 533.425 238.424C533.089 238.76 532.657 238.928 532.129 238.928H511.321V255.2C511.321 255.68 511.153 256.112 510.817 256.496C510.481 256.832 510.049 257 509.521 257H500.449ZM563.398 257.72C558.982 257.72 555.142 257 551.878 255.56C548.614 254.12 546.07 251.96 544.246 249.08C542.422 246.152 541.414 242.504 541.222 238.136C541.174 236.072 541.15 234.008 541.15 231.944C541.15 229.832 541.174 227.744 541.222 225.68C541.414 221.36 542.422 217.736 544.246 214.808C546.118 211.832 548.686 209.6 551.95 208.112C555.262 206.624 559.078 205.88 563.398 205.88C567.766 205.88 571.582 206.624 574.846 208.112C578.11 209.6 580.678 211.832 582.55 214.808C584.422 217.736 585.43 221.36 585.574 225.68C585.67 227.744 585.718 229.832 585.718 231.944C585.718 234.008 585.67 236.072 585.574 238.136C585.43 242.504 584.422 246.152 582.55 249.08C580.726 251.96 578.182 254.12 574.918 255.56C571.654 257 567.814 257.72 563.398 257.72ZM563.398 247.352C565.942 247.352 568.006 246.584 569.59 245.048C571.222 243.512 572.086 241.064 572.182 237.704C572.278 235.592 572.326 233.6 572.326 231.728C572.326 229.856 572.278 227.912 572.182 225.896C572.086 223.64 571.654 221.816 570.886 220.424C570.166 218.984 569.158 217.928 567.862 217.256C566.566 216.584 565.078 216.248 563.398 216.248C561.766 216.248 560.302 216.584 559.006 217.256C557.71 217.928 556.678 218.984 555.91 220.424C555.142 221.816 554.71 223.64 554.614 225.896C554.566 227.912 554.542 229.856 554.542 231.728C554.542 233.6 554.566 235.592 554.614 237.704C554.758 241.064 555.622 243.512 557.206 245.048C558.838 246.584 560.902 247.352 563.398 247.352ZM595.863 257C595.335 257 594.903 256.832 594.567 256.496C594.231 256.112 594.063 255.68 594.063 255.2V208.4C594.063 207.872 594.231 207.44 594.567 207.104C594.903 206.768 595.335 206.6 595.863 206.6H615.447C621.687 206.6 626.583 208.04 630.135 210.92C633.687 213.752 635.463 217.784 635.463 223.016C635.463 226.424 634.647 229.304 633.015 231.656C631.383 234.008 629.223 235.784 626.535 236.984L636.399 254.696C636.543 254.984 636.615 255.248 636.615 255.488C636.615 255.872 636.447 256.232 636.111 256.568C635.823 256.856 635.487 257 635.103 257H625.527C624.615 257 623.943 256.784 623.511 256.352C623.079 255.872 622.767 255.44 622.575 255.056L614.367 239.216H607.023V255.2C607.023 255.68 606.831 256.112 606.447 256.496C606.111 256.832 605.679 257 605.151 257H595.863ZM607.023 228.992H615.303C617.559 228.992 619.239 228.44 620.343 227.336C621.495 226.232 622.071 224.744 622.071 222.872C622.071 221 621.519 219.488 620.415 218.336C619.359 217.184 617.655 216.608 615.303 216.608H607.023V228.992ZM660.973 257C660.445 257 660.013 256.832 659.677 256.496C659.341 256.16 659.173 255.728 659.173 255.2V208.4C659.173 207.872 659.341 207.44 659.677 207.104C660.013 206.768 660.445 206.6 660.973 206.6H670.261C670.789 206.6 671.221 206.768 671.557 207.104C671.941 207.44 672.133 207.872 672.133 208.4V225.752H689.845V208.4C689.845 207.872 690.013 207.44 690.349 207.104C690.685 206.768 691.117 206.6 691.645 206.6H700.933C701.461 206.6 701.893 206.768 702.229 207.104C702.565 207.44 702.733 207.872 702.733 208.4V255.2C702.733 255.68 702.565 256.112 702.229 256.496C701.893 256.832 701.461 257 700.933 257H691.645C691.117 257 690.685 256.832 690.349 256.496C690.013 256.112 689.845 255.68 689.845 255.2V237.272H672.133V255.2C672.133 255.68 671.941 256.112 671.557 256.496C671.221 256.832 670.789 257 670.261 257H660.973ZM733.413 257.72C728.997 257.72 725.157 257 721.893 255.56C718.629 254.12 716.085 251.96 714.261 249.08C712.437 246.152 711.429 242.504 711.237 238.136C711.189 236.072 711.165 234.008 711.165 231.944C711.165 229.832 711.189 227.744 711.237 225.68C711.429 221.36 712.437 217.736 714.261 214.808C716.133 211.832 718.701 209.6 721.965 208.112C725.277 206.624 729.093 205.88 733.413 205.88C737.781 205.88 741.597 206.624 744.861 208.112C748.125 209.6 750.693 211.832 752.565 214.808C754.437 217.736 755.445 221.36 755.589 225.68C755.685 227.744 755.733 229.832 755.733 231.944C755.733 234.008 755.685 236.072 755.589 238.136C755.445 242.504 754.437 246.152 752.565 249.08C750.741 251.96 748.197 254.12 744.933 255.56C741.669 257 737.829 257.72 733.413 257.72ZM733.413 247.352C735.957 247.352 738.021 246.584 739.605 245.048C741.237 243.512 742.101 241.064 742.197 237.704C742.293 235.592 742.341 233.6 742.341 231.728C742.341 229.856 742.293 227.912 742.197 225.896C742.101 223.64 741.669 221.816 740.901 220.424C740.181 218.984 739.173 217.928 737.877 217.256C736.581 216.584 735.093 216.248 733.413 216.248C731.781 216.248 730.317 216.584 729.021 217.256C727.725 217.928 726.693 218.984 725.925 220.424C725.157 221.816 724.725 223.64 724.629 225.896C724.581 227.912 724.557 229.856 724.557 231.728C724.557 233.6 724.581 235.592 724.629 237.704C724.773 241.064 725.637 243.512 727.221 245.048C728.853 246.584 730.917 247.352 733.413 247.352ZM765.879 257C765.399 257 764.967 256.832 764.583 256.496C764.247 256.112 764.079 255.68 764.079 255.2V208.4C764.079 207.872 764.247 207.44 764.583 207.104C764.967 206.768 765.399 206.6 765.879 206.6H773.655C774.471 206.6 775.071 206.816 775.455 207.248C775.839 207.632 776.079 207.944 776.175 208.184L788.847 230.864L801.519 208.184C801.663 207.944 801.903 207.632 802.239 207.248C802.623 206.816 803.223 206.6 804.039 206.6H811.743C812.271 206.6 812.703 206.768 813.039 207.104C813.423 207.44 813.615 207.872 813.615 208.4V255.2C813.615 255.68 813.423 256.112 813.039 256.496C812.703 256.832 812.271 257 811.743 257H803.175C802.647 257 802.191 256.832 801.807 256.496C801.471 256.112 801.303 255.68 801.303 255.2V228.2L793.239 243.248C792.999 243.68 792.687 244.064 792.303 244.4C791.919 244.736 791.391 244.904 790.719 244.904H786.975C786.303 244.904 785.775 244.736 785.391 244.4C785.007 244.064 784.695 243.68 784.455 243.248L776.319 228.2V255.2C776.319 255.68 776.151 256.112 775.815 256.496C775.479 256.832 775.047 257 774.519 257H765.879ZM825.504 257C824.976 257 824.544 256.832 824.208 256.496C823.872 256.112 823.704 255.68 823.704 255.2V208.4C823.704 207.872 823.872 207.44 824.208 207.104C824.544 206.768 824.976 206.6 825.504 206.6H859.128C859.656 206.6 860.088 206.768 860.424 207.104C860.76 207.44 860.928 207.872 860.928 208.4V215.168C860.928 215.696 860.76 216.128 860.424 216.464C860.088 216.8 859.656 216.968 859.128 216.968H836.16V226.688H857.544C858.072 226.688 858.504 226.88 858.84 227.264C859.176 227.6 859.344 228.032 859.344 228.56V234.824C859.344 235.304 859.176 235.736 858.84 236.12C858.504 236.456 858.072 236.624 857.544 236.624H836.16V246.632H859.704C860.232 246.632 860.664 246.8 861 247.136C861.336 247.472 861.504 247.904 861.504 248.432V255.2C861.504 255.68 861.336 256.112 861 256.496C860.664 256.832 860.232 257 859.704 257H825.504Z" fill="white"/>
<path d="M306.052 0L198.934 44.6326L110.306 87.99L0 241.016H26.7796L110.009 125.384L234.002 275.447L309.878 60.5729L391.492 166.416V124.971L306.052 0Z" fill="#ECD031"/>
<path d="M520.505 139.636L735.801 172.154L391.492 166.416V124.971L520.505 139.636Z" fill="#ECD031"/>
<path d="M295.851 147.925H323.905V175.98H295.851V147.925Z" fill="#ECD031"/>
<path d="M358.336 147.925H330.281V175.98H358.336V147.925Z" fill="#ECD031"/>
<path d="M76.5132 182.356H104.568V210.411H76.5132V182.356Z" fill="#ECD031"/>
<path d="M138.999 182.356H110.944V210.411H138.999V182.356Z" fill="#ECD031"/>
<path d="M110.306 87.9901V124.971L26.7796 241.016H0L110.306 87.9901Z" fill="#E1C83C"/>
<path d="M198.934 44.6326L306.052 0L214.874 139.636L110.306 87.99L198.934 44.6326Z" fill="#D2BE4B"/>
<path d="M520.505 139.636L735.801 172.154L391.492 166.416V124.971L520.505 139.636Z" fill="#E1C83C"/>
</svg>
