<svg width="1440" height="582" viewBox="0 0 1440 582" fill="none" xmlns="http://www.w3.org/2000/svg">
<mask id="mask0" style="mask-type:alpha" maskUnits="userSpaceOnUse" x="0" y="0" width="1440" height="582">
<rect width="1440" height="582" fill="#161616"/>
</mask>
<g mask="url(#mask0)">
<g opacity="0.4">
<path d="M-81.0726 593.821L-82 593.45C-21.9056 447.109 108.299 329.703 274.857 271.277C409.698 223.981 547.136 224.352 633.383 272.019C759.135 341.573 821.27 279.438 887.3 213.409C942.386 158.322 999.327 101.381 1097.63 112.324C1145.48 117.703 1191.85 112.51 1235.07 97.3006C1269.57 85.0592 1302.4 66.3261 1332.44 41.4722C1383.63 -0.816383 1409.42 -46.629 1409.6 -47L1410.34 -46.6291C1410.16 -46.2581 1384.19 -0.259949 1333 42.0287C1302.95 66.8825 1270.12 85.8011 1235.44 98.0425C1192.04 113.437 1145.67 118.445 1097.63 113.252C999.884 102.494 943.128 159.25 888.042 214.151C842.414 259.778 798.642 303.55 734.467 303.55C705.533 303.55 672.333 294.647 633.012 272.761C546.95 225.094 409.883 224.723 275.228 272.019C108.855 330.63 -21.1637 447.851 -81.0726 593.821Z" fill="#C4C4C4"/>
<g opacity="0.9643">
<g opacity="0.9643">
<path opacity="0.9643" d="M-54.1785 597.531L-55.1059 597.16C-24.8732 522.97 22.9797 456.94 87.1545 401.112C144.281 351.404 214.02 310.785 288.582 283.89C422.496 235.667 559.748 234.739 646.922 281.479C771.933 348.993 832.584 286.487 896.759 220.272C949.805 165.742 1004.52 109.172 1099.48 117.518C1146.04 121.599 1191.48 115.849 1234.51 100.454C1268.82 88.2128 1301.65 69.6652 1332.07 45.5533C1383.82 4.37752 1410.9 -39.3949 1411.27 -39.7659L1412.01 -39.2094C1411.83 -38.8385 1384.56 5.11943 1332.63 46.4807C1302.21 70.5926 1269.2 89.1402 1234.88 101.567C1191.85 116.962 1146.41 122.711 1099.48 118.631C1004.89 110.285 950.362 166.669 897.501 221.014C852.616 267.198 809.585 311.526 745.41 311.526C717.218 311.526 684.945 302.994 646.737 282.407C559.748 235.852 422.867 236.779 289.138 285.003C214.577 311.897 145.023 352.331 87.8964 402.039C23.7216 457.496 -24.1313 523.34 -54.1785 597.531Z" fill="#C4C4C4"/>
</g>
</g>
<g opacity="0.9286">
<g opacity="0.9286">
<path opacity="0.9286" d="M-27.2844 601.24L-28.2118 600.87C0.53705 529.09 46.5352 465.286 108.299 410.942C163.571 362.532 230.899 322.655 303.42 295.946C436.036 246.981 572.732 244.94 660.277 290.568C784.731 355.484 843.713 292.793 906.033 226.578C956.853 172.605 1009.53 116.591 1101.34 122.526C1146.6 125.308 1191.3 119.002 1233.77 103.422C1267.9 90.9949 1300.73 72.8182 1331.52 49.4482C1383.82 9.57078 1412.38 -32.3469 1412.57 -32.9033L1413.31 -32.3469C1412.94 -31.9759 1384.56 10.1272 1332.07 50.1901C1301.28 73.7456 1268.27 91.9223 1234.14 104.349C1191.48 119.929 1146.78 126.235 1101.34 123.453C1010.09 117.704 957.595 173.346 906.775 227.32C862.817 274.06 820.528 318.945 755.797 318.945C728.346 318.945 697.001 310.784 659.72 291.495C572.361 245.868 436.036 247.908 303.605 296.874C231.27 323.582 163.942 363.274 108.855 411.684C47.2771 465.843 1.46443 529.647 -27.2844 601.24Z" fill="#C4C4C4"/>
</g>
</g>
<g opacity="0.8929">
<g opacity="0.8929">
<path opacity="0.8929" d="M-0.390306 604.764L-1.31769 604.393C26.1328 535.396 70.0907 473.633 129.443 420.957C182.489 373.846 247.592 334.896 317.702 308.188C449.019 258.294 585.344 255.141 673.631 299.656C797.529 362.161 854.841 299.47 915.307 232.884C962.603 180.951 1011.57 127.348 1095.4 127.348C1098 127.348 1100.41 127.348 1103.01 127.534C1146.97 129.017 1190.74 121.969 1233.03 106.575C1266.78 94.1478 1299.8 76.3421 1330.96 53.5285C1384.01 14.7639 1413.87 -25.299 1414.05 -25.6699L1414.79 -25.1135C1414.42 -24.7425 1384.56 15.5058 1331.52 54.2704C1300.36 77.084 1267.34 94.8897 1233.4 107.317C1191.11 122.897 1147.15 129.945 1103.01 128.461C1014.72 125.122 964.643 180.209 916.049 233.626C872.833 280.923 831.471 326.55 766.555 326.55C740.031 326.55 709.428 318.945 673.26 300.583C585.159 256.069 449.204 259.407 318.073 309.115C247.963 335.638 183.046 374.588 130 421.699C70.8326 474.374 26.8747 535.953 -0.390306 604.764Z" fill="#C4C4C4"/>
</g>
</g>
<g opacity="0.8571">
<g opacity="0.8571">
<path opacity="0.8571" d="M26.5038 608.474L25.5764 608.103C51.5431 541.702 93.6463 482.164 150.402 431.158C201.408 385.346 264.099 347.323 331.983 320.8C395.416 296.132 461.817 281.85 524.508 279.81C587.384 277.584 643.584 287.785 687.171 309.115C810.513 369.395 865.97 306.333 924.766 239.561C971.135 187.072 1018.99 132.727 1103.01 132.727C1103.75 132.727 1104.31 132.727 1105.05 132.727C1105.98 132.727 1106.72 132.727 1107.65 132.727C1149.56 132.727 1191.67 124.937 1232.66 109.728C1266.23 97.301 1299.24 79.6807 1330.77 57.609C1384.38 20.1428 1415.54 -18.0653 1415.91 -18.4363L1416.65 -17.8799C1416.28 -17.5089 1385.12 20.8847 1331.33 58.3509C1299.8 80.4226 1266.6 98.0429 1233.03 110.47C1190.92 126.05 1147.89 133.84 1105.05 133.469C1104.31 133.469 1103.75 133.469 1103.01 133.469C1019.36 133.469 971.691 187.628 925.508 239.932C883.219 287.971 842.6 334.154 777.312 334.154C751.531 334.154 721.855 326.921 686.8 309.857C643.398 288.713 587.199 278.511 524.508 280.737C462.002 282.777 395.602 297.059 332.354 321.727C264.655 348.065 201.964 386.273 151.144 431.9C94.3881 482.721 52.285 542.259 26.5038 608.474Z" fill="#C4C4C4"/>
</g>
</g>
<g opacity="0.8214">
<g opacity="0.8214">
<path opacity="0.8214" d="M53.3978 612.183L52.4704 611.812C76.9533 548.009 117.016 490.696 171.546 441.174C220.327 396.845 280.792 359.565 346.265 333.227C408.956 308.188 474.986 293.35 537.491 290.753C600.182 287.971 656.567 297.616 700.525 318.203C823.31 376.072 877.098 312.825 934.04 245.868C978.554 193.378 1024.74 139.219 1106.9 137.735C1200.75 135.695 1280.32 95.2607 1330.4 61.6895C1384.75 25.3361 1417.21 -11.0172 1417.58 -11.3882L1418.32 -10.8317C1417.95 -10.4608 1385.49 25.8926 1330.96 62.4314C1280.7 96.0026 1201.13 136.622 1107.09 138.662C1025.29 140.146 979.296 194.305 934.967 246.424C877.84 313.752 823.681 377.185 700.339 318.945C656.567 298.357 600.368 288.898 537.677 291.495C475.357 294.277 409.327 308.93 346.821 333.969C281.534 360.121 221.254 397.402 172.474 441.731C117.758 491.253 77.8807 548.565 53.3978 612.183Z" fill="#C4C4C4"/>
</g>
</g>
<g opacity="0.7857">
<g opacity="0.7857">
<path opacity="0.7857" d="M80.2919 615.708L79.3646 615.337C102.549 554.315 140.572 499.043 192.691 451.19C239.431 408.16 297.299 371.806 360.547 345.84C422.496 320.244 488.155 305.035 550.475 301.696C613.166 298.358 669.736 307.26 713.879 327.292C836.108 382.935 888.227 319.316 943.314 252.174C985.788 200.426 1029.75 146.823 1108.76 142.743C1199.83 138.106 1279.21 98.2286 1330.03 65.7702C1384.93 30.5297 1418.88 -3.96889 1419.06 -4.33984L1419.8 -3.78342C1419.43 -3.41247 1385.49 31.0861 1330.59 66.5121C1279.77 99.156 1200.2 138.848 1108.94 143.67C1030.49 147.751 986.53 201.168 944.241 252.916C888.969 320.429 836.665 384.233 713.694 328.405C669.55 308.373 613.166 299.47 550.66 302.809C488.34 306.148 422.867 321.357 360.918 346.767C297.856 372.734 239.987 409.087 193.433 451.932C141.499 499.785 103.291 554.872 80.2919 615.708Z" fill="#C4C4C4"/>
</g>
</g>
<g opacity="0.75">
<g opacity="0.75">
<path opacity="0.75" d="M107.186 619.417L106.259 619.046C127.959 560.621 164.127 507.575 213.835 461.391C258.349 419.844 313.992 384.233 374.643 358.637C435.85 332.67 501.138 316.905 563.458 313.01C625.963 309.115 682.719 317.276 727.419 336.751C849.091 389.983 899.356 326.179 952.587 258.665C993.021 207.474 1034.75 154.428 1110.61 147.936C1198.71 140.517 1278.28 101.381 1329.66 70.0358C1385.3 35.9082 1420.36 3.26433 1420.73 3.07886L1421.29 3.82077C1420.92 4.19172 1385.67 36.8356 1330.03 70.9632C1278.65 102.494 1198.9 141.444 1110.61 149.049C1035.31 155.54 993.578 208.401 953.329 259.407C899.912 327.292 849.277 391.281 727.048 337.678C682.534 318.203 625.963 310.042 563.643 313.937C501.509 317.832 436.221 333.598 375.199 359.564C314.549 385.16 259.091 420.772 214.577 462.133C165.055 508.131 128.887 561.177 107.186 619.417Z" fill="#C4C4C4"/>
</g>
</g>
<g opacity="0.7143">
<g opacity="0.7143">
<path opacity="0.7143" d="M134.08 623.126L133.153 622.755C153.555 566.927 187.868 515.921 234.979 471.407C278.01 430.787 329.758 397.031 388.925 371.249C449.39 344.912 514.121 328.59 576.441 323.953C638.947 319.316 695.888 326.921 740.959 345.839C862.075 396.66 910.67 332.67 961.861 264.786C1000.25 214.151 1039.95 161.661 1112.47 152.758C1197.6 142.557 1277.36 104.163 1329.29 73.9308C1385.49 41.1014 1422.03 10.3124 1422.4 9.94141L1422.96 10.6833C1422.58 11.0543 1386.05 41.8433 1329.85 74.6727C1277.91 105.091 1198.16 143.484 1112.65 153.686C1040.5 162.403 1000.81 214.707 962.603 265.342C911.041 333.412 862.26 397.773 740.588 346.581C695.703 327.662 638.947 320.243 576.627 324.695C514.492 329.146 449.761 345.468 389.481 371.806C330.499 397.587 278.752 431.158 235.907 471.778C188.61 516.663 154.482 567.298 134.08 623.126Z" fill="#C4C4C4"/>
</g>
</g>
<g opacity="0.6786">
<g opacity="0.6786">
<path opacity="0.6786" d="M160.974 626.836L160.047 626.465C179.151 573.233 211.424 524.453 256.124 481.608C296.928 442.287 346.451 409.643 403.021 384.047C462.559 357.339 526.919 340.46 589.054 335.267C651.559 330.074 708.501 336.936 753.942 355.298C874.502 403.708 921.242 339.347 970.579 271.278C1006.93 221.199 1044.58 169.266 1113.95 158.137C1196.3 144.968 1276.06 107.502 1328.36 78.1966C1385.12 46.4802 1423.14 17.5458 1423.51 17.3604L1424.07 18.1023C1423.7 18.4732 1385.86 47.4075 1328.92 79.124C1276.43 108.429 1196.49 146.081 1114.14 159.064C1045.14 170.007 1007.67 221.755 971.321 271.834C921.613 340.275 874.873 405.006 753.571 356.226C708.315 338.049 651.374 331.186 589.054 336.38C526.919 341.573 462.744 358.451 403.206 385.16C346.636 410.57 297.299 443.214 256.494 482.535C212.166 525.009 180.078 573.604 160.974 626.836Z" fill="#C4C4C4"/>
</g>
</g>
<g opacity="0.6429">
<g opacity="0.6429">
<path opacity="0.6429" d="M187.868 630.36L186.941 630.175C221.068 532.799 302.864 450.077 417.303 397.031C536.935 341.573 674.558 328.775 767.482 364.572C887.671 410.571 932.37 346.025 979.852 277.398C1014.17 227.876 1049.78 176.499 1115.99 163.145C1267.9 132.727 1423.7 25.5215 1425.37 24.4087L1425.92 25.1506C1424.44 26.2635 1268.45 133.654 1116.18 164.072C1050.33 177.241 1014.91 228.433 980.594 277.955C932.927 346.767 887.856 411.683 767.111 365.314C674.373 329.703 537.12 342.501 417.673 397.773C303.42 450.633 221.81 533.356 187.868 630.36Z" fill="#C4C4C4"/>
</g>
</g>
<g opacity="0.6071">
<g opacity="0.6071">
<path opacity="0.6071" d="M214.762 634.069L213.835 633.698C245.366 541.331 322.71 461.762 431.399 409.828C549.547 353.444 686.614 339.162 780.836 373.661C900.469 417.433 943.314 352.331 988.755 283.519C1021.21 234.553 1054.6 183.733 1117.66 168.338C1264 132.541 1425.18 32.5695 1426.67 31.6421L1427.22 32.384C1425.55 33.3114 1264.37 133.283 1117.85 169.266C1055.16 184.66 1021.77 235.11 989.497 284.075C943.87 353.258 900.654 418.546 780.465 374.588C686.429 340.275 549.733 354.557 431.77 410.756C323.451 462.689 246.293 541.888 214.762 634.069Z" fill="#C4C4C4"/>
</g>
</g>
<g opacity="0.5714">
<g opacity="0.5714">
<path opacity="0.5714" d="M241.656 637.78L240.729 637.409C269.849 549.864 342.555 473.818 445.68 422.998C561.974 365.686 698.856 349.92 794.19 382.935C913.266 424.296 954.257 358.823 997.658 289.64C1028.08 241.231 1059.42 190.967 1119.52 173.532C1260.29 132.356 1426.66 39.8036 1428.33 38.8762L1428.71 39.6181C1427.22 40.5455 1260.85 133.098 1119.89 174.274C1060.16 191.709 1028.82 241.787 998.585 290.011C954.999 359.565 913.823 425.224 794.005 383.677C698.856 350.662 562.345 366.428 446.237 423.74C343.297 474.56 270.591 550.42 241.656 637.78Z" fill="#C4C4C4"/>
</g>
</g>
<g opacity="0.5357">
<g opacity="0.5357">
<path opacity="0.5357" d="M268.55 641.303L267.623 640.932C294.332 558.395 362.587 485.503 459.962 435.98C574.586 377.555 710.912 360.492 807.545 392.023C926.064 430.973 965.2 365.129 1006.56 295.389C1034.94 247.351 1064.43 197.829 1121.37 178.168C1256.58 131.614 1428.33 46.4801 1430 45.5527L1430.37 46.2946C1428.71 47.222 1256.95 132.356 1121.74 178.91C1065.17 198.385 1035.87 247.907 1007.49 295.575C965.942 365.5 926.806 431.715 807.359 392.579C710.912 361.048 574.772 378.112 460.518 436.351C363.329 486.43 295.074 558.951 268.55 641.303Z" fill="#C4C4C4"/>
</g>
</g>
<g opacity="0.5">
<g opacity="0.5">
<path opacity="0.5" d="M295.444 645.013L294.517 644.827C309.17 598.087 337.362 554.871 378.352 516.663C415.448 481.979 463.115 451.932 515.976 429.675C619.657 386.273 736.507 375.33 820.899 401.482C939.048 438.021 976.143 371.806 1015.28 301.696C1041.8 254.214 1069.25 205.248 1123.04 183.733C1252.69 131.799 1429.63 54.0849 1431.3 53.1575L1431.67 54.0849C1429.82 54.8268 1253.06 132.541 1123.23 184.66C1069.62 206.175 1042.36 254.956 1015.83 302.252C976.514 372.733 939.233 439.134 820.343 402.595C735.951 376.628 619.472 387.386 515.976 430.787C463.115 453.045 415.633 482.906 378.538 517.59C338.104 555.428 310.097 598.273 295.444 645.013Z" fill="#C4C4C4"/>
</g>
</g>
<g opacity="0.4643">
<g opacity="0.4643">
<path opacity="0.4643" d="M322.339 648.722L321.411 648.537C334.951 603.651 361.66 562.105 401.166 525.195C436.963 491.624 483.147 462.504 534.524 440.617C583.86 419.844 637.463 405.933 689.582 400.555C742.443 395.176 792.521 398.7 834.253 410.756C951.846 444.698 986.901 378.112 1024 307.631C1048.66 260.705 1074.07 212.296 1124.9 188.741C1248.98 131.243 1431.12 60.9473 1432.97 60.3909L1433.34 61.3183C1431.49 62.0602 1249.35 132.356 1125.27 189.668C1074.63 213.038 1049.22 261.447 1024.74 308.187C987.457 379.039 952.402 445.996 834.068 411.869C792.336 399.813 742.443 396.289 689.582 401.667C637.649 407.046 584.046 420.772 534.709 441.73C483.332 463.431 437.334 492.736 401.537 526.122C362.587 562.476 335.878 604.022 322.339 648.722Z" fill="#C4C4C4"/>
</g>
</g>
<g opacity="0.4286">
<g opacity="0.4286">
<path opacity="0.4286" d="M349.233 652.246L348.305 652.061C360.547 609.03 386.142 569.153 423.98 533.541C458.478 501.083 502.993 472.705 553.071 451.375C601.11 430.973 653.599 417.062 704.605 411.498C756.539 405.748 806.061 408.716 847.608 419.844C901.025 434.311 940.16 429.675 970.764 405.377C998.029 383.676 1014.72 349.549 1032.53 313.381C1055.34 267.012 1078.9 219.159 1126.75 193.749C1245.27 130.872 1432.79 67.9956 1434.64 67.4392L1435.01 68.3666C1433.16 68.923 1245.83 131.8 1127.31 194.676C1079.64 219.901 1056.27 267.754 1033.46 313.937C998.4 385.346 965.385 452.674 847.422 420.957C805.876 409.829 756.539 406.861 704.791 412.611C653.785 418.175 601.481 431.9 553.442 452.488C503.549 473.818 458.849 502.196 424.536 534.469C386.884 569.709 361.66 609.587 349.233 652.246Z" fill="#C4C4C4"/>
</g>
</g>
<g opacity="0.3929">
<g opacity="0.3929">
<path opacity="0.3929" d="M376.127 655.956L375.199 655.77C386.328 614.78 410.44 576.386 446.979 542.073C479.994 510.728 523.21 483.092 571.804 462.318C618.545 442.287 669.736 428.562 719.815 422.626C770.821 416.691 819.786 418.917 861.148 429.304C914.379 442.472 952.958 437.094 982.449 412.425C1008.79 390.354 1024.37 355.855 1041.06 319.502C1062.02 273.689 1083.53 226.207 1128.6 199.127C1241.56 130.872 1434.27 75.4146 1436.31 74.8582L1436.5 75.7855C1434.64 76.342 1241.93 131.799 1129.16 200.055C1084.46 227.134 1062.95 274.431 1041.99 320.058C1009.16 391.837 978.369 459.722 860.962 430.416C819.601 420.03 770.821 417.804 720 423.739C669.921 429.675 618.915 443.4 572.175 463.431C523.581 484.205 480.55 511.841 447.535 543.001C411.367 576.943 387.255 615.151 376.127 655.956Z" fill="#C4C4C4"/>
</g>
</g>
<g opacity="0.3571">
<g opacity="0.3571">
<path opacity="0.3571" d="M403.021 659.665L402.093 659.48C412.109 620.344 434.923 583.806 469.792 550.605C501.509 520.373 543.241 493.664 590.352 473.076C635.794 453.416 685.872 439.69 734.838 433.57C784.917 427.263 833.141 428.933 874.502 438.392C927.548 450.448 965.385 444.327 993.949 419.103C1019.36 396.66 1034.01 361.976 1049.41 325.066C1068.51 279.624 1088.36 232.884 1130.46 203.95C1186.66 165.371 1267.16 134.211 1325.02 114.921C1387.53 93.9624 1437.42 81.9064 1437.98 81.7209L1438.16 82.6483C1437.61 82.8338 1387.72 94.7043 1325.4 115.663C1267.71 134.953 1187.22 166.113 1131.2 204.692C1089.28 233.441 1069.62 280.181 1050.52 325.437C1034.94 362.347 1020.29 397.031 994.876 419.659C966.127 445.069 927.919 451.375 874.502 439.134C833.326 429.675 785.102 428.005 735.209 434.312C686.243 440.432 636.165 454.158 590.908 473.818C543.797 494.22 502.251 520.929 470.534 551.162C435.85 584.176 413.037 620.715 403.021 659.665Z" fill="#C4C4C4"/>
</g>
</g>
<g opacity="0.3214">
<g opacity="0.3214">
<path opacity="0.3214" d="M429.915 663.189L428.987 663.004C446.051 591.596 511.71 526.308 608.9 483.834C700.525 443.771 804.763 430.231 888.042 447.48C940.717 458.423 978.183 451.561 1005.63 425.78C1030.12 402.781 1043.66 367.911 1057.94 330.816C1075.19 285.93 1093.18 239.561 1132.5 208.958C1234.33 129.759 1437.61 89.14 1439.65 88.769L1439.83 89.6964C1437.79 90.0674 1234.7 130.501 1133.06 209.7C1093.92 240.118 1076.11 286.487 1058.87 331.187C1044.58 368.282 1031.04 403.337 1006.38 426.522C978.74 452.488 941.088 459.536 888.042 448.408C805.134 431.158 700.896 444.698 609.456 484.761C512.452 527.235 446.979 592.152 429.915 663.189Z" fill="#C4C4C4"/>
</g>
</g>
<g opacity="0.2857">
<g opacity="0.2857">
<path opacity="0.2857" d="M456.809 666.899L455.882 666.714C470.905 599.015 533.411 536.324 627.447 494.777C716.29 455.456 818.673 441.36 901.396 456.755C953.886 466.585 990.61 458.98 1016.95 432.643C1040.5 409.273 1052.74 374.032 1065.91 336.566C1081.49 292.052 1097.63 246.054 1134.17 213.966C1184.43 169.637 1265.3 139.961 1324.1 122.712C1387.9 104.164 1440.39 95.8176 1440.95 95.8176L1441.13 96.745C1440.58 96.745 1388.09 105.091 1324.28 123.639C1265.49 140.703 1184.8 170.379 1134.73 214.708C1098.37 246.795 1082.24 292.608 1066.66 336.937C1053.49 374.403 1041.06 409.829 1017.5 433.385C990.981 459.908 953.886 467.512 901.21 457.682C818.673 442.288 716.661 456.569 627.818 495.705C534.153 537.066 471.833 599.572 456.809 666.899Z" fill="#C4C4C4"/>
</g>
</g>
<g opacity="0.25">
<g opacity="0.25">
<path opacity="0.25" d="M483.888 670.609L482.961 670.424C495.759 606.249 555.297 546.34 646.366 505.72C732.612 467.327 832.955 452.489 915.121 466.029C967.425 474.746 1003.41 466.214 1028.63 439.691C1051.08 415.95 1062.39 380.338 1074.26 342.687C1088.17 298.543 1102.45 252.916 1136.39 219.345C1183.88 172.234 1264.74 143.114 1324.1 127.163C1388.46 109.728 1442.43 103.422 1442.99 103.422L1443.17 104.35C1442.62 104.35 1388.83 110.656 1324.47 128.09C1265.11 144.041 1184.43 173.161 1137.14 220.087C1103.38 253.658 1089.1 299.1 1075.19 343.058C1063.32 380.895 1052 416.506 1029.37 440.433C1003.96 467.327 967.611 475.859 915.121 467.141C833.14 453.602 732.983 468.44 646.922 506.833C555.853 546.896 496.501 606.805 483.888 670.609Z" fill="#C4C4C4"/>
</g>
</g>
<g opacity="0.2143">
<g opacity="0.2143">
<path opacity="0.2143" d="M510.783 674.133L509.855 673.947C520.427 613.482 576.998 556.17 664.913 516.478C748.378 478.826 847.051 463.431 928.475 475.116C1042.17 491.438 1060.53 425.223 1082.05 348.436C1094.29 304.664 1106.9 259.407 1138.25 224.167C1162.73 196.531 1214.85 157.952 1323.73 130.872C1388.83 114.736 1444.1 110.284 1444.66 110.284V111.212C1444.1 111.212 1388.83 115.663 1323.91 131.8C1215.22 158.879 1163.29 197.273 1138.81 224.909C1107.65 259.964 1095.03 305.035 1082.98 348.807C1072.41 386.83 1062.39 422.812 1040.69 447.11C1016.39 474.375 980.78 483.648 928.475 476.044C847.051 464.359 748.749 479.753 665.47 517.405C577.554 556.912 521.355 614.038 510.783 674.133Z" fill="#C4C4C4"/>
</g>
</g>
<g opacity="0.1786">
<g opacity="0.1786">
<path opacity="0.1786" d="M537.677 677.842L536.749 677.657C545.281 620.901 598.698 566 683.461 527.421C764.329 490.697 860.962 474.56 941.83 484.205C1054.78 497.93 1070.92 431.344 1089.65 354.186C1100.23 310.785 1111.17 265.714 1139.92 228.989C1181.47 176.129 1262.52 148.493 1323.17 134.582C1388.83 119.558 1445.58 117.147 1446.14 117.147V118.075C1445.58 118.075 1389.01 120.671 1323.35 135.509C1262.89 149.235 1182.02 176.871 1140.66 229.546C1111.91 266.085 1101.15 310.97 1090.58 354.372C1071.66 431.901 1055.53 498.858 941.83 485.132C861.148 475.302 764.7 491.439 684.018 528.163C599.255 566.927 546.023 621.272 537.677 677.842Z" fill="#C4C4C4"/>
</g>
</g>
<g opacity="0.1429">
<g opacity="0.1429">
<path opacity="0.1429" d="M564.571 681.552L563.643 681.366C569.95 628.135 620.399 576.016 702.009 538.549C780.28 502.567 874.873 485.874 955.184 493.664C1067.21 504.793 1081.12 437.836 1097.07 360.492C1105.98 317.276 1115.25 272.576 1141.59 234.368C1158.65 209.7 1185.36 188.556 1220.97 171.677C1249.35 158.137 1283.66 147.194 1322.61 139.033C1389.01 125.308 1447.07 124.566 1447.62 124.566V125.494C1447.07 125.494 1389.2 126.05 1322.8 139.961C1283.85 148.122 1249.72 159.065 1221.34 172.605C1185.92 189.483 1159.39 210.627 1142.33 235.11C1115.99 273.133 1106.9 317.647 1098 360.863C1081.86 438.578 1067.95 505.906 954.999 494.777C874.873 486.802 780.28 503.68 702.38 539.477C620.956 576.758 570.691 628.691 564.571 681.552Z" fill="#C4C4C4"/>
</g>
</g>
<g opacity="0.1071">
<g opacity="0.1071">
<path opacity="0.1071" d="M591.465 685.076H590.537C594.618 635.554 641.914 586.031 720.556 549.493C796.045 514.252 888.784 496.817 968.538 502.938C1019.54 506.833 1052.74 495.519 1073.15 467.512C1091.51 442.287 1097.82 405.563 1104.49 366.798C1108.02 345.654 1111.91 323.953 1117.66 302.253C1124.34 277.77 1132.68 257.182 1143.44 239.562C1159.21 213.595 1184.99 191.894 1220.42 174.83C1248.61 161.105 1282.92 150.533 1322.24 143.114C1389.2 130.501 1448.55 131.8 1449.29 131.8V132.727C1448.74 132.727 1389.38 131.429 1322.43 144.041C1283.11 151.46 1248.98 162.032 1220.79 175.572C1185.73 192.636 1159.95 214.337 1144.37 239.933C1120.44 279.439 1112.47 325.808 1105.42 366.798C1098.74 405.748 1092.44 442.473 1073.89 467.883C1053.3 496.261 1019.73 507.575 968.353 503.68C888.783 497.745 796.231 514.994 720.742 550.235C642.656 586.773 595.36 635.925 591.465 685.076Z" fill="#C4C4C4"/>
</g>
</g>
<g opacity="0.071429">
<g opacity="0.071429">
<path opacity="0.071429" d="M618.359 688.785H617.432C618.544 662.818 633.382 635.924 660.647 611.07C693.662 581.023 743.741 554.315 801.795 536.323C860.962 517.776 924.951 509.244 981.893 512.211C1032.53 514.808 1064.99 502.938 1084.09 474.745C1101.34 449.15 1106.35 412.425 1111.73 373.475C1117.29 332.485 1123.6 285.93 1145.3 244.754C1159.58 217.489 1184.62 195.047 1219.67 177.798C1247.68 164.072 1281.99 153.686 1321.69 147.008C1389.38 135.694 1450.22 138.847 1450.78 138.847V139.775C1450.22 139.775 1389.38 136.436 1321.87 147.936C1282.18 154.613 1248.05 165 1220.04 178.539C1185.17 195.603 1160.32 218.046 1146.04 244.94C1124.34 285.93 1118.03 332.299 1112.47 373.29C1107.27 412.425 1102.27 449.335 1084.83 475.116C1065.54 503.68 1032.71 515.736 981.893 512.953C924.951 509.986 861.148 518.518 802.166 537.065C744.297 555.242 694.219 581.58 661.389 611.627C634.124 636.295 619.286 663.004 618.359 688.785Z" fill="#C4C4C4"/>
</g>
</g>
<g opacity="0.035714">
<g opacity="0.035714">
<path opacity="0.035714" d="M644.326 692.495C644.14 669.682 655.64 646.868 678.639 624.24C708.686 594.564 756.91 567.855 814.407 548.937C873.018 529.647 937.378 519.817 995.432 521.486C998.029 521.486 1000.44 521.671 1002.85 521.671C1105.05 521.671 1111.17 458.98 1118.96 379.968C1123.04 338.977 1127.68 292.608 1147.15 249.949C1160.14 221.385 1184.43 198.201 1219.12 181.137C1246.75 167.412 1281.25 157.396 1321.31 151.461C1389.57 141.259 1451.7 146.453 1452.45 146.453V147.38C1451.89 147.38 1389.76 142.187 1321.5 152.388C1281.44 158.323 1247.12 168.339 1219.49 182.064C1184.99 199.128 1161.06 222.127 1148.08 250.505C1128.6 292.979 1123.97 339.348 1119.89 380.153C1115.99 419.474 1112.28 456.569 1095.96 482.536C1077.78 511.285 1045.88 523.897 995.432 522.599C937.564 520.93 873.389 530.76 814.778 550.049C757.466 568.968 709.428 595.677 679.381 625.167C656.567 647.61 645.067 670.238 645.253 692.866L644.326 692.495Z" fill="#C4C4C4"/>
</g>
</g>
<path d="M-123 273.169C-122.629 272.427 -83.308 199.535 -18.9477 123.675C18.8895 79.1606 57.8395 42.2508 96.7896 14.2439C145.57 -20.8112 194.536 -42.3264 242.203 -49.56C313.426 -60.3176 395.592 -11.7228 474.976 35.2027C524.498 64.508 575.69 94.7406 622.801 109.393C648.025 117.183 670.097 119.965 690.5 117.925C713.128 115.699 732.974 107.353 751.15 92.7004C864.105 1.26052 878.944 7.75222 918.635 24.816C926.611 28.3401 935.699 32.0496 946.642 35.7591L946.457 36.6865C935.328 33.1625 926.24 29.2675 918.265 25.7434C878.944 8.86508 864.105 2.55887 751.521 93.4423C733.345 108.28 713.313 116.441 690.314 118.853C669.912 120.893 647.655 118.111 622.43 110.135C575.319 95.4825 524.127 65.2499 474.419 35.9446C395.036 -10.9809 313.055 -59.3903 242.203 -48.8181C194.536 -41.5845 145.755 -20.2547 97.1605 14.8003C58.2105 42.8072 19.4459 79.5316 -18.3913 124.046C-82.7516 199.906 -122.073 272.613 -122.444 273.354L-123 273.169Z" fill="#C4C4C4"/>
<g opacity="0.9667">
<g opacity="0.9667">
<g opacity="0.9667">
<path opacity="0.9667" d="M-120.589 288.935C-120.218 288.193 -81.8243 215.115 -18.7623 138.884C18.333 94.1844 56.5411 57.2746 94.7492 29.0822C142.602 -6.15833 190.826 -27.6736 237.937 -35.0926C309.716 -46.4067 390.584 -0.594021 468.855 43.7348C519.49 72.4837 567.343 99.5632 612.97 112.361C637.453 119.224 658.969 121.449 678.629 118.853C700.515 115.885 719.805 107.353 737.425 92.3297C849.267 -3.00521 864.662 2.74455 910.104 19.9939C917.894 22.9615 926.982 26.3 937.369 29.6386L937.183 30.566C926.611 27.2274 917.708 23.8889 909.918 20.9212C864.847 3.85741 849.638 -1.89237 738.167 93.0715C720.547 108.095 701.072 116.813 679 119.78C659.154 122.377 637.639 120.337 613.156 113.288C567.343 100.305 519.49 73.2256 468.855 44.4767C390.77 0.147873 309.902 -45.4793 238.493 -34.3507C191.568 -27.1172 143.344 -5.6019 95.6766 29.6386C57.4685 57.831 19.2603 94.7408 -17.6495 139.441C-80.7114 215.486 -118.92 288.564 -119.291 289.306L-120.589 288.935Z" fill="#C4C4C4"/>
</g>
</g>
</g>
<g opacity="0.9333">
<g opacity="0.9333">
<g opacity="0.9333">
<path opacity="0.9333" d="M-117.992 304.886C-117.621 304.144 -80.3405 230.881 -18.5769 154.65C17.7765 109.765 55.2427 72.6693 92.709 44.4769C139.82 9.05092 187.302 -12.8353 233.671 -20.2543C305.821 -31.9394 385.391 11.0912 462.178 52.6379C560.11 105.499 652.662 155.577 723.329 92.3298C834.244 -7.45648 850.009 -2.07767 901.943 15.7281C909.362 18.3247 917.894 21.1069 927.353 23.889L927.167 24.8164C917.523 22.0343 909.176 19.0667 901.572 16.47C850.009 -1.15026 834.429 -6.34361 723.885 92.8863C706.821 108.281 688.088 117.369 666.573 120.893C647.469 124.046 626.51 122.748 602.584 116.627C558.069 105.313 511.329 80.0884 461.807 53.1943C385.02 11.6476 305.636 -31.1975 233.857 -19.5124C187.487 -12.0934 140.191 9.79283 93.2654 45.0333C55.6137 73.4112 18.333 110.321 -18.0204 155.206C-79.7841 231.437 -117.065 304.515 -117.436 305.257L-117.992 304.886Z" fill="#C4C4C4"/>
</g>
</g>
</g>
<g opacity="0.9">
<g opacity="0.9">
<g opacity="0.9">
<path opacity="0.9" d="M-115.581 320.651C-115.21 319.909 -78.8566 246.646 -18.3913 170.044C17.0347 125.159 53.759 87.8779 90.8543 59.5C137.038 23.8886 183.778 2.00236 229.591 -5.78765C302.112 -17.8436 380.383 22.2193 455.872 60.9838C551.392 109.95 641.534 156.319 709.604 91.7729C819.591 -12.6503 835.727 -7.64241 895.451 10.9052C902.128 12.9455 909.733 15.3566 917.894 17.5824L917.708 18.5097C909.547 16.0985 901.943 13.8728 895.08 11.6471C835.728 -6.71504 819.777 -11.7229 710.16 92.3293C641.534 157.061 551.021 110.691 455.315 61.5403C379.827 22.7757 301.926 -17.1017 229.591 -5.04576C183.778 2.55878 137.223 24.445 91.2253 60.0565C54.3154 88.4344 17.5911 125.715 -17.8348 170.6C-78.1147 247.017 -114.468 320.28 -114.839 321.022L-115.581 320.651Z" fill="#C4C4C4"/>
</g>
</g>
</g>
<g opacity="0.8667">
<g opacity="0.8667">
<g opacity="0.8667">
<path opacity="0.8667" d="M-113.17 336.602C-112.799 335.86 -77.5582 262.411 -18.3912 185.624C16.2929 140.553 52.2753 103.273 88.6287 74.5237C134.07 38.7267 180.069 16.655 225.325 8.86504C298.217 -3.74736 375.004 33.5334 449.195 69.3304C542.304 114.401 630.22 157.061 695.878 91.402C804.939 -18.029 821.26 -13.3921 890.072 6.26838C895.822 7.93767 901.943 9.60693 908.434 11.4617L908.249 12.3891C901.757 10.5343 895.636 8.86505 889.887 7.19576C821.446 -12.2793 805.309 -17.1017 696.435 91.9585C630.22 157.988 542.118 115.328 448.638 70.0723C374.633 34.2753 298.031 -3.00546 225.325 9.60693C180.254 17.3969 134.441 39.4686 89.1851 75.0801C53.0172 103.643 17.0348 140.924 -17.6493 185.995C-76.6308 262.597 -112.057 336.045 -112.428 336.787L-113.17 336.602Z" fill="#C4C4C4"/>
</g>
</g>
</g>
<g opacity="0.8333">
<g opacity="0.8333">
<g opacity="0.8333">
<path opacity="0.8333" d="M-110.759 352.367C-110.388 351.626 -76.0745 277.991 -18.2058 201.019C15.7364 155.762 50.9769 118.296 86.5883 89.5474C131.103 53.565 176.359 31.3078 221.059 23.5178C294.322 10.5344 369.44 44.6621 442.147 77.8624C488.33 98.8212 532.103 118.853 572.722 125.344C618.349 132.578 653.033 121.82 681.968 91.4022C738.723 31.1223 768.4 6.26851 795.108 -3.93269C822.93 -14.5048 846.671 -8.19865 885.992 2.55898C890.072 3.67184 894.338 4.78467 898.604 5.89753L898.419 6.82491C893.967 5.71206 889.887 4.59922 885.806 3.48636C846.671 -7.08579 822.93 -13.392 795.479 -3.00531C768.771 7.19589 739.28 32.0497 682.524 92.1441C618.535 159.472 532.659 120.336 441.59 78.9753C369.069 45.9605 293.951 11.8328 221.059 24.8161C176.544 32.7916 131.474 54.8633 86.9593 90.6603C51.3479 119.409 16.1073 156.69 -17.6494 201.946C-75.3326 278.919 -109.646 352.367 -110.017 353.109L-110.759 352.367Z" fill="#C4C4C4"/>
</g>
</g>
</g>
<g opacity="0.8">
<g opacity="0.8">
<g opacity="0.8">
<path opacity="0.8" d="M-108.162 368.318C-107.791 367.576 -74.4051 293.757 -18.0203 216.599C15.18 171.342 49.6785 133.691 84.5481 104.756C128.321 68.5884 172.835 46.3312 216.793 38.1703C290.241 24.6305 363.876 55.976 435.099 86.2086C480.355 105.498 523.2 123.489 562.521 128.497C606.664 134.062 640.235 122.006 668.242 90.8456C776.004 -29.5286 794.552 -24.7062 884.137 -1.89264L889.145 -0.594316L888.959 0.333066L883.951 -0.965262C794.737 -23.7789 776.19 -28.6012 668.984 91.402C640.977 122.747 607.035 134.803 562.521 129.239C523.014 124.231 480.169 106.055 434.728 86.9506C363.505 56.7179 290.056 25.5579 216.978 38.9122C173.02 46.8876 128.692 69.3303 85.1046 105.313C50.235 134.062 15.7364 171.713 -17.4639 216.97C-73.8487 294.128 -107.234 367.762 -107.42 368.504L-108.162 368.318Z" fill="#C4C4C4"/>
</g>
</g>
</g>
<g opacity="0.7667">
<g opacity="0.7667">
<g opacity="0.7667">
<path opacity="0.7667" d="M-105.751 384.084C-105.38 383.342 -73.1069 309.337 -18.0204 231.993C14.438 186.552 48.1947 148.714 82.5078 119.78C125.353 83.6122 169.125 60.9841 212.527 52.8231C285.975 38.9124 358.126 67.2903 427.679 94.5553C472.008 111.99 513.926 128.312 552.134 131.651C594.979 135.36 627.437 122.377 654.332 90.4749C710.16 24.4453 740.207 -3.00524 769.327 -14.1338C799.56 -25.6334 827.937 -19.5126 879.685 -6.71477L879.5 -5.78738C827.938 -18.5853 799.745 -24.706 769.698 -13.2064C740.764 -2.07786 710.716 25.1872 655.073 91.0313C627.994 123.119 595.35 136.288 552.134 132.393C513.74 129.054 471.823 112.547 427.494 95.1118C357.94 67.8467 285.975 39.6543 212.712 53.3796C169.496 61.5405 125.909 83.9832 83.0643 120.151C48.7511 149.085 14.9944 186.737 -17.2785 232.179C-72.365 309.522 -104.638 383.528 -105.009 384.084H-105.751Z" fill="#C4C4C4"/>
</g>
</g>
</g>
<g opacity="0.7333">
<g opacity="0.7333">
<g opacity="0.7333">
<path opacity="0.7333" d="M-103.34 400.035C-102.969 399.293 -71.6231 325.102 -17.8349 247.388C13.6961 201.761 46.8964 163.923 80.4676 134.804C122.571 98.4503 165.601 75.8222 208.261 67.4757C281.709 53.1941 355.158 79.5317 420.075 102.902C463.476 118.482 504.467 133.134 541.747 134.989C583.294 137.029 614.64 122.933 640.421 90.2893C742.433 -37.8749 767.658 -37.133 869.855 -12.4646L869.67 -11.5372C819.22 -23.7787 786.391 -30.0849 754.489 -17.1015C720.732 -3.37625 687.346 32.9771 641.163 91.0312C615.011 123.861 583.48 138.142 541.747 135.917C504.467 134.062 463.291 119.409 419.889 103.644C355.158 80.4591 281.709 54.1214 208.446 68.4031C165.787 76.7496 122.942 99.1922 81.024 135.546C47.4528 164.665 14.438 202.503 -17.093 247.944C-70.8812 325.473 -102.227 399.664 -102.412 400.406L-103.34 400.035Z" fill="#C4C4C4"/>
</g>
</g>
</g>
<g opacity="0.7">
<g opacity="0.7">
<g opacity="0.7">
<path opacity="0.7" d="M-100.928 415.8C-100.557 415.058 -70.3247 340.682 -17.8349 262.782C12.9542 216.969 45.4125 178.947 78.2419 149.827C119.418 113.288 161.706 90.4744 203.995 82.128C277.258 67.4753 349.037 90.6599 412.285 111.062C498.16 138.884 572.351 162.81 626.696 89.918C678.629 20.5498 708.12 -8.94094 739.094 -22.2952C770.811 -36.0205 803.455 -32.1255 860.396 -18.5857L860.21 -17.6583C803.454 -31.0126 770.811 -34.9076 739.465 -21.3679C708.676 -8.01356 679.371 21.2917 627.437 90.4744C572.536 163.738 498.16 139.811 411.914 111.804C348.666 91.4018 277.073 68.2172 204.18 82.8699C162.077 91.2163 119.974 114.03 78.9837 150.383C46.1544 179.503 13.8816 217.526 -16.9075 263.153C-69.3973 341.053 -99.63 415.244 -100.001 415.985L-100.928 415.8Z" fill="#C4C4C4"/>
</g>
</g>
</g>
<g opacity="0.6667">
<g opacity="0.6667">
<g opacity="0.6667">
<path opacity="0.6667" d="M-98.3316 431.751C-97.9607 431.009 -68.6554 356.448 -17.6494 278.362C12.3978 232.549 43.9288 194.341 76.2017 165.036C116.636 128.312 158.182 105.498 199.729 96.9662C272.621 81.9426 342.546 101.974 404.124 119.594C488.145 143.706 560.481 164.294 612.97 89.9181C662.307 19.808 692.354 -11.7229 724.071 -26.1901C757.827 -41.5846 793.253 -37.6896 850.937 -24.3353L850.751 -23.408C739.465 -49.0037 706.821 -41.9556 613.712 90.4745C560.852 165.222 488.145 144.263 403.938 120.151C342.546 102.531 272.807 82.6845 200.1 97.5226C158.739 106.055 117.192 128.868 76.9436 165.407C44.6707 194.712 13.1397 232.735 -16.9074 278.548C-68.0989 356.633 -97.2187 431.009 -97.5897 431.751H-98.3316Z" fill="#C4C4C4"/>
</g>
</g>
</g>
<g opacity="0.6333">
<g opacity="0.6333">
<g opacity="0.6333">
<path opacity="0.6333" d="M-95.9204 447.517C-95.5495 446.775 -67.3571 372.028 -17.4639 293.572C11.8414 247.573 42.6304 209.18 74.3469 179.875C113.853 142.965 154.658 119.966 195.648 111.434C268.17 96.2247 335.869 112.918 395.778 127.756C436.953 137.957 475.903 147.602 510.031 145.005C547.868 142.037 576.246 124.417 599.245 89.362C639.308 28.5258 671.581 -12.65 709.047 -30.4557C744.473 -47.3341 784.351 -43.2536 841.477 -30.6412L841.292 -29.7138C766.174 -46.5922 736.127 -42.5117 709.418 -29.7138C672.137 -11.9081 640.05 29.2677 599.987 89.9185C576.802 125.159 548.239 142.965 510.031 145.932C475.718 148.529 436.768 138.884 395.407 128.683C335.683 113.845 267.984 97.1521 195.648 112.361C154.844 120.893 114.224 143.892 74.7179 180.616C43.1869 210.107 12.3978 248.315 -16.9075 294.313C-66.6151 372.585 -94.993 447.331 -95.1785 448.073L-95.9204 447.517Z" fill="#C4C4C4"/>
</g>
</g>
</g>
<g opacity="0.6">
<g opacity="0.6">
<g opacity="0.6">
<path opacity="0.6" d="M-93.5093 463.468C-93.3238 462.726 -65.8733 387.793 -17.464 309.151C11.0994 262.968 41.1466 224.574 72.1212 194.898C110.886 157.988 150.949 134.803 191.197 126.086C262.976 110.506 328.635 124.231 386.689 136.287C427.308 144.819 465.702 152.795 499.088 148.529C535.812 143.892 563.263 124.973 585.334 88.9907C629.849 16.6549 660.267 -18.0292 693.838 -34.7221C731.119 -53.2697 774.335 -49.3747 831.832 -36.7623L831.647 -35.8349C707.007 -63.1 668.057 -43.254 586.262 89.5471C564.005 125.715 536.369 144.819 499.273 149.456C465.887 153.722 427.308 145.561 386.689 137.215C328.82 125.159 263.162 111.619 191.568 127.013C151.32 135.731 111.442 158.73 72.8631 195.64C41.8885 225.13 11.8413 263.524 -16.5366 309.708C-64.9459 388.35 -92.2109 463.097 -92.5819 463.838L-93.5093 463.468Z" fill="#C4C4C4"/>
</g>
</g>
</g>
<g opacity="0.5667">
<g opacity="0.5667">
<g opacity="0.5667">
<path opacity="0.5667" d="M-90.727 478.306C-87.3885 469.032 -61.6072 398.366 -17.2784 324.546C10.3576 278.177 39.8484 239.598 70.081 209.921C107.918 172.826 147.239 149.456 186.931 140.739C257.783 124.973 321.216 135.545 377.23 144.819C459.767 158.545 525.055 169.488 571.424 88.6199C613.898 14.8003 643.945 -20.9966 678.629 -38.9878C712.571 -56.6081 752.82 -57.7209 822.002 -42.8828L821.817 -41.9554C752.82 -56.7936 712.757 -55.6807 679 -38.2459C644.501 -20.4402 614.64 15.3567 572.166 88.9909C525.426 170.23 459.952 159.286 377.044 145.561C321.031 136.287 257.783 125.715 187.117 141.295C147.61 150.013 108.289 173.197 70.6374 210.292C40.4048 239.969 11.0995 278.362 -16.5365 324.731C-63.6475 403.559 -89.9851 478.677 -90.1706 479.419L-90.9125 479.048C-90.9125 479.233 -90.9125 478.862 -90.727 478.306Z" fill="#C4C4C4"/>
</g>
</g>
</g>
<g opacity="0.5333">
<g opacity="0.5333">
<g opacity="0.5333">
<path opacity="0.5333" d="M-86.4611 489.063C-79.413 469.588 -55.4866 405.97 -17.2784 339.94C9.61567 293.386 38.3645 254.807 67.8553 224.945C104.951 187.664 143.53 164.294 182.665 155.391C252.219 139.626 313.241 147.045 367.214 153.722C408.946 158.915 444.929 163.367 476.645 156.133C511.329 148.343 537.111 126.828 557.513 88.4344C632.075 -51.0439 679.556 -76.6396 812.358 -48.8182L812.172 -47.8908C679.927 -75.7122 632.631 -50.1165 558.255 88.8053C513.555 172.641 448.824 164.665 367.029 154.464C313.055 147.787 252.033 140.368 182.665 156.133C143.715 165.036 105.322 188.406 68.4117 225.501C38.921 255.178 10.1721 293.942 -16.722 340.311C-62.5347 419.324 -87.7595 494.628 -87.9449 495.37L-88.6868 495.184C-88.5014 494.999 -87.7594 492.958 -86.4611 489.063Z" fill="#C4C4C4"/>
</g>
</g>
</g>
<g opacity="0.5">
<g opacity="0.5">
<g opacity="0.5">
<path opacity="0.5" d="M-81.2678 496.668C-71.994 470.887 -50.2932 414.131 -17.093 355.15C9.0592 308.595 37.0661 269.645 66.0004 239.783C102.168 202.317 140.006 178.761 178.585 169.859C246.469 154.093 305.08 158.73 356.827 162.811C398.374 166.149 434.357 168.931 465.517 160.214C499.459 150.755 524.313 127.756 543.973 88.0636C581.439 12.2037 611.857 -26.9318 648.582 -47.3342C685.492 -67.7366 730.191 -69.9623 803.084 -54.9387L802.898 -54.0113C730.191 -69.0349 685.677 -66.8092 648.953 -46.5923C612.414 -26.3754 582.181 12.7601 544.715 88.4345C525.055 128.312 499.83 151.311 465.702 160.956C434.542 169.673 398.374 166.891 356.827 163.552C305.08 159.472 246.469 154.835 178.77 170.601C140.377 179.503 102.725 203.059 66.5569 240.34C37.6226 270.201 9.8011 308.966 -16.3511 355.521C-60.8654 434.904 -84.9774 510.393 -85.3483 511.135L-86.2757 510.95C-86.0902 510.764 -84.4209 505.571 -81.2678 496.668Z" fill="#C4C4C4"/>
</g>
</g>
</g>
<g opacity="0.4667">
<g opacity="0.4667">
<g opacity="0.4667">
<path opacity="0.4667" d="M-75.3326 502.047C-64.9459 473.113 -45.2854 422.663 -17.093 370.544C8.31727 323.804 35.3968 284.854 63.7747 254.807C99.2007 217.155 136.296 193.6 174.133 184.512C239.792 168.746 295.806 170.601 345.328 172.27C428.792 175.052 489.072 176.907 529.877 87.6929C564.746 11.4621 595.535 -30.0846 633.002 -51.4144C671.024 -73.1151 718.877 -75.8973 793.068 -60.8737L792.882 -59.9463C718.877 -74.9699 671.21 -72.1877 633.373 -50.487C596.092 -29.1572 565.303 12.3895 530.619 88.2494C489.629 178.02 428.978 176.165 345.142 173.383C295.806 171.714 239.792 169.859 174.133 185.624C136.481 194.713 99.3862 218.268 64.1456 255.549C35.9532 285.596 8.6882 324.361 -16.5366 371.101C-59.7526 450.67 -82.9371 526.345 -83.1226 527.086L-84.05 526.901C-83.4936 526.53 -80.7114 517.442 -75.3326 502.047Z" fill="#C4C4C4"/>
</g>
</g>
</g>
<g opacity="0.4333">
<g opacity="0.4333">
<g opacity="0.4333">
<path opacity="0.4333" d="M-69.0263 505.942C-58.4541 476.081 -40.8339 431.752 -16.9074 386.124C7.76094 339.199 34.0986 300.063 61.7346 270.016C96.2332 232.365 132.587 208.624 170.053 199.35C232.929 183.955 286.161 183.213 333.087 182.657C375.375 182.1 411.914 181.544 442.147 169.674C474.605 156.876 498.161 130.723 516.337 87.6929C548.981 10.1638 579.399 -32.4958 618.164 -55.3094C657.856 -78.4939 707.378 -81.8325 783.794 -66.6234L783.609 -65.6961C707.378 -80.9051 658.041 -77.5666 618.535 -54.382C579.77 -31.7539 549.537 10.9057 517.079 88.2494C498.902 131.465 475.161 157.618 442.518 170.601C412.1 182.657 375.561 183.213 333.272 183.77C286.346 184.326 233.3 185.068 170.424 200.463C133.328 209.551 96.9751 233.292 62.662 270.758C35.026 300.805 8.68828 339.941 -15.7946 386.681C-57.7123 466.436 -79.7839 542.481 -79.9694 543.223L-80.8968 543.037C-81.0823 542.481 -77.0018 528.199 -69.0263 505.942Z" fill="#C4C4C4"/>
</g>
</g>
</g>
<g opacity="0.4">
<g opacity="0.4">
<g opacity="0.4">
<path opacity="0.4" d="M-62.5347 508.724C-52.1481 479.604 -36.7535 441.025 -16.7221 401.333C7.01888 354.222 32.8001 315.087 59.6942 284.669C93.4509 246.832 129.062 222.905 165.787 213.817C225.325 198.979 275.403 195.826 319.547 193.229C407.092 187.85 464.96 184.512 502.426 87.1364C532.288 9.42181 563.263 -36.0199 602.955 -59.7609C643.574 -84.2438 696.435 -88.3242 774.149 -72.9297L773.964 -72.0023C696.435 -87.2114 643.759 -83.1309 603.511 -58.8335C564.005 -35.0925 533.03 9.97825 503.354 87.6929C465.702 185.439 407.648 188.963 319.732 194.342C275.589 196.938 225.51 200.092 165.972 214.93C129.433 224.018 94.0073 247.759 60.4361 285.596C33.542 315.829 7.94631 354.964 -15.9801 402.075C-56.414 482.201 -77.7438 558.432 -77.9293 559.174L-78.8567 558.988C-78.6712 558.246 -73.1069 538.401 -62.5347 508.724Z" fill="#C4C4C4"/>
</g>
</g>
</g>
<g opacity="0.3667">
<g opacity="0.3667">
<g opacity="0.3667">
<path opacity="0.3667" d="M473.687 677.842C483.332 650.762 496.501 617.562 513.008 583.62C536.007 536.323 561.047 497.002 587.384 466.584C620.214 428.561 655.269 404.635 691.251 395.361C746.708 381.079 793.263 376.257 834.253 371.806C926.064 361.975 981.707 356.04 1017.5 255.883C1017.69 255.141 1018.06 254.399 1018.25 253.657C1045.88 174.644 1076.49 128.09 1117.48 102.865C1159.58 76.8981 1214.11 72.2612 1294.23 87.8412L1294.05 88.7686C1214.29 73.3741 1159.95 78.011 1118.03 103.792C1078.15 128.275 1047.92 173.346 1020.84 249.02C1020.29 250.689 1019.73 252.359 1018.99 254.028C1018.8 254.77 1018.43 255.512 1018.25 256.254C982.263 356.967 926.435 362.903 834.253 372.733C793.263 377.184 746.708 382.007 691.436 396.288C655.454 405.562 620.77 429.303 587.941 467.14C561.788 497.373 536.749 536.694 513.75 583.991C474.615 664.302 454.398 740.718 454.212 741.46L453.285 741.275C453.656 740.904 460.333 715.122 473.687 677.842Z" fill="#C4C4C4"/>
</g>
</g>
</g>
<g opacity="0.3333">
<g opacity="0.3333">
<g opacity="0.3333">
<path opacity="0.3333" d="M480.179 679.697C488.896 655.4 499.839 627.393 513.194 598.829C535.451 551.347 559.748 511.841 585.344 481.423C617.431 443.215 651.559 419.288 686.985 409.829C737.249 396.66 779.723 390.168 817.189 384.604C865.97 377.185 904.363 371.435 934.782 354C966.869 335.453 988.384 304.478 1004.52 253.287C1029.93 172.975 1060.16 125.308 1102.45 98.5993C1145.48 71.5198 1203.35 66.141 1284.78 81.721L1284.59 82.6484C1127.68 52.7867 1054.6 97.4865 1005.45 253.658C989.312 305.035 967.611 336.195 935.338 354.928C904.92 372.548 866.341 378.298 817.56 385.717C780.094 391.467 737.62 397.773 687.541 410.942C652.301 420.215 618.173 444.142 586.271 482.165C560.676 512.583 536.564 552.089 514.307 599.386C476.469 680.068 457.365 756.67 457.18 757.412L456.252 757.226C456.067 756.67 464.228 724.397 480.179 679.697Z" fill="#C4C4C4"/>
</g>
</g>
</g>
<g opacity="0.3">
<g opacity="0.3">
<g opacity="0.3">
<path opacity="0.3" d="M486.3 681.552C493.719 660.593 502.807 637.594 513.379 614.224C534.894 566.556 558.45 527.05 583.304 496.446C614.464 458.238 648.035 433.941 682.905 424.667C726.677 412.982 764.329 405.748 797.529 399.257C849.462 389.241 890.638 381.265 921.613 361.79C954.071 341.388 975.401 307.817 990.795 253.101C1013.61 172.605 1044.21 122.34 1087.43 94.519C1131.94 65.9556 1191.67 60.0204 1275.32 75.6004L1275.13 76.5278C1191.67 60.9478 1132.31 66.883 1087.98 95.2609C1044.95 122.897 1014.35 172.975 991.723 253.287C976.143 308.188 954.813 341.759 922.169 362.347C891.009 382.007 849.833 389.983 797.714 399.999C764.514 406.49 726.862 413.724 683.09 425.409C648.406 434.683 615.02 458.795 584.046 497.003C559.192 527.606 535.636 567.113 514.307 614.595C477.768 695.463 459.591 772.435 459.406 773.177L458.478 772.992C458.478 772.435 467.752 733.3 486.3 681.552Z" fill="#C4C4C4"/>
</g>
</g>
</g>
<g opacity="0.2667">
<g opacity="0.2667">
<g opacity="0.2667">
<path opacity="0.2667" d="M492.235 683.592C498.356 666.343 505.404 648.166 513.379 629.618C534.152 581.951 556.781 542.073 581.078 511.47C611.496 473.076 644.14 448.779 678.453 439.32C714.25 429.489 745.967 422.256 773.973 415.764C832.955 402.224 875.615 392.394 907.887 370.508C941.459 347.694 962.047 312.454 977.07 252.916C997.473 171.306 1027.89 119.744 1072.41 90.6239C1118.4 60.5768 1179.8 54.0851 1265.67 69.8506L1265.49 70.778C1179.8 54.827 1118.59 61.5042 1072.78 91.3659C1028.45 120.3 998.214 171.863 977.812 253.287C962.789 313.196 942.015 348.622 908.444 371.435C876.171 393.507 833.326 403.337 774.344 416.877C746.338 423.369 714.621 430.602 678.824 440.432C644.696 449.706 612.053 474.004 581.82 512.212C557.523 542.815 534.894 582.507 514.121 630.175C478.881 711.413 461.817 788.572 461.631 789.313L460.704 789.128C461.075 788.386 471.276 742.017 492.235 683.592Z" fill="#C4C4C4"/>
</g>
</g>
</g>
<g opacity="0.2333">
<g opacity="0.2333">
<g opacity="0.2333">
<path opacity="0.2333" d="M497.799 685.632C502.622 672.463 507.815 658.738 513.565 644.827C533.411 596.974 555.482 557.097 579.038 526.122C608.529 487.543 640.616 463.246 674.187 453.786C700.154 446.553 724.08 440.247 745.41 434.682C878.582 399.998 933.854 385.717 962.974 252.174C971.877 211.369 983.747 178.169 998.956 150.904C1014.72 122.711 1033.64 101.567 1057.01 85.9868C1103.75 54.8268 1168.85 47.4077 1255.84 63.3587L1255.66 64.2861C1168.85 48.3351 1103.94 55.7542 1057.38 86.7287C1034.2 102.123 1015.28 123.268 999.513 151.46C984.304 178.725 972.619 211.74 963.716 252.545C934.411 386.459 878.953 400.926 745.41 435.61C724.266 441.174 700.154 447.48 674.187 454.714C640.801 464.173 608.9 488.285 579.409 526.679C555.853 557.468 533.782 597.345 513.936 645.198C480.179 726.622 464.042 804.151 463.857 804.893L462.93 804.708C463.486 804.151 474.615 750.549 497.799 685.632Z" fill="#C4C4C4"/>
</g>
</g>
</g>
<g opacity="0.2">
<g opacity="0.2">
<g opacity="0.2">
<path opacity="0.2" d="M502.992 688.229C506.331 678.955 509.855 669.681 513.565 660.222C532.669 612.184 553.998 572.121 576.998 541.146C605.746 502.382 637.092 478.084 670.107 468.439C684.017 464.359 697.186 460.835 709.799 457.125C788.812 434.868 841.116 420.03 878.026 392.394C915.121 364.573 935.894 323.953 949.434 251.803C965.014 168.895 995.432 113.252 1041.99 81.7211C1090.21 49.0772 1156.98 41.1017 1246.38 57.2382L1246.2 58.1656C1156.98 42.0291 1090.4 50.0046 1042.36 82.463C995.803 113.994 965.756 169.266 950.176 251.988C936.451 324.324 915.677 365.129 878.397 392.951C841.301 420.586 788.997 435.425 709.799 457.682C697.186 461.206 684.017 464.915 670.107 468.996C637.277 478.455 606.117 502.753 577.554 541.332C554.74 572.121 533.411 612.184 514.307 660.222C481.848 742.017 466.639 819.732 466.639 820.474L465.712 820.288C465.897 819.917 477.768 758.895 502.992 688.229Z" fill="#C4C4C4"/>
</g>
</g>
</g>
<g opacity="0.1667">
<g opacity="0.1667">
<g opacity="0.1667">
<path opacity="0.1667" d="M508 691.197C509.855 686.003 511.71 680.81 513.75 675.617C532.112 627.393 552.7 587.144 574.957 556.17C602.779 517.405 633.382 492.737 665.841 483.278C758.95 456.013 820.528 437.836 861.704 406.49C901.952 375.701 922.726 332.485 935.709 251.989C948.692 169.452 977.812 113.067 1024.55 79.681C1074.26 44.255 1143.81 34.9812 1237.11 51.674L1236.92 52.6014C1144 35.9085 1074.63 45.1824 1025.11 80.4229C978.554 113.623 949.62 169.823 936.636 252.174C923.653 332.856 902.88 376.443 862.446 407.232C821.085 438.763 759.506 456.755 666.397 484.205C634.124 493.664 603.706 518.147 575.885 556.726C553.628 587.701 533.04 627.764 514.863 675.988C483.703 757.968 469.607 836.054 469.421 836.796L468.494 836.61C468.308 835.683 480.735 767.242 508 691.197Z" fill="#C4C4C4"/>
</g>
</g>
</g>
<g opacity="0.1333">
<g opacity="0.1333">
<g opacity="0.1333">
<path opacity="0.1333" d="M512.452 694.35C512.823 693.237 513.379 691.938 513.75 690.826C531.37 642.416 551.216 602.168 572.732 571.008C599.811 532.058 629.673 507.389 661.575 497.93C760.063 468.439 816.819 447.295 854.656 413.724C891.936 380.709 910.855 335.082 921.798 251.432C926.992 210.813 936.822 175.387 950.918 146.638C965.2 117.332 984.489 93.5915 1008.23 76.1567C1033.45 57.6091 1064.43 45.7386 1100.41 40.5452C1136.77 35.3519 1179.61 37.0212 1227.46 45.5531L1227.28 46.4805C1179.42 38.134 1136.77 36.4647 1100.6 41.4726C1064.8 46.6659 1033.83 58.5364 1008.79 76.8986C985.231 94.1479 966.127 117.889 951.845 147.009C937.749 175.758 928.104 210.998 922.911 251.617C911.782 335.453 892.864 381.08 855.398 414.28C817.56 447.851 760.619 468.996 661.946 498.672C630.229 508.131 600.553 532.614 573.659 571.564C552.144 602.724 532.298 642.973 514.678 691.196C514.307 692.309 513.75 693.608 513.379 694.72C484.445 775.774 471.832 851.634 471.647 852.561L470.72 852.375C470.905 851.633 483.517 775.588 512.452 694.35Z" fill="#C4C4C4"/>
</g>
</g>
</g>
<g opacity="0.1">
<g opacity="0.1">
<g opacity="0.1">
<path opacity="0.1" d="M516.718 698.059C532.854 653.174 550.845 615.336 570.691 585.846C596.843 546.71 625.963 522.042 657.309 512.397C777.312 475.487 819.044 450.077 847.608 420.957C882.106 385.717 898.985 338.049 907.887 251.061C916.234 168.709 944.426 108.8 991.723 72.818C1043.66 33.4971 1119.52 22.183 1217.63 39.2468L1217.45 40.1742C1119.7 23.1104 1043.84 34.239 992.279 73.56C945.168 109.357 916.976 169.08 908.815 251.246C899.726 338.42 882.848 386.273 848.164 421.699C809.585 461.206 746.708 486.059 657.494 513.324C626.334 522.784 597.4 547.452 571.433 586.402C550.474 617.562 531.556 657.996 514.677 706.405C486.114 788.942 474.244 867.399 474.058 868.326L473.131 868.141C473.316 867.399 485.187 788.757 513.75 706.22C514.863 703.438 515.79 700.841 516.718 698.059Z" fill="#C4C4C4"/>
</g>
</g>
</g>
<g opacity="0.066667">
<g opacity="0.066667">
<g opacity="0.066667">
<path opacity="0.066667" d="M520.613 702.14C534.895 661.891 551.031 627.949 568.651 600.87C594.062 561.549 622.439 536.88 653.043 527.235C753.386 495.704 807.545 467.141 840.56 428.376C877.284 385.16 888.227 328.405 894.162 250.876C900.283 168.153 927.734 107.131 975.586 69.6651C1028.82 28.1184 1107.09 15.877 1208.17 33.3117L1207.99 34.2391C1107.09 16.8043 1029 29.0458 975.957 70.407C928.29 107.688 901.025 168.339 894.904 250.876C888.969 328.59 878.026 385.531 841.116 428.933C808.101 467.697 753.571 496.446 653.228 527.977C622.81 537.622 594.432 562.29 569.208 601.24C548.991 632.586 530.629 673.02 514.678 721.8C487.413 804.708 476.469 883.35 476.469 884.277L475.542 884.092C475.728 883.35 486.671 804.523 513.75 721.615C516.161 714.937 518.202 708.446 520.613 702.14Z" fill="#C4C4C4"/>
</g>
</g>
</g>
<g opacity="0.033333">
<g opacity="0.033333">
<g opacity="0.033333">
<path opacity="0.033333" d="M523.951 706.591C536.749 670.794 550.845 640.376 566.425 615.708C590.908 576.387 618.73 551.533 648.777 541.888C746.152 510.543 801.424 478.826 833.511 435.796C867.268 390.354 876.357 331.372 880.251 250.69C884.147 167.411 910.67 105.648 959.079 66.6975C1013.61 22.925 1094.11 9.57075 1198.53 27.562L1198.34 28.4893C1094.29 10.6836 1013.98 23.8524 959.635 67.4394C911.412 106.204 885.074 167.782 881.179 250.69C873.018 419.103 840.003 481.423 649.148 542.63C619.286 552.275 591.65 576.943 567.353 616.079C547.878 647.424 530.258 688.229 515.048 737.009C489.267 820.103 479.252 899.116 479.252 900.043L478.324 899.858C478.51 899.116 488.34 819.917 514.307 736.638C517.274 726.437 520.613 716.236 523.951 706.591Z" fill="#C4C4C4"/>
</g>
</g>
</g>
<g opacity="0.038462">
<path opacity="0.038462" d="M397.271 878.712L397.085 876.858C481.106 864.245 539.902 840.504 587.941 799.699C629.302 764.83 659.349 725.88 694.033 680.995C715.734 652.988 737.991 624.239 765.998 592.337C794.561 559.693 825.721 544.113 864.115 543.186C898.614 542.444 936.265 553.758 975.957 565.814C1007.86 575.458 1040.69 585.474 1077.04 591.039C1101.9 594.934 1125.27 597.345 1148.08 598.272C1224.68 601.054 1285.89 587.144 1329.66 557.282C1407 504.236 1413.5 415.021 1413.68 414.28L1415.54 414.465C1415.54 415.392 1408.86 505.348 1330.77 558.951C1286.63 589.184 1225.24 603.094 1148.08 600.312C1125.27 599.385 1101.9 596.974 1076.86 593.079C1040.5 587.329 1007.49 577.313 975.586 567.668C893.791 543 829.06 523.34 767.482 593.635C739.475 625.537 717.218 654.471 695.517 682.293C660.647 727.364 630.6 766.128 589.054 801.183C540.83 842.174 481.663 866.1 397.271 878.712Z" fill="#C4C4C4"/>
</g>
<g opacity="0.076923">
<path opacity="0.076923" d="M390.223 878.156L389.852 876.301C473.131 863.132 529.516 837.165 578.481 789.312C608.343 760.193 632.826 731.258 658.607 700.655C689.025 664.672 720.556 627.392 763.958 586.216C829.617 523.71 894.348 539.29 969.28 557.467C1002.11 565.442 1035.87 573.603 1073.7 576.757C1092.62 578.426 1117.85 580.466 1144.74 581.579C1224.87 585.288 1284.59 574.16 1327.62 547.637C1407.93 498.115 1415.17 407.231 1415.35 406.304L1417.21 406.489C1417.21 407.417 1409.79 499.227 1328.73 549.121C1285.52 575.829 1225.24 586.958 1144.93 583.248C1118.03 581.95 1092.81 579.91 1073.89 578.426C1035.87 575.087 1001.92 566.926 969.095 558.951C891.566 540.218 830.358 525.38 765.627 587.329C722.411 628.504 690.88 665.785 660.462 701.582C634.495 732.186 610.012 761.12 580.151 790.24C530.443 838.649 473.873 864.801 390.223 878.156Z" fill="#C4C4C4"/>
</g>
<g opacity="0.1154">
<path opacity="0.1154" d="M382.989 877.414L382.618 875.559C465.155 861.834 519.129 833.827 568.837 778.555C584.231 761.491 598.513 744.798 612.424 728.847C655.454 678.954 695.888 631.843 761.547 579.91C829.802 525.936 891.009 536.879 961.861 549.677C995.618 555.798 1030.49 561.919 1069.99 562.475C1090.4 562.66 1113.58 563.588 1141.03 565.072C1225.24 569.709 1283.85 561.177 1325.02 538.363C1408.12 492.55 1416.28 399.812 1416.46 398.885L1418.32 399.07C1418.32 399.998 1409.97 493.663 1325.95 540.032C1283.85 563.402 1226.72 571.563 1140.85 566.926C1113.4 565.443 1090.21 564.515 1069.81 564.33C1030.12 563.959 995.061 557.653 961.305 551.532C891.009 538.919 830.173 527.976 762.474 581.394C697.001 633.141 656.567 680.252 613.537 729.96C599.626 746.097 585.344 762.604 569.95 779.853C520.427 835.311 466.083 863.689 382.989 877.414Z" fill="#C4C4C4"/>
</g>
<g opacity="0.1538">
<path opacity="0.1538" d="M375.941 876.672L375.57 874.818C457.551 860.536 509.113 830.674 559.563 767.798L563.458 762.79C624.109 687.301 668.067 632.771 759.321 573.418C829.431 527.791 887.114 534.468 953.886 542.258C988.755 546.339 1024.92 550.419 1066.47 547.823C1088.54 546.339 1112.47 546.524 1137.51 548.008C1229.32 553.758 1282.92 548.194 1322.8 528.533C1408.86 486.245 1417.76 391.837 1417.76 390.91L1419.62 391.095C1419.62 392.023 1410.53 487.543 1323.54 530.202C1283.29 550.048 1229.32 555.613 1137.32 549.863C1112.28 548.379 1088.54 548.194 1066.47 549.677C1024.74 552.46 988.57 548.194 953.515 544.113C887.114 536.509 829.802 529.831 760.248 575.088C669.179 634.44 625.407 688.785 564.756 764.088L560.861 769.096C510.226 832.158 458.293 862.391 375.941 876.672Z" fill="#C4C4C4"/>
</g>
<g opacity="0.1923">
<path opacity="0.1923" d="M368.893 875.93L368.522 874.075C449.761 859.237 499.098 827.521 550.289 757.04C615.948 666.713 661.389 617.747 757.466 567.112C828.318 529.646 885.074 532.613 944.983 535.766C981.336 537.621 1019.17 539.661 1063.32 533.355C1085.94 530.202 1109.32 529.46 1134.54 531.315C1211.7 536.879 1274.39 539.476 1321.13 519.073C1409.97 480.309 1419.8 384.232 1419.8 383.305L1421.66 383.49C1421.66 384.418 1411.64 481.607 1321.87 520.743C1274.76 541.331 1211.88 538.734 1134.35 533.17C1109.31 531.315 1086.13 532.057 1063.5 535.21C1019.17 541.516 981.336 539.476 944.797 537.621C885.074 534.468 828.689 531.686 758.208 568.781C662.502 619.231 617.061 668.011 551.587 758.152C500.21 829.19 450.688 861.092 368.893 875.93Z" fill="#C4C4C4"/>
</g>
<g opacity="0.2308">
<path opacity="0.2308" d="M361.66 875.189L361.289 873.334C452.543 856.084 496.315 813.61 540.644 746.468C599.811 656.883 647.108 606.248 755.055 560.992C824.794 531.686 877.469 531.13 932.927 530.388C971.691 530.017 1011.75 529.461 1059.61 518.888C1082.24 513.881 1105.61 512.397 1130.83 514.437C1136.95 514.993 1142.89 515.364 1148.64 515.921C1219.12 521.671 1274.76 526.307 1318.72 509.429C1410.53 474.374 1421.1 376.443 1421.1 375.515L1422.96 375.701C1422.77 376.628 1412.2 475.672 1319.27 511.284C1274.95 528.348 1219.12 523.711 1148.45 517.961C1142.52 517.405 1136.58 517.034 1130.64 516.477C1105.61 514.437 1082.42 515.921 1059.98 520.929C1011.94 531.501 971.877 532.057 932.927 532.428C877.469 533.17 825.165 533.727 755.611 562.846C648.035 607.917 601.11 658.367 541.943 747.766C497.614 815.28 453.656 857.754 361.66 875.189Z" fill="#C4C4C4"/>
</g>
<g opacity="0.2692">
<path opacity="0.2692" d="M354.611 874.632L354.241 872.777C444.197 854.972 485.929 810.828 531.371 735.896C587.199 643.714 634.681 593.079 753.015 554.685C818.673 533.355 868.381 530.017 916.419 526.678C960.934 523.525 1003.04 520.558 1056.27 504.607C1078.9 497.744 1102.08 495.518 1127.49 497.744C1142.52 499.042 1156.98 500.526 1170.89 502.01C1227.83 507.945 1276.99 513.139 1316.68 499.784C1411.46 468.253 1422.77 368.652 1422.77 367.725L1424.62 367.911C1424.44 368.838 1413.13 469.737 1317.23 501.639C1277.17 514.993 1227.83 509.8 1170.71 503.865C1156.8 502.381 1142.33 500.897 1127.31 499.599C1102.27 497.373 1079.08 499.599 1056.83 506.276C1003.41 522.412 961.305 525.38 916.605 528.533C868.567 531.872 819.044 535.396 753.571 556.54C635.794 594.748 588.497 645.012 532.854 736.823C506.702 780.039 483.703 808.417 458.107 829.005C430.1 851.633 397.271 866.1 354.611 874.632Z" fill="#C4C4C4"/>
</g>
<g opacity="0.3077">
<path opacity="0.3077" d="M347.563 873.89L347.192 872.035C435.294 853.859 476.655 806.377 522.097 725.138C553.257 669.495 580.151 634.811 612.609 609.03C647.108 581.579 689.767 562.846 750.975 548.379C806.803 535.21 850.946 530.017 889.896 525.565C943.87 519.445 990.61 514.066 1052.93 489.954C1075.74 481.237 1098.37 478.269 1124.15 480.866C1144.93 482.906 1164.59 485.502 1183.51 488.099C1234.14 494.962 1277.73 500.897 1314.64 490.139C1412.2 462.132 1424.25 360.862 1424.44 359.75L1426.29 359.935C1426.29 360.12 1423.33 386.087 1408.12 415.207C1394.21 442.101 1366.76 477.156 1315.01 491.809C1277.73 502.566 1233.96 496.631 1183.13 489.768C1164.22 487.172 1144.56 484.575 1123.97 482.535C1098.37 480.124 1076.11 482.906 1053.49 491.623C990.796 515.735 944.055 521.114 889.896 527.235C850.946 531.686 806.988 536.694 751.346 550.048C690.324 564.515 647.85 583.063 613.537 610.328C581.449 635.924 554.555 670.422 523.581 725.88C496.872 773.733 474.8 803.595 449.575 825.666C422.125 849.778 389.667 865.173 347.563 873.89Z" fill="#C4C4C4"/>
</g>
<g opacity="0.3462">
<path opacity="0.3462" d="M340.33 873.148L339.959 871.294C426.947 852.56 466.268 803.78 512.452 714.381C542.685 655.77 569.95 620.159 603.521 595.119C638.576 568.967 683.276 552.645 748.563 542.073C783.618 536.509 813.851 532.614 840.56 529.09C919.016 518.888 970.764 512.211 1049.22 475.487C1071.85 464.915 1094.48 461.205 1120.63 463.987C1145.11 466.584 1168.3 470.479 1190.55 474.374C1236.92 482.35 1277.17 489.212 1312.41 480.495C1364.9 467.697 1392.91 433.569 1407.19 407.046C1422.77 378.297 1425.92 352.145 1425.92 351.96L1427.78 352.145C1427.78 352.331 1424.62 378.854 1408.86 407.788C1394.39 434.682 1366.01 469.366 1312.78 482.164C1277.17 490.882 1236.92 484.019 1190.18 476.043C1167.93 472.334 1144.93 468.253 1120.44 465.657C1094.85 462.875 1072.41 466.584 1050.15 476.971C971.506 513.881 919.573 520.558 840.931 530.759C814.222 534.283 784.175 538.178 748.934 543.742C683.832 554.129 639.318 570.451 604.634 596.418C571.433 621.271 544.354 656.883 514.121 715.122C467.752 805.264 428.06 854.23 340.33 873.148Z" fill="#C4C4C4"/>
</g>
<g opacity="0.3846">
<path opacity="0.3846" d="M333.282 872.406L332.911 870.551C418.601 851.447 456.067 801.554 503.178 703.622C560.119 585.289 614.835 547.637 746.523 535.766C889.711 522.968 943.313 518.146 1045.88 461.019C1068.32 448.592 1090.95 444.141 1117.29 447.109C1144.37 450.262 1169.97 455.455 1194.63 460.648C1238.41 469.737 1276.06 477.712 1310.37 470.85C1364.34 459.906 1393.46 426.15 1408.12 399.627C1424.25 370.878 1427.41 344.355 1427.59 344.169L1429.45 344.355C1429.45 344.54 1426.11 371.434 1409.79 400.554C1394.76 427.448 1365.46 461.761 1310.74 472.704C1276.24 479.752 1238.22 471.777 1194.26 462.503C1169.59 457.31 1144.18 452.116 1117.1 448.963C1091.32 445.996 1068.88 450.262 1046.81 462.689C943.87 519.815 890.267 524.638 746.709 537.621C676.784 543.927 631.713 557.282 595.916 582.506C561.603 606.618 534.338 643.157 504.847 704.364C457.551 802.852 419.714 853.116 333.282 872.406Z" fill="#C4C4C4"/>
</g>
<g opacity="0.4231">
<path opacity="0.4231" d="M326.234 871.664L325.863 869.81C410.254 850.149 446.051 799.328 493.904 692.865C523.024 628.319 550.66 590.667 586.271 566.927C622.996 542.629 670.292 531.315 744.483 529.46C891.566 525.565 941.644 511.655 1042.54 446.552C1064.99 432.085 1087.06 427.077 1113.95 430.416C1142.89 433.94 1170.15 440.803 1196.49 447.294C1236.55 457.31 1274.57 466.769 1308.15 461.39C1363.6 452.488 1393.65 418.916 1408.86 392.393C1425.55 363.644 1428.89 336.75 1429.08 336.379L1430.93 336.565C1430.93 336.75 1427.41 364.201 1410.53 393.135C1394.95 420.029 1364.72 453.971 1308.52 463.06C1274.57 468.624 1236.55 459.165 1196.12 448.964C1169.78 442.472 1142.52 435.609 1113.77 432.085C1087.43 428.932 1065.73 433.754 1043.66 448.036C942.386 513.324 892.122 527.42 744.483 531.13C670.663 532.984 623.552 544.113 587.199 568.41C551.958 591.78 524.508 629.247 495.574 693.607C447.35 800.812 411.367 852.004 326.234 871.664Z" fill="#C4C4C4"/>
</g>
<g opacity="0.4615">
<path opacity="0.4615" d="M319 870.922L318.629 869.068C401.352 849.222 436.592 795.248 484.445 682.293C539.16 552.645 594.432 518.517 742.257 523.34C895.461 528.347 940.346 505.163 1039.2 432.271C1061.46 415.763 1083.53 410.199 1110.61 413.723C1140.66 417.618 1169.41 425.965 1197.05 434.125C1236 445.44 1272.72 456.197 1306.11 451.931C1363.23 444.883 1394.02 411.683 1409.79 385.16C1427.04 356.411 1430.56 328.96 1430.75 328.775L1432.6 328.96C1432.6 329.146 1428.89 356.967 1411.46 386.087C1395.51 412.981 1364.16 446.552 1306.48 453.6C1272.91 457.866 1235.81 447.109 1196.67 435.795C1169.04 427.819 1140.47 419.473 1110.43 415.578C1083.9 412.054 1062.2 417.618 1040.32 433.755C949.62 500.712 904.178 525.751 779.167 525.751C767.482 525.751 755.24 525.565 742.257 525.194C595.545 520.557 540.459 554.5 486.3 683.035C458.849 748.322 438.447 785.789 415.819 812.683C390.037 843.101 360.361 861.092 319 870.922Z" fill="#C4C4C4"/>
</g>
<g opacity="0.5">
<path opacity="0.5" d="M311.952 870.366L311.581 868.511C393.191 848.109 426.576 793.764 474.986 671.721C503.363 599.941 530.629 561.548 568.651 539.105C606.674 516.663 657.865 510.171 740.031 517.219C900.098 530.944 942.015 496.075 1033.83 419.473L1035.68 417.989C1057.75 399.627 1079.82 393.135 1107.09 397.03C1137.88 401.296 1167.74 411.312 1196.49 420.771C1234.7 433.384 1270.68 445.44 1303.88 442.472C1362.49 437.279 1394.21 404.635 1410.53 378.112C1428.33 349.363 1432.23 321.541 1432.23 321.17L1434.08 321.356C1434.08 321.727 1430.19 349.919 1412.2 378.854C1395.69 405.748 1363.42 438.762 1304.07 444.141C1270.49 447.109 1234.33 435.238 1195.93 422.441C1167.18 412.981 1137.69 403.151 1106.9 398.7C1080.2 394.99 1058.49 401.296 1036.98 419.287L1035.12 420.771C942.943 497.558 900.839 532.614 740.031 518.888C658.422 511.84 607.416 518.332 569.764 540.589C532.112 562.846 505.218 600.869 476.84 672.277C428.06 795.063 394.303 849.778 311.952 870.366Z" fill="#C4C4C4"/>
</g>
<g opacity="0.5385">
<path opacity="0.5385" d="M304.904 869.624L304.347 867.769C387.997 846.068 419.157 785.232 465.526 660.963C518.387 519.63 574.215 488.841 737.62 510.912C894.904 532.057 935.523 494.034 1016.58 417.989C1021.58 413.352 1026.78 408.529 1032.16 403.522C1053.86 383.305 1075.93 376.071 1103.57 380.152C1134.91 384.788 1165.51 396.288 1195.01 407.231C1232.66 421.327 1268.27 434.682 1301.65 432.641C1361.75 429.303 1394.39 397.03 1411.27 370.507C1429.63 341.758 1433.71 313.38 1433.71 313.195L1435.57 313.38C1435.57 313.751 1431.3 342.314 1412.94 371.434C1395.88 398.328 1362.68 430.972 1301.84 434.496C1268.08 436.351 1232.29 422.997 1194.45 408.9C1164.96 397.957 1134.54 386.458 1103.38 381.821C1076.3 377.74 1054.78 384.788 1033.46 404.634C1028.08 409.642 1022.88 414.465 1018.06 419.102C936.636 495.518 895.832 533.726 737.62 512.396C575.328 490.51 519.871 521.114 467.381 661.334C420.641 786.53 389.481 847.737 304.904 869.624Z" fill="#C4C4C4"/>
</g>
<g opacity="0.5769">
<path opacity="0.5769" d="M297.67 868.882L297.114 867.027C336.806 856.455 364.998 836.238 388.739 801.74C412.48 767.241 432.141 718.09 456.067 650.205C507.815 503.865 565.127 473.817 735.395 504.606C892.493 532.984 932.37 490.696 1005.08 413.723C1012.5 405.747 1020.29 397.587 1028.63 389.055C1050.15 366.797 1072.22 359.007 1100.04 363.459C1131.57 368.467 1162.73 381.45 1192.96 393.877C1230.43 409.457 1265.86 424.11 1299.43 423.182C1361.01 421.698 1394.58 389.797 1412.01 363.273C1430.93 334.525 1435.2 305.776 1435.2 305.405L1437.05 305.59C1437.05 305.961 1432.6 335.081 1413.68 364.015C1396.06 390.909 1362.12 423.182 1299.61 424.852C1265.49 425.593 1230.06 410.941 1192.41 395.361C1162.36 382.934 1131.2 369.951 1099.86 364.943C1072.59 360.677 1051.08 368.281 1030.12 389.982C1021.77 398.514 1014.17 406.675 1006.56 414.65C933.669 491.994 893.42 534.468 735.209 506.09C644.697 489.768 591.65 491.623 552.144 512.211C512.637 532.799 485.372 572.862 457.922 650.576C433.81 718.646 414.149 767.797 390.408 802.482C366.297 837.722 337.733 858.124 297.67 868.882Z" fill="#C4C4C4"/>
</g>
<g opacity="0.6154">
<path opacity="0.6154" d="M290.622 868.141L290.066 866.286C370.748 843.843 399.682 780.039 446.793 639.448C474.058 558.024 501.694 516.663 542.684 496.631C583.304 476.6 638.576 477.156 733.354 498.115C891.566 533.356 931.072 486.059 996.731 407.974C1005.82 397.216 1015.09 386.087 1025.29 374.402C1046.44 350.291 1068.51 341.573 1096.7 346.396C1128.23 351.774 1159.95 366.242 1190.55 380.152C1227.83 397.216 1263.07 413.353 1297.2 413.538C1297.57 413.538 1297.94 413.538 1298.32 413.538C1360.82 413.538 1394.95 382.192 1412.75 355.855C1432.04 327.106 1436.68 297.986 1436.68 297.615L1438.54 297.801C1438.54 298.172 1433.9 327.662 1414.42 356.782C1396.43 383.491 1361.75 415.207 1298.5 415.207C1298.13 415.207 1297.76 415.207 1297.39 415.207C1262.89 415.022 1227.46 398.885 1190 381.822C1159.39 367.911 1127.86 353.444 1096.52 348.25C1068.7 343.613 1047.74 351.774 1026.78 375.701C1016.58 387.386 1007.3 398.514 998.215 409.272C932.185 488.099 892.307 535.581 732.983 500.155C638.761 479.197 583.86 478.64 543.426 498.486C502.993 518.332 475.542 559.322 448.462 640.19C401.351 781.338 372.232 845.512 290.622 868.141Z" fill="#C4C4C4"/>
</g>
<g opacity="0.6538">
<path opacity="0.6538" d="M283.574 867.398L283.018 865.544C362.402 842.73 389.667 779.297 437.334 628.69C487.598 470.108 545.281 443.399 731.129 491.994C891.195 533.912 928.476 484.204 990.054 401.667C1000.07 388.313 1010.27 374.587 1021.96 360.12C1042.91 333.968 1064.8 324.694 1093.36 329.702C1124.9 335.266 1156.98 351.217 1187.96 366.612C1225.42 385.16 1260.66 402.78 1295.16 403.893C1359.71 406.118 1395.32 374.958 1413.68 348.435C1433.53 319.686 1438.35 290.01 1438.35 289.825L1440.2 290.196C1440.2 290.567 1435.38 320.614 1415.17 349.548C1396.62 376.442 1360.64 407.973 1295.16 405.747C1260.29 404.635 1223.01 386.087 1187.22 368.281C1156.24 352.887 1124.34 337.121 1093.18 331.557C1064.99 326.549 1044.21 335.452 1023.44 361.233C1011.94 375.7 1001.55 389.426 991.723 402.78C929.774 485.873 892.308 535.952 730.943 493.849C546.58 445.625 489.267 472.148 439.374 629.432C391.15 780.595 363.7 844.399 283.574 867.398Z" fill="#C4C4C4"/>
</g>
<g opacity="0.6923">
<path opacity="0.6923" d="M276.34 866.656L275.784 864.802C353.87 841.617 379.465 778.741 427.875 617.933C454.398 530.202 482.59 486.801 525.435 468.439C567.538 450.262 626.52 455.27 728.903 485.688C805.505 508.502 857.067 509.985 896.388 490.51C932.741 472.519 955.555 438.206 984.489 394.805C995.061 379.039 1005.82 362.717 1018.43 345.653C1039.02 317.646 1061.09 307.445 1089.84 312.824C1121.19 318.759 1153.46 336.008 1184.8 352.887C1220.79 372.176 1257.88 392.208 1292.94 394.248C1359.15 398.329 1395.5 367.539 1414.42 341.016C1434.83 312.268 1439.83 282.22 1439.83 281.849L1441.69 282.22C1441.69 282.591 1436.68 313.009 1415.91 342.129C1396.8 369.023 1359.89 400.183 1292.94 396.103C1257.51 393.877 1220.04 373.846 1184.06 354.556C1152.9 337.863 1120.63 320.428 1089.65 314.679C1061.65 309.485 1040.13 319.316 1020.1 346.766C1007.49 363.83 996.731 380.152 986.159 395.917C957.039 439.504 934.04 474.003 897.315 492.365C857.623 512.026 805.69 510.542 728.532 487.543C626.52 457.125 568.095 452.117 526.363 470.108C484.074 488.285 456.253 531.315 429.915 618.489C381.135 780.039 355.353 843.286 276.34 866.656Z" fill="#C4C4C4"/>
</g>
<g opacity="0.7308">
<path opacity="0.7308" d="M269.292 866.1L268.736 864.245C307.129 852.374 333.096 829.932 355.168 788.941C377.981 746.653 396.529 684.518 418.601 607.546C443.084 522.412 468.679 479.381 507.259 458.979C550.845 435.98 612.424 441.73 726.677 479.752C804.577 505.534 856.511 508.13 895.275 488.099C931.072 469.551 952.587 433.569 979.667 387.942C990.425 369.765 1001.55 351.032 1014.91 331.371C1035.12 301.324 1057.2 290.566 1086.32 296.316C1117.29 302.437 1149.93 321.17 1181.28 339.347C1217.45 360.306 1254.73 381.821 1290.53 384.974C1358.22 390.909 1395.5 360.677 1414.79 334.153C1435.75 305.405 1440.95 274.801 1440.95 274.615L1442.8 274.986C1442.8 275.357 1437.61 306.332 1416.28 335.266C1396.62 362.16 1358.78 392.949 1290.34 386.829C1254.17 383.676 1216.71 361.975 1180.35 341.016C1149.01 322.839 1116.55 304.106 1085.94 298.171C1057.57 292.607 1036.24 303.179 1016.39 332.484C1003.22 352.145 991.908 370.878 981.151 388.869C942.386 453.971 913.081 502.937 834.995 502.937C806.246 502.937 770.82 496.26 725.935 481.422C612.238 443.584 551.031 437.835 508 460.648C469.978 480.68 444.567 523.525 420.27 608.102C398.198 685.26 379.465 747.58 356.652 789.869C334.395 831.23 308.242 854.044 269.292 866.1Z" fill="#C4C4C4"/>
</g>
<g opacity="0.7692">
<path opacity="0.7692" d="M262.244 865.358L261.688 863.504C299.71 851.448 325.121 828.078 346.821 785.604C368.708 742.573 386.513 680.068 409.327 596.603C433.253 509.058 458.849 465.1 497.799 444.883C542.128 421.884 605.746 429.86 724.637 473.261C804.021 502.196 856.511 505.72 894.719 485.132C930.145 466.028 950.176 428.376 975.772 380.523C986.715 360.121 998.029 338.976 1011.75 316.905C1031.6 285.003 1053.67 273.318 1083.16 279.438C1113.77 285.745 1145.11 305.034 1178.13 325.437C1214.48 347.879 1252.32 371.249 1288.67 375.33C1357.85 383.12 1396.06 353.258 1415.91 326.735C1437.42 297.986 1442.8 267.012 1442.8 266.641L1444.66 267.012C1444.66 267.383 1439.28 298.728 1417.39 327.848C1397.17 354.742 1358.41 385.16 1288.3 377.185C1251.39 373.104 1213.55 349.734 1177.01 327.106C1144 306.704 1113.02 287.599 1082.61 281.293C1054.04 275.358 1032.53 286.672 1013.05 318.018C999.327 340.089 988.013 361.234 977.07 381.636C940.902 449.149 913.637 500.155 837.592 500.155C808.101 500.155 771.377 492.551 723.709 475.302C605.376 432.271 542.128 424.296 498.356 446.924C459.962 466.77 434.552 510.357 410.811 597.345C387.997 680.995 370.006 743.5 348.12 786.716C326.605 829.561 300.823 853.117 262.244 865.358Z" fill="#C4C4C4"/>
</g>
<g opacity="0.8077">
<path opacity="0.8077" d="M255.011 864.616L254.454 862.762C331.241 837.722 353.128 764.273 399.868 585.845C423.423 495.704 449.019 451.004 488.154 430.972C512.266 418.731 541.572 416.134 580.707 422.811C616.133 428.747 661.204 442.843 722.411 466.955C803.279 498.857 856.325 503.494 894.162 482.164C929.032 462.503 947.95 422.997 971.877 373.104C982.82 350.29 994.134 326.92 1008.23 302.252C1027.89 268.31 1049.78 256.068 1079.64 262.374C1109.87 268.866 1141.22 289.454 1174.42 311.34C1211.14 335.452 1249.35 360.491 1286.44 365.685C1357.11 375.329 1396.25 345.839 1416.65 319.316C1438.72 290.567 1444.29 259.221 1444.29 258.85L1446.14 259.221C1446.14 259.592 1440.58 291.494 1418.13 320.428C1397.36 347.323 1357.67 377.37 1286.07 367.539C1248.42 362.346 1210.21 337.307 1173.12 313.009C1140.1 291.309 1108.94 270.906 1079.08 264.415C1050.15 258.108 1028.82 270.164 1009.71 303.365C995.618 327.848 984.304 351.403 973.361 374.031C939.789 443.956 914.379 497.002 839.632 497.187C809.585 497.187 771.377 488.47 721.484 468.81C660.277 444.698 615.391 430.787 580.151 424.852C541.572 418.36 512.452 420.957 488.711 432.827C450.132 452.488 424.722 497.002 401.352 586.402C354.797 765.572 332.725 839.206 255.011 864.616Z" fill="#C4C4C4"/>
</g>
<g opacity="0.8462">
<path opacity="0.8462" d="M247.963 863.874L247.406 862.205C321.597 837.166 342.185 768.91 390.408 575.458C413.408 482.906 439.003 437.093 478.51 417.433C531.185 391.095 610.012 414.65 720.185 461.02C895.646 535.025 924.581 467.882 968.538 366.056C979.296 341.016 990.425 315.235 1004.89 288.156C1024.18 252.173 1046.25 239.19 1076.3 246.052C1105.98 252.73 1137.32 274.616 1170.52 297.615C1207.8 323.582 1246.2 350.29 1284.22 356.411C1356.37 367.91 1396.62 338.791 1417.39 312.267C1440.02 283.519 1445.77 251.617 1445.77 251.431L1447.62 251.802C1447.62 252.173 1441.87 284.446 1418.88 313.566C1397.73 340.46 1357.11 370.136 1283.85 358.451C1245.27 352.33 1206.69 325.436 1169.41 299.47C1136.39 276.471 1105.23 254.77 1075.74 248.093C1046.62 241.415 1025.11 254.213 1006.38 289.268C991.908 316.162 980.78 342.129 970.022 366.983C938.862 439.504 915.121 494.591 841.673 494.591C810.883 494.591 771.562 484.946 719.258 462.874C609.642 416.691 531.371 393.135 479.252 419.287C440.302 438.762 415.077 484.204 392.263 576.015C347.378 755.371 326.975 837.351 247.963 863.874Z" fill="#C4C4C4"/>
</g>
<g opacity="0.8846">
<path opacity="0.8846" d="M240.914 863.132L240.358 861.463C316.589 834.94 335.507 755.742 381.135 564.701C403.763 469.737 429.173 422.997 469.05 403.522C522.468 377.184 603.892 403.707 717.96 454.713C793.634 488.656 845.753 497.559 882.106 482.535C924.209 465.286 942.386 418.175 965.385 358.637C975.401 332.67 986.9 302.994 1001.55 273.689C1020.29 236.222 1042.91 222.126 1072.96 229.174C1102.27 236.037 1133.61 259.036 1166.81 283.519C1204.46 311.155 1243.41 339.718 1282.36 346.766C1326.88 354.927 1364.34 348.621 1393.46 328.404C1437.79 297.615 1447.62 244.012 1447.62 243.641L1449.48 244.012C1449.29 244.569 1439.46 298.728 1394.58 330.073C1364.9 350.661 1327.06 356.967 1281.99 348.806C1242.67 341.573 1203.54 313.01 1165.7 285.188C1132.68 260.891 1101.52 238.077 1072.59 231.214C1043.1 224.352 1021.77 237.706 1003.22 274.801C988.57 304.107 977.256 333.597 967.054 359.75C943.87 419.658 925.508 467.14 882.848 484.575C846.124 499.784 793.448 490.881 717.218 456.754C603.706 405.748 522.653 379.41 469.792 405.562C430.657 424.852 405.432 471.221 382.989 565.628C336.991 756.855 318.073 836.424 240.914 863.132Z" fill="#C4C4C4"/>
</g>
<g opacity="0.9231">
<path opacity="0.9231" d="M233.681 862.391L233.125 860.721C269.849 847.552 292.848 822.328 312.879 773.362C332.354 725.509 348.676 654.657 371.119 556.54L371.675 553.758C393.933 456.383 419.343 408.715 459.406 389.24C506.888 366.241 576.256 382.192 715.734 448.222C793.078 484.761 845.753 494.776 881.921 479.567C923.653 461.947 940.717 413.167 962.232 351.032C972.062 322.84 983.191 290.752 998.029 258.85C1016.39 219.344 1039.02 204.506 1069.44 211.925C1098.19 218.973 1129.53 243.085 1162.55 268.681C1200.75 298.171 1240.08 328.589 1279.95 336.75C1325.77 346.024 1364.16 340.46 1394.02 320.243C1438.91 289.825 1448.92 235.851 1449.11 235.48L1450.96 235.851C1450.78 236.408 1440.76 290.938 1395.13 321.912C1364.72 342.686 1325.77 348.25 1279.58 338.976C1239.33 330.815 1199.64 300.212 1161.43 270.721C1128.42 245.311 1097.26 221.199 1069.07 214.151C1050.52 209.514 1023.25 209.328 999.884 259.963C985.046 291.68 974.103 323.767 964.272 351.96C942.572 414.28 925.508 463.616 882.848 481.422C846.124 496.817 792.892 486.801 714.992 450.077C576.256 384.418 507.259 368.467 460.333 391.095C420.827 410.199 395.787 457.496 373.53 554.314L372.974 557.096C327.903 753.887 309.17 835.497 233.681 862.391Z" fill="#C4C4C4"/>
</g>
<g opacity="0.9615">
<path opacity="0.9615" d="M226.633 861.834L226.076 860.165C262.244 846.81 284.872 821.215 304.347 771.507C323.451 722.727 339.031 650.576 360.732 550.79L362.401 543.371C384.473 443.399 410.069 394.804 450.317 375.515C476.098 363.273 508.557 363.088 552.329 374.958C592.021 385.716 641.543 406.489 713.323 442.286C792.336 481.422 845.938 492.365 881.921 476.97C923.468 459.165 939.233 408.344 959.264 344.169C968.724 313.751 979.481 279.067 994.319 244.939C1012.31 203.393 1034.94 187.813 1065.73 195.788C1093.92 203.022 1125.08 228.247 1158.1 255.141C1196.67 286.486 1236.74 318.759 1277.54 327.847C1324.47 338.419 1363.79 333.412 1394.39 313.009C1439.83 282.962 1450.22 228.617 1450.22 228.061L1452.08 228.432C1451.89 228.988 1441.5 283.889 1395.5 314.493C1364.53 335.081 1324.65 340.089 1277.17 329.517C1236 320.243 1195.75 287.784 1156.98 256.439C1124.15 229.73 1092.99 204.691 1065.36 197.457C1035.68 189.853 1013.79 205.247 996.174 245.681C981.336 279.809 970.579 314.308 961.119 344.726C940.902 409.457 925.137 460.648 882.663 478.64C872.091 483.277 859.849 485.502 846.124 485.502C812.553 485.502 768.966 471.777 712.395 443.956C569.208 372.547 498.356 354.37 450.874 377.184C410.996 396.103 385.771 444.512 363.885 543.742L362.216 551.161C340.515 651.133 324.75 723.283 305.646 772.249C286.356 822.142 263.357 848.294 226.633 861.834Z" fill="#C4C4C4"/>
</g>
<path d="M219.585 861.092L218.843 859.423C289.88 832.343 306.944 750.734 348.305 553.943L352.757 532.428C374.272 430.23 399.682 380.708 440.302 361.419C496.13 335.081 581.82 368.652 711.097 435.795C791.594 477.712 845.938 489.768 881.921 474.188C923.282 456.197 938.12 403.522 956.668 336.75C965.756 304.107 976.143 267.011 990.981 230.287C1003.41 199.683 1018.62 182.434 1037.16 177.983C1070.55 169.822 1111.17 204.135 1154.01 240.303C1193.15 273.503 1233.77 307.816 1275.5 318.017C1323.73 329.702 1363.97 325.436 1395.32 305.034C1441.32 275.172 1451.89 220.642 1451.89 220.086L1453.74 220.457C1453.56 221.013 1442.99 276.285 1396.25 306.518C1364.53 327.106 1323.73 331.557 1274.95 319.687C1232.66 309.485 1192.04 274.987 1152.72 241.601C1110.24 205.619 1069.99 171.491 1037.54 179.652C1019.54 184.103 1004.89 200.796 992.65 231.029C977.812 267.568 967.426 304.663 958.337 337.307C939.604 404.635 924.766 457.681 882.477 476.043C845.938 491.809 791.223 479.753 710.17 437.464C581.449 370.693 496.13 336.936 441.044 363.088C400.981 382.007 375.941 431.158 354.611 532.799L350.16 554.314C308.613 751.847 291.55 833.642 219.585 861.092Z" fill="#C4C4C4"/>
</g>
</g>
</svg>
