<svg width="440" height="279" viewBox="0 0 440 279" fill="none" xmlns="http://www.w3.org/2000/svg">
<rect x="389" width="226" height="386" transform="rotate(90 389 0)" fill="white"/>
<rect x="369" y="20" width="189" height="350" transform="rotate(90 369 20)" fill="#DEDEDE"/>
<line x1="354.5" y1="17" x2="354.5" y2="210" stroke="#C9C8C8" stroke-width="3"/>
<line x1="370" y1="34.5" x2="19" y2="34.5" stroke="#C9C8C8" stroke-width="3"/>
<line x1="370" y1="50.5" x2="19" y2="50.5" stroke="#C9C8C8" stroke-width="3"/>
<line x1="370" y1="66.5" x2="19" y2="66.5" stroke="#C9C8C8" stroke-width="3"/>
<line x1="370" y1="82.5" x2="19" y2="82.5" stroke="#C9C8C8" stroke-width="3"/>
<line x1="370" y1="162.5" x2="19" y2="162.5" stroke="#C9C8C8" stroke-width="3"/>
<line x1="370" y1="178.5" x2="19" y2="178.5" stroke="#C9C8C8" stroke-width="3"/>
<line x1="370" y1="194.5" x2="19" y2="194.5" stroke="#C9C8C8" stroke-width="3"/>
<line x1="370" y1="98.5" x2="19" y2="98.5" stroke="#C9C8C8" stroke-width="3"/>
<line x1="370" y1="114.5" x2="19" y2="114.5" stroke="#C9C8C8" stroke-width="3"/>
<line x1="370" y1="130.5" x2="19" y2="130.5" stroke="#C9C8C8" stroke-width="3"/>
<line x1="370" y1="146.5" x2="19" y2="146.5" stroke="#C9C8C8" stroke-width="3"/>
<line x1="338.5" y1="17" x2="338.5" y2="210" stroke="#C9C8C8" stroke-width="3"/>
<line x1="322.5" y1="17" x2="322.5" y2="210" stroke="#C9C8C8" stroke-width="3"/>
<line x1="306.5" y1="17" x2="306.5" y2="210" stroke="#C9C8C8" stroke-width="3"/>
<line x1="290.5" y1="17" x2="290.5" y2="210" stroke="#C9C8C8" stroke-width="3"/>
<line x1="274.5" y1="17" x2="274.5" y2="210" stroke="#C9C8C8" stroke-width="3"/>
<line x1="258.5" y1="17" x2="258.5" y2="210" stroke="#C9C8C8" stroke-width="3"/>
<line x1="242.5" y1="17" x2="242.5" y2="210" stroke="#C9C8C8" stroke-width="3"/>
<line x1="226.5" y1="17" x2="226.5" y2="210" stroke="#C9C8C8" stroke-width="3"/>
<line x1="210.5" y1="17" x2="210.5" y2="210" stroke="#C9C8C8" stroke-width="3"/>
<line x1="194.5" y1="17" x2="194.5" y2="210" stroke="#C9C8C8" stroke-width="3"/>
<line x1="178.5" y1="17" x2="178.5" y2="210" stroke="#C9C8C8" stroke-width="3"/>
<line x1="162.5" y1="17" x2="162.5" y2="210" stroke="#C9C8C8" stroke-width="3"/>
<line x1="146.5" y1="17" x2="146.5" y2="210" stroke="#C9C8C8" stroke-width="3"/>
<line x1="130.5" y1="17" x2="130.5" y2="210" stroke="#C9C8C8" stroke-width="3"/>
<line x1="114.5" y1="17" x2="114.5" y2="210" stroke="#C9C8C8" stroke-width="3"/>
<line x1="98.5" y1="17" x2="98.5" y2="210" stroke="#C9C8C8" stroke-width="3"/>
<line x1="82.5" y1="17" x2="82.5" y2="210" stroke="#C9C8C8" stroke-width="3"/>
<line x1="66.5" y1="17" x2="66.5" y2="210" stroke="#C9C8C8" stroke-width="3"/>
<line x1="50.5" y1="17" x2="50.5" y2="210" stroke="#C9C8C8" stroke-width="3"/>
<line x1="34.5" y1="17" x2="34.5" y2="210" stroke="#C9C8C8" stroke-width="3"/>
<rect x="387.5" y="1.5" width="17" height="386" transform="rotate(90 387.5 1.5)" stroke="#C9C8C8" stroke-width="3"/>
<rect x="18.5" y="227.5" width="17" height="226" transform="rotate(-180 18.5 227.5)" stroke="#C9C8C8" stroke-width="3"/>
<rect x="387.5" y="227.5" width="17" height="226" transform="rotate(-180 387.5 227.5)" stroke="#C9C8C8" stroke-width="3"/>
<rect x="387.5" y="210.5" width="17" height="386" transform="rotate(90 387.5 210.5)" stroke="#C9C8C8" stroke-width="3"/>
<path d="M370 114.371V107H351V107.004V139H359.499H370V131.633H359.499V114.371H370Z" fill="white" stroke="#C9C8C8" stroke-width="3" stroke-miterlimit="10"/>
<path d="M19 131.629L19 139L38 139L38 138.996L38 107L29.5006 107L19 107L19 114.367L29.5006 114.367L29.5006 131.629L19 131.629Z" fill="white" stroke="#C9C8C8" stroke-width="3" stroke-miterlimit="10"/>
<line x1="389" y1="1.5" x2="439" y2="1.5" stroke="#ECD031" stroke-width="3"/>
<line x1="389" y1="227.5" x2="439" y2="227.5" stroke="#ECD031" stroke-width="3"/>
<line x1="387.5" y1="229" x2="387.5" y2="279" stroke="#ECD031" stroke-width="3"/>
<line x1="1.5" y1="229" x2="1.5" y2="279" stroke="#ECD031" stroke-width="3"/>
<path d="M430.5 3L421.84 18L439.16 18L430.5 3ZM430.5 226L439.16 211L421.84 211L430.5 226ZM429 16.5L429 212.5L432 212.5L432 16.5L429 16.5Z" fill="#ECD031"/>
<path d="M386 270L371 261.34V278.66L386 270ZM3 270L18 278.66V261.34L3 270ZM372.5 268.5L16.5 268.5V271.5L372.5 271.5V268.5Z" fill="#ECD031"/>
</svg>
