<svg width="96" height="96" viewBox="0 0 96 96" fill="none" xmlns="http://www.w3.org/2000/svg">
<path d="M47.5 93C72.629 93 93 72.629 93 47.5C93 22.371 72.629 2 47.5 2C22.371 2 2 22.371 2 47.5C2 72.629 22.371 93 47.5 93Z" fill="#232323"/>
<path d="M48 0C21.4912 0 0 21.4903 0 48C0 74.5098 21.4912 96 48 96C74.5088 96 96 74.5098 96 48C96 21.4903 74.5088 0 48 0ZM72.3482 53.1914C74.5854 55.3765 76.9522 57.433 78.9606 59.8441C79.8504 60.9107 80.6891 62.0135 81.3275 63.2539C82.2389 65.0227 81.4159 66.9623 79.8327 67.0674L69.999 67.0655C67.4593 67.2756 65.4381 66.2513 63.7342 64.5149C62.374 63.1312 61.112 61.6531 59.8019 60.2222C59.2666 59.6349 58.7029 59.082 58.0311 58.6469C56.6906 57.7748 55.5258 58.0419 54.7578 59.4424C53.9751 60.8674 53.7963 62.4466 53.7217 64.0327C53.6147 66.3515 52.9154 66.9574 50.5888 67.0664C45.6174 67.2992 40.9004 66.5449 36.5163 64.0386C32.6488 61.8279 29.6554 58.7078 27.047 55.1752C21.9676 48.2887 18.0775 40.7305 14.5822 32.9553C13.7955 31.2042 14.371 30.2673 16.3028 30.2309C19.5123 30.169 22.7218 30.1769 25.9313 30.228C27.2375 30.2486 28.1017 30.996 28.6036 32.2285C30.338 36.4957 32.4642 40.5557 35.1286 44.3211C35.8387 45.3238 36.5635 46.3236 37.5957 47.0317C38.7349 47.8134 39.6031 47.5551 40.1403 46.2833C40.484 45.475 40.6323 44.6108 40.7069 43.7446C40.9623 40.7777 40.9927 37.8117 40.5508 34.8566C40.2758 33.0073 39.2358 31.8131 37.3924 31.4634C36.4535 31.2857 36.591 30.938 37.0477 30.4018C37.8402 29.4747 38.5827 28.9012 40.0666 28.9012L51.1771 28.8992C52.9282 29.2429 53.321 30.0286 53.5587 31.7925L53.5685 44.1394C53.5479 44.8219 53.9112 46.8451 55.1369 47.2919C56.119 47.616 56.7672 46.8284 57.3545 46.2067C60.0189 43.3792 61.9173 40.0421 63.6173 36.588C64.3676 35.0648 65.0148 33.4885 65.6434 31.9093C66.1109 30.7416 66.8376 30.1671 68.1556 30.1867L78.8545 30.1995C79.1698 30.1995 79.49 30.2024 79.8023 30.2565C81.6054 30.5648 82.0994 31.3407 81.5416 33.0996C80.6636 35.8632 78.9577 38.1653 77.2901 40.4732C75.5026 42.9442 73.5964 45.3287 71.8267 47.8105C70.2003 50.0791 70.329 51.2213 72.3482 53.1914Z" fill="#ECD031"/>
</svg>
